<?xml version="1.0" standalone="no"?>
<!DOCTYPE svg PUBLIC "-//W3C//DTD SVG 1.1//EN" "http://www.w3.org/Graphics/SVG/1.1/DTD/svg11.dtd" >
<svg xmlns="http://www.w3.org/2000/svg" xmlns:xlink="http://www.w3.org/1999/xlink" version="1.1">
<metadata>
Created by FontForge 20200427 at Thu Oct 11 02:42:42 2001
 By www
Copyright 1990-2001 Bitstream Inc. All rights reserved.
</metadata>
<defs>
<font id="FolioBT-ExtraBold" horiz-adv-x="1024" >
  <font-face 
    font-family="Folio XBd BT"
    font-weight="400"
    font-stretch="normal"
    units-per-em="2048"
    panose-1="2 11 9 4 4 7 2 4 2 4"
    ascent="1556"
    descent="-492"
    x-height="1114"
    cap-height="1460"
    bbox="-342 -485 2640 1982"
    underline-thickness="322"
    underline-position="-419"
    unicode-range="U+0020-F002"
  />
<missing-glyph horiz-adv-x="1229" 
d="M102 -362v1806h1024v-1806h-1024zM217 -248h795v1577h-795v-1577z" />
    <glyph glyph-name=".notdef" horiz-adv-x="1229" 
d="M102 -362v1806h1024v-1806h-1024zM217 -248h795v1577h-795v-1577z" />
    <glyph glyph-name=".null" horiz-adv-x="0" 
 />
    <glyph glyph-name="nonmarkingreturn" horiz-adv-x="739" 
 />
    <glyph glyph-name="space" unicode=" " horiz-adv-x="739" 
 />
    <glyph glyph-name="exclam" unicode="!" horiz-adv-x="786" 
d="M156 0v477h475v-477h-475zM606 618h-426l-63 842h553z" />
    <glyph glyph-name="quotedbl" unicode="&#x22;" horiz-adv-x="758" 
d="M690 1440v-563h-260v563h260zM326 1440v-563h-258v563h258z" />
    <glyph glyph-name="numbersign" unicode="#" horiz-adv-x="1575" 
d="M946 834h-239l-78 -213h239zM938 1470l-129 -366h227l129 366h289l-129 -366h256l-100 -270h-252l-76 -213h258l-100 -271h-254l-131 -366h-289l131 366h-227l-131 -366h-289l131 366h-258l100 271h254l74 213h-258l98 270h258l129 366h289z" />
    <glyph glyph-name="dollar" unicode="$" horiz-adv-x="1479" 
d="M692 877v243q-58 -6 -92.5 -39t-34.5 -84q0 -53 31 -82t96 -38zM797 225q54 7 85 39.5t31 83.5q0 42 -30.5 74t-85.5 47v-244zM98 414l488 -1q1 -87 27 -131.5t79 -51.5v262q-337 49 -476.5 152.5t-139.5 297.5q0 217 148.5 320t467.5 108v156h105v-156
q293 -9 434 -114.5t141 -315.5v-10h-479q-2 88 -25 133t-71 55v-270q354 -62 479 -156.5t125 -283.5q0 -212 -139.5 -310t-444.5 -98q-3 0 -8 -1t-6 -1q-3 0 -4 0.5t-2 1.5v-193h-105v193h-43q-282 0 -417.5 92.5t-135.5 284.5q0 6 1 18.5t1 18.5z" />
    <glyph glyph-name="percent" unicode="%" horiz-adv-x="1915" 
d="M506 883v288q0 43 -14 60.5t-48 17.5q-33 0 -47 -17.5t-14 -60.5v-288q0 -44 14 -62t47 -18q34 0 48 17.5t14 62.5zM1473 -39q-190 0 -267.5 82t-77.5 299q0 218 77.5 300.5t267.5 82.5t267 -82t77 -301q0 -218 -77 -299.5t-267 -81.5zM1534 201v286q0 45 -14 62.5
t-47 17.5t-47.5 -18t-14.5 -62v-286q0 -44 14 -62t48 -18q32 0 46.5 18t14.5 62zM354 -39l998 1446h211l-998 -1446h-211zM444 645q-189 0 -266.5 82t-77.5 299t77 299t267 82q192 0 269.5 -81.5t77.5 -299.5q0 -217 -77.5 -299t-269.5 -82z" />
    <glyph glyph-name="ampersand" unicode="&#x26;" horiz-adv-x="1853" 
d="M846 289l-199 203q-41 -32 -61.5 -63t-20.5 -60q0 -65 34.5 -98t100.5 -33q37 0 73.5 12.5t72.5 38.5zM1124 0l-98 121q-81 -83 -195.5 -125.5t-257.5 -42.5q-213 0 -347 102.5t-134 261.5q0 125 94.5 217.5t278.5 149.5q-118 84 -168.5 169t-50.5 194q0 176 150 274
t423 98q252 0 398.5 -92.5t146.5 -251.5q0 -118 -85 -207.5t-249 -142.5l160 -156l139 125h379l-348 -295l393 -399h-629zM856 887q52 55 78.5 104t26.5 90q0 54 -31.5 88.5t-79.5 34.5q-50 0 -83.5 -29t-33.5 -71q0 -48 25 -94t98 -123z" />
    <glyph glyph-name="quotesingle" unicode="'" horiz-adv-x="393" 
d="M326 1440v-563h-258v563h258z" />
    <glyph glyph-name="parenleft" unicode="(" horiz-adv-x="1081" 
d="M229 1174q0 155 83.5 220.5t297.5 65.5h412v-309q-10 1 -27 2q-43 2 -57 2q-87 0 -131.5 -33t-44.5 -98v-778q0 -65 44.5 -98t131.5 -33q14 0 57 2q17 1 27 2v-309h-412q-214 0 -297.5 65t-83.5 221v1078z" />
    <glyph glyph-name="parenright" unicode=")" horiz-adv-x="1081" 
d="M850 1174v-1078q0 -156 -82.5 -221t-296.5 -65h-412v309q11 -1 30 -2q39 -2 52 -2q88 0 133 33t45 98v778q0 64 -45.5 97.5t-132.5 33.5q-13 0 -52 -2q-19 -1 -30 -2v309h412q214 0 296.5 -65t82.5 -221z" />
    <glyph glyph-name="asterisk" unicode="*" horiz-adv-x="1020" 
d="M512 870l-172 -249l-205 147l191 238l-271 75l78 238l260 -92v276h238v-276l260 90l78 -238l-273 -71l191 -240l-205 -143z" />
    <glyph glyph-name="plus" unicode="+" horiz-adv-x="1706" 
d="M993 1221v-473h459v-273h-459v-475h-280v475h-459v273h459v473h280z" />
    <glyph glyph-name="comma" unicode="," horiz-adv-x="739" 
d="M133 0v479h473v-479l-178 -346h-285l127 332l2 14h-139z" />
    <glyph glyph-name="hyphen" unicode="-" horiz-adv-x="872" 
d="M76 381v381h721v-381h-721z" />
    <glyph glyph-name="period" unicode="." horiz-adv-x="739" 
d="M133 0v479h473v-479h-473z" />
    <glyph glyph-name="slash" unicode="/" horiz-adv-x="1176" 
d="M23 -133l948 1696l180 -109l-950 -1692z" />
    <glyph glyph-name="zero" unicode="0" horiz-adv-x="1479" 
d="M739 -39q-194 0 -342 56.5t-217 156.5q-50 72 -72 188t-22 322t22 322t72 188q69 100 217 156.5t342 56.5q195 0 342.5 -56.5t216.5 -156.5q51 -71 74 -189t23 -321q0 -202 -23 -319.5t-74 -190.5q-69 -100 -216.5 -156.5t-342.5 -56.5zM858 412v546q0 84 -27.5 118
t-91.5 34q-63 0 -90.5 -34.5t-27.5 -117.5v-546q0 -82 27.5 -117t90.5 -35q64 0 91.5 34t27.5 118z" />
    <glyph glyph-name="one" unicode="1" horiz-adv-x="1479" 
d="M487 0v1077h-284v176l284 117h531v-1370h-531z" />
    <glyph glyph-name="two" unicode="2" horiz-adv-x="1479" 
d="M104 0q0 131 7.5 224t23.5 159q25 99 85 173t173 142q52 31 188 83t205 93q33 20 50.5 49.5t17.5 65.5q0 62 -33 97.5t-88 35.5q-65 0 -100 -42t-35 -119q0 -6 1 -17t1 -16h-498v16q0 226 156 345.5t449 119.5q315 0 491 -124t176 -345q0 -167 -100 -259.5t-402 -170.5
q-178 -45 -239.5 -91.5t-62.5 -123.5h759v-295h-1225z" />
    <glyph glyph-name="three" unicode="3" horiz-adv-x="1479" 
d="M78 393h507q4 -75 39.5 -112t104.5 -37q67 0 105 38.5t38 106.5q0 87 -52.5 124.5t-178.5 37.5h-156v280h160q113 0 163 33t50 105q0 65 -38 104t-101 39q-59 0 -94 -31.5t-37 -86.5l-490 -1q29 208 187.5 311t449.5 103q309 0 473 -100t164 -289q0 -135 -86 -216.5
t-246 -96.5l1 -15q165 -3 262.5 -92.5t97.5 -237.5q0 -209 -157.5 -304t-510.5 -95q-344 0 -499.5 95t-155.5 304v33z" />
    <glyph glyph-name="four" unicode="4" horiz-adv-x="1479" 
d="M733 0v260h-629v227l404 883h704v-842h201v-268h-201v-260h-479zM457 528h276l23 615h-21z" />
    <glyph glyph-name="five" unicode="5" horiz-adv-x="1479" 
d="M66 418h497q2 -79 40 -122.5t106 -43.5q63 0 98 36t35 101v131q0 104 -33 153.5t-100 49.5q-60 0 -96 -32t-50 -97h-409v776h1126v-299h-686v-213q65 43 151 64.5t191 21.5q208 0 325 -123t117 -342q0 -261 -163 -389.5t-496 -128.5q-338 0 -490.5 107.5t-162.5 349.5z
" />
    <glyph glyph-name="six" unicode="6" horiz-adv-x="1479" 
d="M623 788q73 48 148 69.5t171 21.5q206 0 323 -116t117 -321q0 -249 -150 -365t-476 -116q-387 0 -533.5 125t-146.5 449v237q0 113 8.5 195t26.5 147q41 147 199.5 225t414.5 78q317 0 481 -105.5t164 -310.5v-26h-514q0 72 -29.5 108.5t-87.5 36.5q-60 0 -88 -35
t-28 -110v-187zM848 346v205q0 49 -30.5 77.5t-82.5 28.5q-46 0 -77 -29.5t-31 -72.5v-213q0 -46 32 -75t84 -29q46 0 75.5 31t29.5 77z" />
    <glyph glyph-name="seven" unicode="7" horiz-adv-x="1479" 
d="M145 1071v299h1213v-203l-553 -1167h-572l504 1071h-592z" />
    <glyph glyph-name="eight" unicode="8" horiz-adv-x="1479" 
d="M409 717l1 14q-136 20 -207.5 91t-71.5 186q0 193 157 297t451 104q295 0 453 -104t158 -297q0 -115 -75 -187.5t-212 -89.5v-14q147 -8 243.5 -111.5t96.5 -253.5q0 -190 -170.5 -290.5t-493.5 -100.5q-327 0 -494 99.5t-167 293.5q0 148 94 251t237 112zM608 401
q0 -74 33 -112.5t96 -38.5q67 0 101 41t34 121t-36 128t-97 48t-96 -49.5t-35 -137.5zM844 973q0 68 -29.5 107.5t-79.5 39.5t-79 -39.5t-29 -107.5q0 -74 27.5 -112t80.5 -38q54 0 81.5 38t27.5 112z" />
    <glyph glyph-name="nine" unicode="9" horiz-adv-x="1479" 
d="M856 590q-72 -47 -146 -68.5t-161 -21.5q-217 0 -336 113.5t-119 322.5q0 250 151.5 365.5t477.5 115.5q386 0 533 -125.5t147 -447.5v-236q0 -113 -8.5 -196t-26.5 -148q-41 -146 -199.5 -224.5t-414.5 -78.5q-317 0 -481 105.5t-164 310.5v26h512q0 -71 30 -108t88 -37
q61 0 89 35t28 110v187zM629 1034v-207q0 -46 29 -76t75 -30q52 0 85.5 30t33.5 74v211q0 45 -33.5 75t-85.5 30q-46 0 -75 -30t-29 -77z" />
    <glyph glyph-name="colon" unicode=":" horiz-adv-x="786" 
d="M158 594v479h473v-479h-473zM158 0v479h473v-479h-473z" />
    <glyph glyph-name="semicolon" unicode=";" horiz-adv-x="786" 
d="M156 0v479h475v-479l-178 -346h-287l129 332l2 14h-141zM156 594v479h475v-479h-475z" />
    <glyph glyph-name="less" unicode="&#x3c;" horiz-adv-x="1706" 
d="M1442 938l-801 -328l801 -327v-299l-1178 487v281l1178 487v-301z" />
    <glyph glyph-name="equal" unicode="=" horiz-adv-x="1706" 
d="M1452 512v-272h-1198v272h1198zM1452 983v-272h-1198v272h1198z" />
    <glyph glyph-name="greater" unicode="&#x3e;" horiz-adv-x="1706" 
d="M1442 752v-281l-1178 -487v299l801 327l-801 328v301z" />
    <glyph glyph-name="question" unicode="?" horiz-adv-x="1356" 
d="M446 618v44q0 91 23 147t76 100q18 17 74.5 44.5t80.5 52.5q23 22 35.5 52t12.5 62q0 47 -28.5 76t-74.5 29q-53 0 -81.5 -42.5t-28.5 -121.5q0 -18 0.5 -27t0.5 -16h-464q-1 9 -1.5 20.5t-0.5 32.5q0 229 134 330.5t441 101.5q325 0 482 -98.5t157 -302.5
q0 -56 -11.5 -103.5t-35.5 -87.5q-35 -59 -135 -108q-21 -10 -32 -16l-7 -4q-117 -63 -121 -165h-496zM451 -2v473h485v-473h-485z" />
    <glyph glyph-name="at" unicode="@" horiz-adv-x="2048" 
d="M1241 911l49 82h242l-156 -627q-2 -12 -3 -18.5t-1 -11.5q0 -24 12.5 -36.5t34.5 -12.5q128 0 231 142t103 331q0 236 -174.5 381t-462.5 145q-142 0 -266 -35.5t-225 -105.5q-154 -108 -238 -269t-84 -350q0 -294 199.5 -468.5t535.5 -174.5q160 0 307.5 47t278.5 140
l115 -160q-164 -122 -342 -181t-381 -59q-188 0 -355 54.5t-294 156.5q-149 119 -223 279t-74 360q0 176 55.5 332.5t163.5 284.5q149 177 361.5 271.5t461.5 94.5q386 0 626 -206t240 -533q0 -171 -68 -314.5t-196 -242.5q-70 -55 -153.5 -84t-174.5 -29q-109 0 -166.5 38
t-66.5 115q-59 -79 -127.5 -115t-161.5 -36q-171 0 -257.5 88t-86.5 262q0 247 143.5 411.5t356.5 164.5q74 0 130.5 -28t90.5 -83zM1126 494l47 195q-7 67 -42 104.5t-91 37.5q-95 0 -167 -116.5t-72 -274.5q0 -72 30.5 -111.5t86.5 -39.5q72 0 129 55.5t79 149.5z" />
    <glyph glyph-name="A" unicode="A" horiz-adv-x="1485" 
d="M-23 0l392 1460h747l391 -1460h-549l-40 225h-353l-39 -225h-549zM616 510h252l-112 717h-27z" />
    <glyph glyph-name="B" unicode="B" horiz-adv-x="1550" 
d="M649 641v-348q9 -1 20 -1.5t31 -0.5q118 0 173 42.5t55 133.5q0 92 -55.5 134t-176.5 42q-7 0 -22.5 -1t-24.5 -1zM651 1177v-302q10 -2 20.5 -2.5t30.5 -0.5q104 0 155.5 38t51.5 114q0 78 -52.5 117t-158.5 39q-18 0 -28 -0.5t-19 -2.5zM133 1460h735q312 0 439 -84.5
t127 -283.5q0 -144 -91 -230.5t-266 -109.5v-11q187 -18 285 -109.5t98 -246.5q0 -196 -131 -290.5t-403 -94.5h-793v1460z" />
    <glyph glyph-name="C" unicode="C" horiz-adv-x="1536" 
d="M1438 537q-8 -295 -173 -437.5t-497 -142.5q-215 0 -359 60.5t-227 185.5q-46 70 -65 180t-19 393q0 256 35.5 375.5t120.5 194.5q89 78 218.5 117.5t295.5 39.5q329 0 497 -142t172 -423h-550v51q0 117 -26.5 164t-90.5 47q-59 0 -87 -39t-28 -121v-620q0 -82 28 -121
t87 -39q65 0 92 48.5t27 168.5q0 9 -1 29t-1 31h551z" />
    <glyph glyph-name="D" unicode="D" horiz-adv-x="1550" 
d="M670 1155v-850q8 -1 16.5 -1.5t26.5 -0.5q101 0 140.5 48.5t39.5 178.5v400q0 131 -39.5 179t-140.5 48q-18 0 -27 -0.5t-16 -1.5zM133 1460h737q296 0 436 -122.5t140 -381.5v-452q0 -259 -140 -381.5t-436 -122.5h-737v1460z" />
    <glyph glyph-name="E" unicode="E" horiz-adv-x="1389" 
d="M133 0v1460h1122v-342h-587v-227h536v-322h-536v-227h587v-342h-1122z" />
    <glyph glyph-name="F" unicode="F" horiz-adv-x="1346" 
d="M133 0v1460h1118v-342h-583v-227h536v-322h-536v-569h-535z" />
    <glyph glyph-name="G" unicode="G" horiz-adv-x="1536" 
d="M1147 0l-53 227h-11q-44 -136 -151 -202t-283 -66q-134 0 -236.5 33t-170.5 98q-80 78 -114 202t-34 372q0 163 9.5 293.5t21.5 168.5q58 203 200.5 289t424.5 86q346 0 512 -117t178 -368h-533v28q0 86 -30 125t-97 39q-73 0 -102 -32t-29 -144v-573q0 -124 29.5 -161.5
t101.5 -37.5q75 0 109.5 43t34.5 137q0 21 -0.5 32t-1.5 21l-121 1v278h639v-772h-293z" />
    <glyph glyph-name="H" unicode="H" horiz-adv-x="1565" 
d="M133 0v1460h535v-504h227v504h537v-1460h-537v575h-227v-575h-535z" />
    <glyph glyph-name="I" unicode="I" horiz-adv-x="811" 
d="M133 0v1460h545v-1460h-545z" />
    <glyph glyph-name="J" unicode="J" horiz-adv-x="1456" 
d="M778 1460h537v-1001q0 -252 -162.5 -377t-488.5 -125t-489 127t-163 379q0 23 0.5 35.5t2.5 23.5h534q0 -11 -1 -30t-1 -27q0 -107 27.5 -153t91.5 -46q62 0 87 38t25 132v1024z" />
    <glyph glyph-name="K" unicode="K" horiz-adv-x="1593" 
d="M133 0v1460h535v-661h14l322 661h602l-383 -696v-8l397 -756h-616l-318 743h-18v-743h-535z" />
    <glyph glyph-name="L" unicode="L" horiz-adv-x="1200" 
d="M133 0v1460h545v-1118h473v-342h-1018z" />
    <glyph glyph-name="M" unicode="M" horiz-adv-x="2081" 
d="M133 0v1460h785l114 -971h19l114 971h785v-1460h-455v1149h-22l-197 -1149h-469l-199 1149h-20v-1149h-455z" />
    <glyph glyph-name="N" unicode="N" horiz-adv-x="1759" 
d="M133 0v1460h707l325 -1067h19l-23 1067h465v-1460h-704l-318 1065h-22l18 -1065h-467z" />
    <glyph glyph-name="O" unicode="O" horiz-adv-x="1526" 
d="M764 -43q-216 0 -360.5 60.5t-225.5 185.5q-46 71 -65 182t-19 395q0 255 35.5 373t120.5 193q89 78 218.5 117.5t295.5 39.5t295.5 -39.5t218.5 -117.5q85 -75 120.5 -193t35.5 -424q0 -236 -19.5 -346t-64.5 -180q-81 -124 -226.5 -185t-359.5 -61zM649 420
q0 -81 28.5 -120.5t86.5 -39.5q57 0 85 39t28 121v620q0 82 -28 121t-85 39q-58 0 -86.5 -39.5t-28.5 -120.5v-620z" />
    <glyph glyph-name="P" unicode="P" horiz-adv-x="1565" 
d="M664 756h32q119 0 171.5 47t52.5 153q0 107 -53 155t-171 48h-32v-403zM133 0v1460h793q287 0 411.5 -116.5t124.5 -382.5q0 -261 -121.5 -380.5t-388.5 -119.5h-288v-461h-531z" />
    <glyph glyph-name="Q" unicode="Q" horiz-adv-x="1526" 
d="M1133 -412h-369q-139 0 -185.5 43.5t-46.5 171.5v177q-124 23 -210.5 76t-145.5 143q-46 70 -65 180.5t-19 396.5q0 259 35 376t119 191q89 79 219 118.5t297 39.5q166 0 295.5 -39.5t218.5 -118.5q84 -73 119 -189.5t35 -426.5q0 -297 -37 -420t-125 -201
q-65 -57 -145 -91t-181 -48q-1 -7 -1.5 -13.5t-0.5 -19.5q0 -51 30.5 -72.5t104.5 -21.5q23 0 34.5 0.5t22.5 1.5zM649 420q0 -81 28.5 -120.5t86.5 -39.5q57 0 85 39t28 121v620q0 82 -28 121t-85 39q-58 0 -86.5 -39.5t-28.5 -120.5v-620z" />
    <glyph glyph-name="R" unicode="R" horiz-adv-x="1597" 
d="M668 885q9 0 26 -1t25 -1q129 0 184 34t55 113t-56 114.5t-183 35.5q-8 0 -25 -1t-26 -1v-293zM133 0v1460h807q265 0 387.5 -94t122.5 -297q0 -138 -71 -220t-214 -108v-16q160 -19 218.5 -96t58.5 -373q0 -17 -1 -41.5t-1 -32.5q0 -67 14 -106t47 -76h-557
q-28 34 -40.5 74t-12.5 106q0 34 3 103t3 104q0 136 -41.5 176.5t-161.5 40.5h-30v-604h-531z" />
    <glyph glyph-name="S" unicode="S" horiz-adv-x="1489" 
d="M87 420h534v-8q0 -89 31 -131.5t96 -42.5q54 0 83 33t29 96q0 64 -33.5 104t-106.5 62q-31 9 -94 26q-211 58 -317 111q-103 52 -159 143t-56 207q0 225 165 354t456 129q322 0 481.5 -110t159.5 -332v-4h-500q-2 76 -29.5 111.5t-85.5 35.5q-51 0 -79.5 -26.5
t-28.5 -73.5q0 -53 35 -89.5t116 -66.5q31 -11 173 -51.5t227 -85.5q109 -57 165 -147.5t56 -208.5q0 -237 -175.5 -368.5t-492.5 -131.5q-323 0 -488 105t-165 313q0 20 0.5 29.5t2.5 17.5z" />
    <glyph glyph-name="T" unicode="T" horiz-adv-x="1237" 
d="M25 1460h1189v-342h-323v-1118h-545v1118h-321v342z" />
    <glyph glyph-name="U" unicode="U" horiz-adv-x="1565" 
d="M895 1460h537v-1001q0 -252 -162 -377t-488 -125q-325 0 -487 125t-162 377v1001h535v-993q0 -120 25.5 -160.5t88.5 -40.5q62 0 87.5 38t25.5 132v1024z" />
    <glyph glyph-name="V" unicode="V" horiz-adv-x="1407" 
d="M-14 1460h551l157 -1104h21l157 1104h549l-344 -1460h-745z" />
    <glyph glyph-name="W" unicode="W" horiz-adv-x="2077" 
d="M217 0l-217 1460h440l113 -1124h20l123 1124h684l115 -1124h25l118 1124h439l-215 -1460h-703l-110 1038h-25l-106 -1038h-701z" />
    <glyph glyph-name="X" unicode="X" horiz-adv-x="1518" 
d="M0 0l438 739l-413 721h571l158 -430h10l156 430h573l-414 -721l439 -739h-580l-176 446l-6 -2l-178 -444h-578z" />
    <glyph glyph-name="Y" unicode="Y" horiz-adv-x="1413" 
d="M438 0v502l-446 958h553l153 -577h17l153 577h553l-446 -958v-502h-537z" />
    <glyph glyph-name="Z" unicode="Z" horiz-adv-x="1370" 
d="M66 0v299l608 819h-574v342h1190v-301l-602 -817h617v-342h-1239z" />
    <glyph glyph-name="bracketleft" unicode="[" horiz-adv-x="1081" 
d="M764 109h256v-299h-787v1650h787v-299h-256v-1052z" />
    <glyph glyph-name="backslash" unicode="\" horiz-adv-x="1176" 
d="M1151 -133l-178 -105l-950 1692l182 109z" />
    <glyph glyph-name="bracketright" unicode="]" horiz-adv-x="1081" 
d="M317 109v1052h-256v299h787v-1650h-787v299h256z" />
    <glyph glyph-name="asciicircum" unicode="^" horiz-adv-x="2048" 
d="M1192 1462l442 -565h-303l-307 309l-309 -309h-303l442 565h338z" />
    <glyph glyph-name="underscore" unicode="_" 
d="M1024 -201v-282h-1024v282h1024z" />
    <glyph glyph-name="grave" unicode="`" 
d="M207 1632h287l192 -368h-154z" />
    <glyph glyph-name="a" unicode="a" horiz-adv-x="1389" 
d="M125 758q12 193 155.5 295t401.5 102q306 0 451 -113t145 -352v-481q0 -67 19 -121t55 -88h-508q-15 31 -22 72t-7 96v25l-8 2q-53 -118 -148.5 -176t-236.5 -58q-163 0 -254.5 89.5t-91.5 248.5q0 162 87.5 238.5t315.5 103.5l20 2q308 36 308 131q0 44 -34 71t-89 27
q-57 0 -91 -28.5t-44 -85.5h-424zM805 553q-47 -33 -133 -74q-125 -59 -125 -127q0 -47 30.5 -79.5t75.5 -32.5q56 0 95.5 39t44.5 98z" />
    <glyph glyph-name="b" unicode="b" horiz-adv-x="1432" 
d="M109 1460h514l-2 -504h6q67 99 149.5 146t188.5 47q199 0 291 -138.5t92 -439.5q0 -340 -86.5 -475t-292.5 -135q-122 0 -210 56t-147 169h-10l4 -186h-497v1460zM621 649v-198q0 -56 28.5 -90.5t73.5 -34.5q41 0 68.5 32.5t27.5 81.5v213q0 68 -26 103t-76 35
q-45 0 -70.5 -38t-25.5 -104z" />
    <glyph glyph-name="c" unicode="c" horiz-adv-x="1360" 
d="M1286 449v-17q0 -226 -156.5 -348.5t-447.5 -122.5q-315 0 -460.5 137.5t-145.5 436.5q0 335 139.5 477.5t466.5 142.5q294 0 449 -117.5t155 -339.5v-20h-481v29q0 75 -25 111t-78 36q-51 0 -75.5 -32t-24.5 -99v-338q0 -67 24.5 -98t75.5 -31q55 0 80 36t25 116
q0 5 -1 19t-1 22h481z" />
    <glyph glyph-name="d" unicode="d" horiz-adv-x="1432" 
d="M1323 1460v-1460h-498l4 186h-10q-58 -113 -146.5 -169t-209.5 -56q-203 0 -290 134t-87 456q0 319 89.5 458.5t291.5 139.5q106 0 188.5 -47t149.5 -146h8l-4 504h514zM811 649q0 66 -25 104t-69 38q-51 0 -78 -35.5t-27 -102.5v-213q0 -49 28.5 -81.5t70.5 -32.5
q44 0 72 34t28 91v198z" />
    <glyph glyph-name="e" unicode="e" horiz-adv-x="1403" 
d="M565 692h281v10q0 82 -38.5 130.5t-102.5 48.5t-102 -48.5t-38 -127.5v-13zM1325 371q-23 -198 -184 -303t-441 -105q-333 0 -478.5 139t-145.5 455q0 317 145.5 455.5t478.5 138.5q332 0 479.5 -138.5t147.5 -451.5q0 -10 -1 -30t-1 -31h-758v-97q0 -79 36 -122t102 -43
q54 0 89 33t52 100h479z" />
    <glyph glyph-name="f" unicode="f" horiz-adv-x="981" 
d="M948 1227q-6 0 -18 1q-54 3 -76 3q-64 0 -87.5 -20.5t-23.5 -73.5v-23h201v-250h-213v-864h-530v864h-129v250h129q0 7 -1 22.5t-1 22.5q0 167 77.5 234t274.5 67h397v-233z" />
    <glyph glyph-name="g" unicode="g" horiz-adv-x="1432" 
d="M1323 1114v-1118q0 -223 -166 -344t-473 -121q-292 0 -426 95t-135 302h489q10 -61 34 -87.5t71 -26.5q44 0 66.5 34t25.5 107l10 235h-14q-66 -96 -149 -143t-189 -47q-199 0 -290 137t-91 438q0 314 87.5 446t289.5 132q121 0 209.5 -56t146.5 -169v186h504zM811 664
q0 56 -27.5 90t-70.5 34q-44 0 -72.5 -32t-28.5 -82v-174q0 -66 26 -103t73 -37q48 0 74 37t26 105v162z" />
    <glyph glyph-name="h" unicode="h" horiz-adv-x="1436" 
d="M823 0v592q0 115 -22 147.5t-78 32.5q-54 0 -77 -33t-23 -116v-623h-512v1460h497l-4 -536h14q36 110 124.5 169.5t215.5 59.5q193 0 285 -112.5t92 -348.5v-692h-512z" />
    <glyph glyph-name="i" unicode="i" horiz-adv-x="786" 
d="M127 1214v246h532v-246h-532zM127 0v1114h532v-1114h-532z" />
    <glyph glyph-name="j" unicode="j" horiz-adv-x="801" 
d="M141 1214v246h533v-246h-533zM-76 -193h31q110 0 148 47t38 228v1032h533v-1235q0 -185 -78 -255t-272 -70h-400v253z" />
    <glyph glyph-name="k" unicode="k" horiz-adv-x="1511" 
d="M111 0v1460h512v-835h12l293 489h569l-344 -524l360 -590h-585l-291 563h-14v-563h-512z" />
    <glyph glyph-name="l" unicode="l" horiz-adv-x="786" 
d="M127 0v1460h532v-1460h-532z" />
    <glyph glyph-name="m" unicode="m" horiz-adv-x="2073" 
d="M109 0v1114h505l-4 -190h13q33 105 121 166t206 61q121 0 198 -58.5t101 -168.5h15q35 108 123.5 167.5t211.5 59.5q189 0 281 -113t92 -346v-692h-502v592q0 114 -19.5 147t-70.5 33q-49 0 -69.5 -33t-20.5 -116v-623h-499v592q0 114 -20 147t-71 33q-49 0 -69.5 -32
t-20.5 -117v-623h-501z" />
    <glyph glyph-name="n" unicode="n" horiz-adv-x="1436" 
d="M823 0v592q0 115 -22 147.5t-78 32.5q-54 0 -77 -33t-23 -116v-623h-512v1114h497l-4 -190h14q36 110 124.5 169.5t215.5 59.5q193 0 285 -112.5t92 -348.5v-692h-512z" />
    <glyph glyph-name="o" unicode="o" horiz-adv-x="1403" 
d="M801 707q0 81 -23 116t-76 35q-52 0 -76 -36.5t-24 -114.5v-299q0 -80 24 -116t76 -36t75.5 35.5t23.5 116.5v299zM700 1151q339 0 483 -140.5t144 -473.5q0 -301 -148.5 -437.5t-478.5 -136.5q-333 0 -478.5 139t-145.5 455q0 318 145.5 456t478.5 138z" />
    <glyph glyph-name="p" unicode="p" horiz-adv-x="1432" 
d="M109 -418v1532h497l-4 -186h10q59 113 147 169t210 56q206 0 292.5 -135t86.5 -475q0 -301 -92 -439.5t-291 -138.5q-106 0 -188.5 47t-149.5 146h-6l2 -576h-514zM621 465q0 -68 26 -104.5t74 -36.5q47 0 72.5 36t25.5 101v213q0 49 -27.5 81.5t-70.5 32.5
q-44 0 -72 -34.5t-28 -89.5v-199z" />
    <glyph glyph-name="q" unicode="q" horiz-adv-x="1432" 
d="M1323 -418h-514l4 576h-8q-67 -99 -149.5 -146t-188.5 -47q-202 0 -291.5 140t-89.5 458q0 322 87 456t290 134q121 0 209.5 -56t146.5 -169h10l-4 186h498v-1532zM811 465v199q0 56 -27.5 90t-70.5 34q-44 0 -72.5 -32t-28.5 -82v-213q0 -65 26 -101t73 -36
q48 0 74 36.5t26 104.5z" />
    <glyph glyph-name="r" unicode="r" horiz-adv-x="1110" 
d="M127 0v1114h532l-8 -221q63 134 167.5 196t268.5 62v-543q-60 19 -101.5 27t-76.5 8q-128 0 -189 -74.5t-61 -230.5v-338h-532z" />
    <glyph glyph-name="s" unicode="s" horiz-adv-x="1323" 
d="M66 324l471 -1q9 -55 36.5 -81.5t77.5 -26.5q41 0 67.5 25t26.5 61q0 69 -153 102q-9 2 -12 3l-28 6q-212 47 -282 80q-83 38 -130.5 114t-47.5 172q0 184 147 279.5t431 95.5q272 0 413.5 -87.5t141.5 -256.5v-21l-447 1q-1 55 -23.5 83.5t-66.5 28.5q-48 0 -77 -22.5
t-29 -59.5q0 -83 220 -119q31 -5 48 -8q230 -39 318.5 -114t88.5 -220q0 -193 -150.5 -295t-438.5 -102q-293 0 -447 93t-155 270z" />
    <glyph glyph-name="t" unicode="t" horiz-adv-x="1014" 
d="M735 862v-377q0 -138 36.5 -178.5t143.5 -40.5h29v-266h-457q-170 0 -226 58t-56 251v553h-139v252h139v246h530v-246h211v-252h-211z" />
    <glyph glyph-name="u" unicode="u" horiz-adv-x="1436" 
d="M612 1114v-592q0 -118 21.5 -150t77.5 -32q54 0 77 33t23 116v625h514v-1114h-500l4 190h-12q-35 -110 -123 -169.5t-217 -59.5q-193 0 -285 112.5t-92 348.5v692h512z" />
    <glyph glyph-name="v" unicode="v" horiz-adv-x="1346" 
d="M319 0l-335 1114h528l145 -756h23l154 756h528l-338 -1114h-705z" />
    <glyph glyph-name="w" unicode="w" horiz-adv-x="2081" 
d="M1393 1114l82 -854h22l88 854h496l-262 -1114h-682l-86 844h-25l-82 -844h-682l-262 1114h496l82 -854h22l88 854h705z" />
    <glyph glyph-name="x" unicode="x" horiz-adv-x="1323" 
d="M-14 0l354 584l-313 530h514l112 -330h15l114 330h514l-313 -530l354 -584h-538l-133 362h-9l-133 -362h-538z" />
    <glyph glyph-name="y" unicode="y" horiz-adv-x="1352" 
d="M168 -446v262q15 -2 32 -3t52 -1q97 0 134.5 24t37.5 84q0 42 -22 100q-3 8 -5 13l-411 1081h557l125 -776h14l125 776h561l-450 -1198q-81 -213 -184 -287.5t-285 -74.5h-281z" />
    <glyph glyph-name="z" unicode="z" horiz-adv-x="1214" 
d="M66 0v221l432 637h-387v256h1011v-217l-448 -637h475v-260h-1083z" />
    <glyph glyph-name="braceleft" unicode="{" 
d="M905 1192q-8 0 -22.5 1t-20.5 1q-87 0 -117 -30t-30 -128v-239q0 -134 -47 -189.5t-170 -77.5q124 -23 170.5 -77.5t46.5 -186.5v-241q0 -96 29.5 -126t115.5 -30q7 0 22 1t23 1v-285h-80q-139 0 -211.5 10.5t-119.5 34.5q-60 30 -84.5 84.5t-24.5 186.5v258
q0 127 -46.5 179t-158.5 52q-5 0 -16.5 -1t-18.5 -1v283q7 0 18.5 -1t16.5 -1q112 0 158.5 52t46.5 179v258q0 133 24.5 188t84.5 85q48 24 120.5 34.5t210.5 10.5h80v-285z" />
    <glyph glyph-name="bar" unicode="|" 
d="M653 1565v-2048h-280v2048h280z" />
    <glyph glyph-name="braceright" unicode="}" 
d="M641 1159v-258q0 -127 46.5 -179t158.5 -52q5 0 16.5 1t18.5 1v-283q-7 0 -18.5 1t-16.5 1q-112 0 -158.5 -52t-46.5 -179v-258q0 -130 -25 -186t-86 -87q-45 -23 -115 -33t-200 -10h-94v283q9 0 23 -1t20 -1q87 0 117 30t30 128v241q0 132 46.5 186.5t170.5 77.5
q-123 22 -170 77t-47 188v241q0 98 -30 128t-117 30q-6 0 -20 -1t-23 -1v285h80q138 0 210 -10.5t119 -34.5q61 -31 86 -87t25 -186z" />
    <glyph glyph-name="asciitilde" unicode="~" horiz-adv-x="1706" 
d="M1530 543q-102 -69 -192 -101t-179 -32q-54 0 -111.5 11.5t-154.5 45.5q-124 42 -194.5 56t-137.5 14q-84 0 -176 -38t-207 -120v299q119 75 216.5 109t191.5 34q58 0 123 -12t155 -41q22 -7 64 -22q152 -54 235 -54q86 0 175 36.5t192 113.5v-299z" />
    <glyph glyph-name="Adieresis" unicode="&#xc4;" horiz-adv-x="1485" 
d="M-23 0l392 1460h747l391 -1460h-549l-40 225h-353l-39 -225h-549zM616 510h252l-112 717h-27zM798 1933h252v-270h-252v270zM436 1933h250v-270h-250v270z" />
    <glyph glyph-name="Aring" unicode="&#xc5;" horiz-adv-x="1485" 
d="M616 485h252l-112 684h-27zM-23 0l392 1391h747l391 -1391h-549l-40 213h-353l-39 -213h-549zM741 1823q-48 0 -81 -31.5t-33 -77.5q0 -45 33 -76.5t81 -31.5q49 0 83 31.5t34 76.5t-34 77t-83 32zM741 1972q114 0 193.5 -75.5t79.5 -182.5q0 -108 -78.5 -182t-194.5 -74
q-115 0 -192.5 73.5t-77.5 182.5t78 183.5t192 74.5z" />
    <glyph glyph-name="Ccedilla" unicode="&#xc7;" horiz-adv-x="1536" 
d="M1438 537q-8 -295 -173 -437.5t-497 -142.5q-215 0 -359 60.5t-227 185.5q-46 70 -65 180t-19 393q0 256 35.5 375.5t120.5 194.5q89 78 218.5 117.5t295.5 39.5q329 0 497 -142t172 -423h-550v51q0 117 -26.5 164t-90.5 47q-59 0 -87 -39t-28 -121v-620q0 -82 28 -121
t87 -39q65 0 92 48.5t27 168.5q0 9 -1 29t-1 31h551zM695 0h114v-84h19q111 0 170 -49.5t59 -142.5q0 -100 -66 -154.5t-188 -54.5q-58 0 -130 11.5t-161 35.5v137q81 -22 151 -33.5t120 -11.5q43 0 64.5 17.5t21.5 54.5q0 32 -28.5 47.5t-90.5 15.5q-21 0 -33 -0.5
t-22 -1.5v213z" />
    <glyph glyph-name="Eacute" unicode="&#xc9;" horiz-adv-x="1389" 
d="M133 0v1460h1122v-342h-587v-227h536v-322h-536v-227h587v-342h-1122zM704 1982h287l-325 -368h-154z" />
    <glyph glyph-name="Ntilde" unicode="&#xd1;" horiz-adv-x="1759" 
d="M133 0v1460h707l325 -1067h19l-23 1067h465v-1460h-704l-318 1065h-22l18 -1065h-467zM1094 1939h119q-30 -132 -82.5 -193t-136.5 -61q-22 0 -40.5 2.5t-36.5 8.5l-91 26q-22 6 -39 9t-29 3q-34 0 -56 -19t-34 -58h-119q28 125 80.5 185t134.5 60q20 0 42.5 -3.5
t47.5 -10.5l95 -27q12 -4 26 -6t31 -2q33 0 55 22t33 64z" />
    <glyph glyph-name="Odieresis" unicode="&#xd6;" horiz-adv-x="1526" 
d="M764 -43q-216 0 -360.5 60.5t-225.5 185.5q-46 71 -65 182t-19 395q0 255 35.5 373t120.5 193q89 78 218.5 117.5t295.5 39.5t295.5 -39.5t218.5 -117.5q85 -75 120.5 -193t35.5 -424q0 -236 -19.5 -346t-64.5 -180q-81 -124 -226.5 -185t-359.5 -61zM649 420
q0 -81 28.5 -120.5t86.5 -39.5q57 0 85 39t28 121v620q0 82 -28 121t-85 39q-58 0 -86.5 -39.5t-28.5 -120.5v-620zM819 1933h252v-270h-252v270zM457 1933h250v-270h-250v270z" />
    <glyph glyph-name="Udieresis" unicode="&#xdc;" horiz-adv-x="1565" 
d="M895 1460h537v-1001q0 -252 -162 -377t-488 -125q-325 0 -487 125t-162 377v1001h535v-993q0 -120 25.5 -160.5t88.5 -40.5q62 0 87.5 38t25.5 132v1024zM837 1933h252v-270h-252v270zM475 1933h250v-270h-250v270z" />
    <glyph glyph-name="aacute" unicode="&#xe1;" horiz-adv-x="1389" 
d="M125 758q12 193 155.5 295t401.5 102q306 0 451 -113t145 -352v-481q0 -67 19 -121t55 -88h-508q-15 31 -22 72t-7 96v25l-8 2q-53 -118 -148.5 -176t-236.5 -58q-163 0 -254.5 89.5t-91.5 248.5q0 162 87.5 238.5t315.5 103.5l20 2q308 36 308 131q0 44 -34 71t-89 27
q-57 0 -91 -28.5t-44 -85.5h-424zM805 553q-47 -33 -133 -74q-125 -59 -125 -127q0 -47 30.5 -79.5t75.5 -32.5q56 0 95.5 39t44.5 98zM747 1632h287l-325 -368h-154z" />
    <glyph glyph-name="agrave" unicode="&#xe0;" horiz-adv-x="1389" 
d="M125 758q12 193 155.5 295t401.5 102q306 0 451 -113t145 -352v-481q0 -67 19 -121t55 -88h-508q-15 31 -22 72t-7 96v25l-8 2q-53 -118 -148.5 -176t-236.5 -58q-163 0 -254.5 89.5t-91.5 248.5q0 162 87.5 238.5t315.5 103.5l20 2q308 36 308 131q0 44 -34 71t-89 27
q-57 0 -91 -28.5t-44 -85.5h-424zM805 553q-47 -33 -133 -74q-125 -59 -125 -127q0 -47 30.5 -79.5t75.5 -32.5q56 0 95.5 39t44.5 98zM424 1632h287l192 -368h-154z" />
    <glyph glyph-name="acircumflex" unicode="&#xe2;" horiz-adv-x="1389" 
d="M125 758q12 193 155.5 295t401.5 102q306 0 451 -113t145 -352v-481q0 -67 19 -121t55 -88h-508q-15 31 -22 72t-7 96v25l-8 2q-53 -118 -148.5 -176t-236.5 -58q-163 0 -254.5 89.5t-91.5 248.5q0 162 87.5 238.5t315.5 103.5l20 2q308 36 308 131q0 44 -34 71t-89 27
q-57 0 -91 -28.5t-44 -85.5h-424zM805 553q-47 -33 -133 -74q-125 -59 -125 -127q0 -47 30.5 -79.5t75.5 -32.5q56 0 95.5 39t44.5 98zM395 1264l197 368h274l195 -368h-166l-166 198l-168 -198h-166z" />
    <glyph glyph-name="adieresis" unicode="&#xe4;" horiz-adv-x="1389" 
d="M125 758q12 193 155.5 295t401.5 102q306 0 451 -113t145 -352v-481q0 -67 19 -121t55 -88h-508q-15 31 -22 72t-7 96v25l-8 2q-53 -118 -148.5 -176t-236.5 -58q-163 0 -254.5 89.5t-91.5 248.5q0 162 87.5 238.5t315.5 103.5l20 2q308 36 308 131q0 44 -34 71t-89 27
q-57 0 -91 -28.5t-44 -85.5h-424zM805 553q-47 -33 -133 -74q-125 -59 -125 -127q0 -47 30.5 -79.5t75.5 -32.5q56 0 95.5 39t44.5 98zM784 1583h252v-270h-252v270zM422 1583h250v-270h-250v270z" />
    <glyph glyph-name="atilde" unicode="&#xe3;" horiz-adv-x="1389" 
d="M125 758q12 193 155.5 295t401.5 102q306 0 451 -113t145 -352v-481q0 -67 19 -121t55 -88h-508q-15 31 -22 72t-7 96v25l-8 2q-53 -118 -148.5 -176t-236.5 -58q-163 0 -254.5 89.5t-91.5 248.5q0 162 87.5 238.5t315.5 103.5l20 2q308 36 308 131q0 44 -34 71t-89 27
q-57 0 -91 -28.5t-44 -85.5h-424zM805 553q-47 -33 -133 -74q-125 -59 -125 -127q0 -47 30.5 -79.5t75.5 -32.5q56 0 95.5 39t44.5 98zM942 1589h119q-30 -132 -82.5 -193t-136.5 -61q-22 0 -40.5 2.5t-36.5 8.5l-91 26q-22 6 -39 9t-29 3q-34 0 -56 -19t-34 -58h-119
q28 125 80.5 185t134.5 60q20 0 42.5 -3.5t47.5 -10.5l95 -27q12 -4 26 -6t31 -2q33 0 55 22t33 64z" />
    <glyph glyph-name="aring" unicode="&#xe5;" horiz-adv-x="1389" 
d="M709 1604q-48 0 -81.5 -33.5t-33.5 -81.5t33 -80.5t82 -32.5q48 0 81 33t33 80q0 48 -33.5 81.5t-80.5 33.5zM707 1761q113 0 192.5 -79t79.5 -191q0 -114 -79 -193t-193 -79t-192.5 78.5t-78.5 193.5q0 114 78.5 192t192.5 78zM125 758q12 193 155.5 295t401.5 102
q306 0 451 -113t145 -352v-481q0 -67 19 -121t55 -88h-508q-15 31 -22 72t-7 96v25l-8 2q-53 -118 -148.5 -176t-236.5 -58q-163 0 -254.5 89.5t-91.5 248.5q0 162 87.5 238.5t315.5 103.5l20 2q308 36 308 131q0 44 -34 71t-89 27q-57 0 -91 -28.5t-44 -85.5h-424zM805 553
q-47 -33 -133 -74q-125 -59 -125 -127q0 -47 30.5 -79.5t75.5 -32.5q56 0 95.5 39t44.5 98z" />
    <glyph glyph-name="ccedilla" unicode="&#xe7;" horiz-adv-x="1360" 
d="M1286 449v-17q0 -226 -156.5 -348.5t-447.5 -122.5q-315 0 -460.5 137.5t-145.5 436.5q0 335 139.5 477.5t466.5 142.5q294 0 449 -117.5t155 -339.5v-20h-481v29q0 75 -25 111t-78 36q-51 0 -75.5 -32t-24.5 -99v-338q0 -67 24.5 -98t75.5 -31q55 0 80 36t25 116
q0 5 -1 19t-1 22h481zM596 0h114v-84h19q111 0 170 -49.5t59 -142.5q0 -100 -66 -154.5t-188 -54.5q-58 0 -130 11.5t-161 35.5v137q81 -22 151 -33.5t120 -11.5q43 0 64.5 17.5t21.5 54.5q0 32 -28.5 47.5t-90.5 15.5q-21 0 -33 -0.5t-22 -1.5v213z" />
    <glyph glyph-name="eacute" unicode="&#xe9;" horiz-adv-x="1403" 
d="M565 692h281v10q0 82 -38.5 130.5t-102.5 48.5t-102 -48.5t-38 -127.5v-13zM1325 371q-23 -198 -184 -303t-441 -105q-333 0 -478.5 139t-145.5 455q0 317 145.5 455.5t478.5 138.5q332 0 479.5 -138.5t147.5 -451.5q0 -10 -1 -30t-1 -31h-758v-97q0 -79 36 -122t102 -43
q54 0 89 33t52 100h479zM720 1632h287l-325 -368h-154z" />
    <glyph glyph-name="egrave" unicode="&#xe8;" horiz-adv-x="1403" 
d="M565 692h281v10q0 82 -38.5 130.5t-102.5 48.5t-102 -48.5t-38 -127.5v-13zM1325 371q-23 -198 -184 -303t-441 -105q-333 0 -478.5 139t-145.5 455q0 317 145.5 455.5t478.5 138.5q332 0 479.5 -138.5t147.5 -451.5q0 -10 -1 -30t-1 -31h-758v-97q0 -79 36 -122t102 -43
q54 0 89 33t52 100h479zM397 1632h287l192 -368h-154z" />
    <glyph glyph-name="ecircumflex" unicode="&#xea;" horiz-adv-x="1403" 
d="M565 692h281v10q0 82 -38.5 130.5t-102.5 48.5t-102 -48.5t-38 -127.5v-13zM1325 371q-23 -198 -184 -303t-441 -105q-333 0 -478.5 139t-145.5 455q0 317 145.5 455.5t478.5 138.5q332 0 479.5 -138.5t147.5 -451.5q0 -10 -1 -30t-1 -31h-758v-97q0 -79 36 -122t102 -43
q54 0 89 33t52 100h479zM368 1264l197 368h274l195 -368h-166l-166 198l-168 -198h-166z" />
    <glyph glyph-name="edieresis" unicode="&#xeb;" horiz-adv-x="1403" 
d="M565 692h281v10q0 82 -38.5 130.5t-102.5 48.5t-102 -48.5t-38 -127.5v-13zM1325 371q-23 -198 -184 -303t-441 -105q-333 0 -478.5 139t-145.5 455q0 317 145.5 455.5t478.5 138.5q332 0 479.5 -138.5t147.5 -451.5q0 -10 -1 -30t-1 -31h-758v-97q0 -79 36 -122t102 -43
q54 0 89 33t52 100h479zM757 1583h252v-270h-252v270zM395 1583h250v-270h-250v270z" />
    <glyph glyph-name="iacute" unicode="&#xed;" horiz-adv-x="786" 
d="M127 0v1114h532v-1114h-532zM411 1632h287l-325 -368h-154z" />
    <glyph glyph-name="igrave" unicode="&#xec;" horiz-adv-x="786" 
d="M127 0v1114h532v-1114h-532zM88 1632h287l192 -368h-154z" />
    <glyph glyph-name="icircumflex" unicode="&#xee;" horiz-adv-x="786" 
d="M127 0v1114h532v-1114h-532zM59 1264l197 368h274l195 -368h-166l-166 198l-168 -198h-166z" />
    <glyph glyph-name="idieresis" unicode="&#xef;" horiz-adv-x="786" 
d="M127 0v1114h532v-1114h-532zM448 1583h252v-270h-252v270zM86 1583h250v-270h-250v270z" />
    <glyph glyph-name="ntilde" unicode="&#xf1;" horiz-adv-x="1436" 
d="M823 0v592q0 115 -22 147.5t-78 32.5q-54 0 -77 -33t-23 -116v-623h-512v1114h497l-4 -190h14q36 110 124.5 169.5t215.5 59.5q193 0 285 -112.5t92 -348.5v-692h-512zM932 1589h119q-30 -132 -82.5 -193t-136.5 -61q-22 0 -40.5 2.5t-36.5 8.5l-91 26q-22 6 -39 9t-29 3
q-34 0 -56 -19t-34 -58h-119q28 125 80.5 185t134.5 60q20 0 42.5 -3.5t47.5 -10.5l95 -27q12 -4 26 -6t31 -2q33 0 55 22t33 64z" />
    <glyph glyph-name="oacute" unicode="&#xf3;" horiz-adv-x="1403" 
d="M801 707q0 81 -23 116t-76 35q-52 0 -76 -36.5t-24 -114.5v-299q0 -80 24 -116t76 -36t75.5 35.5t23.5 116.5v299zM700 1151q339 0 483 -140.5t144 -473.5q0 -301 -148.5 -437.5t-478.5 -136.5q-333 0 -478.5 139t-145.5 455q0 318 145.5 456t478.5 138zM720 1632h287
l-325 -368h-154z" />
    <glyph glyph-name="ograve" unicode="&#xf2;" horiz-adv-x="1403" 
d="M801 707q0 81 -23 116t-76 35q-52 0 -76 -36.5t-24 -114.5v-299q0 -80 24 -116t76 -36t75.5 35.5t23.5 116.5v299zM700 1151q339 0 483 -140.5t144 -473.5q0 -301 -148.5 -437.5t-478.5 -136.5q-333 0 -478.5 139t-145.5 455q0 318 145.5 456t478.5 138zM397 1632h287
l192 -368h-154z" />
    <glyph glyph-name="ocircumflex" unicode="&#xf4;" horiz-adv-x="1403" 
d="M801 707q0 81 -23 116t-76 35q-52 0 -76 -36.5t-24 -114.5v-299q0 -80 24 -116t76 -36t75.5 35.5t23.5 116.5v299zM700 1151q339 0 483 -140.5t144 -473.5q0 -301 -148.5 -437.5t-478.5 -136.5q-333 0 -478.5 139t-145.5 455q0 318 145.5 456t478.5 138zM368 1264
l197 368h274l195 -368h-166l-166 198l-168 -198h-166z" />
    <glyph glyph-name="odieresis" unicode="&#xf6;" horiz-adv-x="1403" 
d="M801 707q0 81 -23 116t-76 35q-52 0 -76 -36.5t-24 -114.5v-299q0 -80 24 -116t76 -36t75.5 35.5t23.5 116.5v299zM700 1151q339 0 483 -140.5t144 -473.5q0 -301 -148.5 -437.5t-478.5 -136.5q-333 0 -478.5 139t-145.5 455q0 318 145.5 456t478.5 138zM757 1583h252
v-270h-252v270zM395 1583h250v-270h-250v270z" />
    <glyph glyph-name="otilde" unicode="&#xf5;" horiz-adv-x="1403" 
d="M801 707q0 81 -23 116t-76 35q-52 0 -76 -36.5t-24 -114.5v-299q0 -80 24 -116t76 -36t75.5 35.5t23.5 116.5v299zM700 1151q339 0 483 -140.5t144 -473.5q0 -301 -148.5 -437.5t-478.5 -136.5q-333 0 -478.5 139t-145.5 455q0 318 145.5 456t478.5 138zM915 1589h119
q-30 -132 -82.5 -193t-136.5 -61q-22 0 -40.5 2.5t-36.5 8.5l-91 26q-22 6 -39 9t-29 3q-34 0 -56 -19t-34 -58h-119q28 125 80.5 185t134.5 60q20 0 42.5 -3.5t47.5 -10.5l95 -27q12 -4 26 -6t31 -2q33 0 55 22t33 64z" />
    <glyph glyph-name="uacute" unicode="&#xfa;" horiz-adv-x="1436" 
d="M612 1114v-592q0 -118 21.5 -150t77.5 -32q54 0 77 33t23 116v625h514v-1114h-500l4 190h-12q-35 -110 -123 -169.5t-217 -59.5q-193 0 -285 112.5t-92 348.5v692h512zM737 1632h287l-325 -368h-154z" />
    <glyph glyph-name="ugrave" unicode="&#xf9;" horiz-adv-x="1436" 
d="M612 1114v-592q0 -118 21.5 -150t77.5 -32q54 0 77 33t23 116v625h514v-1114h-500l4 190h-12q-35 -110 -123 -169.5t-217 -59.5q-193 0 -285 112.5t-92 348.5v692h512zM414 1632h287l192 -368h-154z" />
    <glyph glyph-name="ucircumflex" unicode="&#xfb;" horiz-adv-x="1436" 
d="M612 1114v-592q0 -118 21.5 -150t77.5 -32q54 0 77 33t23 116v625h514v-1114h-500l4 190h-12q-35 -110 -123 -169.5t-217 -59.5q-193 0 -285 112.5t-92 348.5v692h512zM385 1264l197 368h274l195 -368h-166l-166 198l-168 -198h-166z" />
    <glyph glyph-name="udieresis" unicode="&#xfc;" horiz-adv-x="1436" 
d="M612 1114v-592q0 -118 21.5 -150t77.5 -32q54 0 77 33t23 116v625h514v-1114h-500l4 190h-12q-35 -110 -123 -169.5t-217 -59.5q-193 0 -285 112.5t-92 348.5v692h512zM774 1583h252v-270h-252v270zM412 1583h250v-270h-250v270z" />
    <glyph glyph-name="dagger" unicode="&#x2020;" horiz-adv-x="1403" 
d="M436 -289v996h-317v378h317v375h537v-375h317v-378h-317v-996h-537z" />
    <glyph glyph-name="degree" unicode="&#xb0;" horiz-adv-x="674" 
d="M489 1151q0 62 -45 107t-108 45q-62 0 -106 -44.5t-44 -107.5q0 -64 44 -109t108 -45q62 0 106.5 46t44.5 108zM338 1473q134 0 227.5 -94.5t93.5 -229.5q0 -132 -94.5 -227t-228.5 -95t-228 93.5t-94 228.5q0 134 95.5 229t228.5 95z" />
    <glyph glyph-name="cent" unicode="&#xa2;" horiz-adv-x="1479" 
d="M1348 487v-18q0 -210 -138 -331t-395 -138v-178h-135v178q-292 24 -417.5 156.5t-125.5 416.5q0 318 121.5 458t421.5 173v164h135v-164q263 -27 398 -145t135 -320v-22h-482v28q0 76 -24.5 111t-77.5 35q-52 0 -76 -31.5t-24 -97.5v-338q0 -67 24 -99t76 -32
q54 0 79 36.5t25 116.5q0 6 -1 20t-1 21h482z" />
    <glyph glyph-name="sterling" unicode="&#xa3;" horiz-adv-x="1479" 
d="M227 -29l-131 205q81 54 120.5 113t39.5 125q0 37 -8.5 83t-24.5 97h-168v145h133q-16 102 -23 164.5t-7 106.5q0 202 149 300.5t453 98.5q311 0 468.5 -106.5t157.5 -315.5v-34t-2 -21h-460q-3 109 -38 163t-104 54q-70 0 -103.5 -48t-33.5 -149q0 -24 2 -69t8 -144h250
v-145h-239q0 -127 -32 -200.5t-104 -112.5q64 -3 154 -19t119 -16q78 0 115.5 46t37.5 140v17h465q0 -10 1 -27t1 -25q0 -221 -94 -328.5t-289 -107.5q-120 0 -308.5 38t-260.5 38q-75 0 -135 -16.5t-109 -49.5z" />
    <glyph glyph-name="section" unicode="&#xa7;" horiz-adv-x="1399" 
d="M705 418q63 0 100 42t37 113q0 68 -37 108t-98 40q-66 0 -105 -43.5t-39 -116.5q0 -66 38.5 -104.5t103.5 -38.5zM135 49h436q8 -78 36 -114.5t79 -36.5q49 0 77 30t28 84q0 60 -52.5 94.5t-205.5 67.5q-9 2 -24 5q-225 47 -292 97q-65 50 -99 120t-34 155
q0 125 73.5 210.5t204.5 112.5q-97 31 -148.5 99.5t-51.5 167.5q0 171 144.5 266.5t406.5 95.5q267 0 417 -109.5t152 -305.5h-455q-1 81 -29 120t-85 39q-48 0 -78.5 -31t-30.5 -79q0 -72 46.5 -109.5t201.5 -66.5l4 -1q253 -47 332 -106q65 -50 96 -118t31 -161
q0 -122 -66 -201.5t-207 -125.5q103 -28 154 -91.5t51 -162.5q0 -166 -150.5 -264.5t-408.5 -98.5q-263 0 -408 105.5t-145 296.5v16z" />
    <glyph glyph-name="bullet" unicode="&#x2022;" horiz-adv-x="1208" 
d="M307 762q0 123 87 209t210 86q122 0 208.5 -86.5t86.5 -208.5t-87.5 -209.5t-209.5 -87.5q-123 0 -209 87t-86 210z" />
    <glyph glyph-name="paragraph" unicode="&#xb6;" 
d="M1014 1337h-101v-1337h-202v1337h-140v-1337h-202v784q-163 8 -261 103t-98 243q0 157 106.5 253t282.5 96h615v-142z" />
    <glyph glyph-name="germandbls" unicode="&#xdf;" horiz-adv-x="1550" 
d="M133 0v1034q0 244 157 356.5t496 112.5q313 0 463 -86.5t150 -265.5q0 -113 -70.5 -178t-204.5 -76v-14q179 -15 244.5 -104t65.5 -380q0 -161 -37 -243t-121 -115q-60 -23 -149 -33t-250 -10h-95v258h21q51 0 71.5 25t20.5 90v291q0 66 -21 91t-73 25h-19v213h19
q58 0 92.5 32.5t34.5 86.5t-35.5 89.5t-87.5 35.5q-73 0 -105 -40.5t-32 -135.5v-1059h-535z" />
    <glyph glyph-name="registered" unicode="&#xae;" horiz-adv-x="1706" 
d="M823 1006h-39v-193h54q58 0 88 25t30 73q0 49 -32 72t-101 23zM862 1165q174 0 265.5 -61t91.5 -178q0 -78 -43 -135t-121 -84l178 -355h-279l-145 312h-25v-312h-256v813h334zM1452 743q0 120 -45 229t-129 193q-87 87 -194.5 131.5t-229.5 44.5q-123 0 -230 -43.5
t-190 -128.5q-86 -87 -132 -197t-46 -229t45.5 -227.5t130.5 -193.5q86 -86 194 -131.5t228 -45.5q119 0 228.5 46t197.5 133q85 83 128.5 189.5t43.5 229.5zM852 1493q155 0 292.5 -56t244.5 -163q104 -105 160.5 -243t56.5 -290q0 -154 -55.5 -288.5t-161.5 -237.5
q-111 -108 -250 -166.5t-287 -58.5q-149 0 -284 57t-244 166q-108 107 -165 243t-57 285q0 151 57.5 289t166.5 248q103 105 238 160t288 55z" />
    <glyph glyph-name="copyright" unicode="&#xa9;" horiz-adv-x="1706" 
d="M987 883q-3 63 -38 99t-93 36q-73 0 -114.5 -71.5t-41.5 -201.5q0 -131 41 -196.5t123 -65.5q60 0 92 36.5t35 106.5l248 1q-6 -149 -109 -237.5t-272 -88.5q-195 0 -306.5 116t-111.5 320q0 200 111 323.5t289 123.5q176 0 278.5 -79.5t110.5 -221.5h-242zM1452 743
q0 120 -45 229t-129 193q-87 87 -194.5 131.5t-229.5 44.5q-123 0 -230 -43.5t-190 -128.5q-86 -87 -132 -197t-46 -229t45.5 -227.5t130.5 -193.5q86 -86 194 -131.5t228 -45.5q119 0 228.5 46t197.5 133q85 83 128.5 189.5t43.5 229.5zM852 1493q155 0 292.5 -56
t244.5 -163q104 -105 160.5 -243t56.5 -290q0 -154 -55.5 -288.5t-161.5 -237.5q-111 -108 -250 -166.5t-287 -58.5q-149 0 -284 57t-244 166q-108 107 -165 243t-57 285q0 151 57.5 289t166.5 248q103 105 238 160t288 55z" />
    <glyph glyph-name="trademark" unicode="&#x2122;" horiz-adv-x="1706" 
d="M1044 1468l99 -266l98 266h256v-559h-182v367l-137 -367h-70l-137 367v-367h-183v559h256zM690 1468v-151h-162v-408h-202v408h-162v151h526z" />
    <glyph glyph-name="acute" unicode="&#xb4;" 
d="M530 1632h287l-325 -368h-154z" />
    <glyph glyph-name="dieresis" unicode="&#xa8;" 
d="M567 1583h252v-270h-252v270zM205 1583h250v-270h-250v270z" />
    <glyph glyph-name="notequal" unicode="&#x2260;" horiz-adv-x="1706" 
d="M1384 1116l-112 -139h180v-260h-358l-172 -211h530v-262h-704l-242 -299l-199 159l113 140h-166v262h340l170 211h-510v260h690l244 301z" />
    <glyph glyph-name="AE" unicode="&#xc6;" horiz-adv-x="2181" 
d="M-25 0l555 1460h1518v-342h-586v-227h535v-322h-535v-227h586v-342h-1122v246h-287l-66 -246h-598zM723 551h203v588h-31z" />
    <glyph glyph-name="Oslash" unicode="&#xd8;" horiz-adv-x="1526" 
d="M100 -57l-75 73l161 174q-50 70 -71 181t-21 417q0 248 35.5 365.5t120.5 192.5q89 78 218.5 117.5t295.5 39.5q175 0 306.5 -42t221.5 -128l123 131l78 -73l-139 -142q43 -59 61.5 -158.5t18.5 -361.5q0 -235 -19.5 -345.5t-64.5 -180.5q-81 -124 -226.5 -185
t-359.5 -61q-174 0 -296 37t-210 117zM631 477v-57q0 -81 33 -120.5t100 -39.5t100 39.5t33 120.5v362zM631 1040v-411l266 309v102q0 82 -32.5 121t-100.5 39q-71 0 -102 -37t-31 -123z" />
    <glyph glyph-name="infinity" unicode="&#x221e;" horiz-adv-x="1706" 
d="M975 561q40 -57 95 -86t124 -29q84 0 137 43t53 109q0 65 -48 109.5t-117 44.5q-66 0 -122.5 -44t-121.5 -147zM731 653q-41 58 -95 86.5t-124 28.5q-84 0 -136 -43t-52 -111q0 -64 47.5 -107.5t117.5 -43.5q67 0 123 44t119 146zM856 791q69 128 149 190.5t175 62.5
q143 0 244.5 -126t101.5 -312q0 -194 -90.5 -315t-233.5 -121q-88 0 -164 53t-188 201q-67 -129 -146.5 -191.5t-175.5 -62.5q-144 0 -245 126t-101 312q0 195 89.5 315.5t232.5 120.5q85 0 161 -53t191 -200z" />
    <glyph glyph-name="plusminus" unicode="&#xb1;" horiz-adv-x="1706" 
d="M1452 231v-272h-1198v272h1198zM993 1262v-310h459v-272h-459v-309h-280v309h-459v272h459v310h280z" />
    <glyph glyph-name="lessequal" unicode="&#x2264;" horiz-adv-x="1706" 
d="M1454 236v-271h-1200v271h1200zM1452 999l-704 -208l704 -209v-281l-1198 371v237l1198 373v-283z" />
    <glyph glyph-name="greaterequal" unicode="&#x2265;" horiz-adv-x="1706" 
d="M1454 236v-271h-1200v271h1200zM1452 909v-237l-1196 -371v281l705 209l-705 208v283z" />
    <glyph glyph-name="yen" unicode="&#xa5;" horiz-adv-x="1413" 
d="M438 0v442h-426v164h359l-92 187h-267v163h185l-205 414h553l153 -571h17l153 571h553l-207 -414h187v-163h-271l-94 -187h365v-164h-426v-442h-537z" />
    <glyph glyph-name="mu" unicode="&#xb5;" horiz-adv-x="1372" 
d="M602 1087l-84 -614q-2 -22 -3 -33.5t-1 -19.5q0 -68 31.5 -100.5t95.5 -32.5q79 0 124 52t60 161l84 587h418l-158 -1087h-368l18 131q-36 -68 -82.5 -101.5t-105.5 -33.5q-61 0 -105.5 31.5t-70.5 93.5l-72 -543h-412l209 1509h422z" />
    <glyph glyph-name="partialdiff" unicode="&#x2202;" horiz-adv-x="1139" 
d="M770 715q25 127 35 210t10 150q0 105 -26.5 159t-77.5 54q-32 0 -57 -21t-52 -71q-44 -80 -91.5 -119t-100.5 -39q-62 0 -103 37.5t-41 95.5q0 87 102.5 148t249.5 61q224 0 352 -162.5t128 -449.5q0 -348 -167.5 -569.5t-432.5 -221.5q-215 0 -338 115.5t-123 317.5
q0 204 126 340.5t308 136.5q96 0 172 -43.5t127 -128.5zM694 553q0 114 -34 172.5t-99 58.5q-90 0 -150.5 -140.5t-60.5 -354.5q0 -115 34 -172.5t101 -57.5q90 0 149.5 140t59.5 354z" />
    <glyph glyph-name="summation" unicode="&#x2211;" horiz-adv-x="1583" 
d="M80 1473h1368v-353h-778l559 -557l-541 -600h846v-356h-1475v200l664 738l-643 629v299z" />
    <glyph glyph-name="product" unicode="&#x220f;" horiz-adv-x="1688" 
d="M139 1473h1399v-1866h-473v1474h-453v-1474h-473v1866z" />
    <glyph glyph-name="pi" unicode="&#x3c0;" horiz-adv-x="1716" 
d="M1661 846h-180l-119 -846h-418l119 846h-227l-119 -846h-418l119 846h-29q-32 0 -57.5 -37t-32.5 -96h-258q36 216 127.5 295t312.5 79h1221z" />
    <glyph glyph-name="integral" unicode="&#x222b;" horiz-adv-x="1331" 
d="M379 -244q28 0 54 42t42 114q19 92 26 385q4 185 9 293q23 515 144 742t368 227q118 0 190 -58.5t72 -150.5q0 -69 -46 -112.5t-116 -43.5q-67 0 -101 40.5t-34 119.5q0 2 1 10.5t1 15.5q0 26 -8.5 38t-26.5 12q-103 0 -126 -661q-2 -58 -3 -88q-11 -334 -36 -484.5
t-74 -266.5q-65 -150 -166.5 -226.5t-237.5 -76.5q-118 0 -189 57t-71 152q0 72 45 114t121 42q62 0 96.5 -37.5t34.5 -104.5q0 -12 -1 -30t-1 -23q0 -20 8.5 -30.5t24.5 -10.5z" />
    <glyph glyph-name="ordfeminine" unicode="&#xaa;" horiz-adv-x="1042" 
d="M94 1211q10 135 117 206.5t301 71.5q229 0 337.5 -79.5t108.5 -246.5v-338q0 -46 15 -84t41 -61h-381q-11 22 -16 51t-5 66v18l-6 2q-40 -83 -111.5 -123.5t-177.5 -40.5q-123 0 -191.5 62t-68.5 174q0 114 66 167.5t237 71.5q9 1 26 3q220 26 220 92q0 29 -25.5 48
t-66.5 19q-43 0 -69 -20t-33 -59h-318zM604 1067q-35 -23 -99 -51q-95 -42 -95 -90q0 -33 23 -55.5t56 -22.5q43 0 72.5 27.5t32.5 69.5z" />
    <glyph glyph-name="ordmasculine" unicode="&#xba;" horiz-adv-x="1053" 
d="M600 1176q0 57 -17 80.5t-57 23.5q-38 0 -55.5 -25t-17.5 -79v-211q0 -55 17.5 -80t55.5 -25q40 0 57 24.5t17 80.5v211zM526 1485q254 0 361.5 -98.5t107.5 -331.5q0 -210 -112 -306t-357 -96q-250 0 -359.5 97.5t-109.5 318.5q0 223 109 319.5t360 96.5z" />
    <glyph glyph-name="Omega" unicode="&#x3a9;" horiz-adv-x="1706" 
d="M1671 350v-350h-661v403q67 81 101 176.5t34 202.5q0 165 -80 263t-213 98t-212 -98t-79 -263q0 -107 34 -202.5t101 -176.5v-403h-661v350h371q-144 82 -215.5 209.5t-71.5 300.5q0 291 201.5 471t531.5 180t532.5 -180.5t202.5 -470.5q0 -173 -71.5 -300.5
t-215.5 -209.5h371z" />
    <glyph glyph-name="ae" unicode="&#xe6;" horiz-adv-x="2134" 
d="M805 553q-47 -33 -133 -74q-125 -59 -125 -127q0 -47 30.5 -79.5t75.5 -32.5q55 0 95.5 38.5t44.5 92.5zM1577 692v13q0 80 -38 128t-101 48q-64 0 -103 -49t-39 -130v-10h281zM1057 1032h18q86 62 186.5 91.5t223.5 29.5q286 0 430.5 -146t144.5 -436q0 -27 -0.5 -42.5
t-1.5 -28.5h-760v-97q0 -85 34 -125t106 -40q53 0 87.5 33t51.5 100h481q-22 -191 -179.5 -300.5t-414.5 -109.5q-202 0 -339.5 59t-225.5 183q-84 -118 -206 -180t-269 -62q-165 0 -256.5 89t-91.5 249q0 157 84 234.5t288 105.5q36 5 99 12q260 32 260 123q0 44 -34 71
t-89 27q-57 0 -91 -28.5t-44 -85.5h-424q11 188 152.5 291.5t388.5 103.5q129 0 226.5 -30t164.5 -91z" />
    <glyph glyph-name="oslash" unicode="&#xf8;" horiz-adv-x="1403" 
d="M817 424v188l-229 -247v-5q0 -51 30 -78.5t84 -27.5q61 0 88 39.5t27 130.5zM588 496l229 245q0 54 -30 85.5t-82 31.5q-61 0 -89 -36.5t-28 -114.5v-211zM150 -53l-66 71l111 103q-60 74 -89.5 183t-29.5 251q0 318 146 457t478 139q156 0 269 -28.5t184 -86.5l100 97
l68 -72l-100 -96q54 -56 80 -161t26 -267q0 -301 -148.5 -437.5t-478.5 -136.5q-141 0 -254 24.5t-180 69.5z" />
    <glyph glyph-name="questiondown" unicode="&#xbf;" horiz-adv-x="1356" 
d="M909 840v-43q0 -91 -22.5 -147.5t-75.5 -100.5q-19 -17 -75.5 -44.5t-80.5 -51.5q-23 -26 -35 -54t-12 -59q0 -48 28.5 -77.5t74.5 -29.5q53 0 81.5 43t28.5 121q0 18 -0.5 27t-1.5 16h465q1 -9 1.5 -20.5t0.5 -32.5q0 -229 -134 -330.5t-441 -101.5q-325 0 -482 98.5
t-157 302.5q0 57 11.5 105t35.5 86q35 59 135 108q22 11 33 17l10 5q113 61 117 163h495zM905 1460v-473h-485v473h485z" />
    <glyph glyph-name="exclamdown" unicode="&#xa1;" horiz-adv-x="786" 
d="M156 1458h475v-477h-475v477zM606 840l64 -842h-553l63 842h426z" />
    <glyph glyph-name="logicalnot" unicode="&#xac;" horiz-adv-x="1706" 
d="M1452 868v-501h-272v235h-926v266h1198z" />
    <glyph glyph-name="radical" unicode="&#x221a;" horiz-adv-x="1395" 
d="M1399 1737v-172h-86l-588 -1606h-143l-301 827l-156 -59l-41 154l395 139l209 -600l483 1317h228z" />
    <glyph glyph-name="florin" unicode="&#x192;" horiz-adv-x="1479" 
d="M899 -109q-19 -193 -123.5 -271.5t-349.5 -78.5q-71 0 -146 9.5t-159 29.5l29 260q23 -14 47.5 -21t48.5 -7q71 0 105 38.5t46 139.5l70 620h-217l18 152h213l37 321q20 181 119 254.5t321 73.5q77 0 159.5 -10.5t168.5 -30.5l-31 -260q-22 16 -48 23.5t-58 7.5
q-63 0 -96.5 -42.5t-44.5 -137.5l-23 -199h217l-24 -152h-205z" />
    <glyph glyph-name="approxequal" unicode="&#x2248;" horiz-adv-x="1706" 
d="M1530 309q-106 -69 -195.5 -101t-177.5 -32q-87 0 -280 64.5t-316 64.5q-82 0 -172.5 -37t-210.5 -121v299q115 74 213 108t197 34q119 0 308.5 -64.5t268.5 -64.5q83 0 169 34.5t196 114.5v-299zM1530 774q-106 -70 -195 -101.5t-176 -31.5q-88 0 -281 64.5t-317 64.5
q-84 0 -173 -36t-210 -120v299q116 73 214 106.5t196 33.5q119 0 308.5 -63.5t268.5 -63.5q85 0 171.5 35t193.5 114v-301z" />
    <glyph glyph-name="Delta" unicode="&#x2206;" horiz-adv-x="1505" 
d="M958 309l-206 705l-207 -705h413zM991 1473l518 -1473h-1515l518 1473h479z" />
    <glyph glyph-name="guillemotleft" unicode="&#xab;" horiz-adv-x="1370" 
d="M891 244l-223 313l217 315h368l-233 -315l235 -313h-364zM338 244l-225 313l217 315h370l-235 -315l237 -313h-364z" />
    <glyph glyph-name="guillemotright" unicode="&#xbb;" horiz-adv-x="1370" 
d="M477 244h-364l235 313l-233 315h368l217 -315zM1030 244h-364l237 313l-235 315h370l217 -315z" />
    <glyph glyph-name="ellipsis" unicode="&#x2026;" horiz-adv-x="2048" 
d="M104 0v479h473v-479h-473zM786 0v479h473v-479h-473zM1470 0v479h473v-479h-473z" />
    <glyph glyph-name="nonbreakingspace" unicode="&#xa0;" horiz-adv-x="1479" 
 />
    <glyph glyph-name="Agrave" unicode="&#xc0;" horiz-adv-x="1485" 
d="M-23 0l392 1460h747l391 -1460h-549l-40 225h-353l-39 -225h-549zM616 510h252l-112 717h-27zM438 1982h287l192 -368h-154z" />
    <glyph glyph-name="Atilde" unicode="&#xc3;" horiz-adv-x="1485" 
d="M-23 0l392 1460h747l391 -1460h-549l-40 225h-353l-39 -225h-549zM616 510h252l-112 717h-27zM956 1939h119q-30 -132 -82.5 -193t-136.5 -61q-22 0 -40.5 2.5t-36.5 8.5l-91 26q-22 6 -39 9t-29 3q-34 0 -56 -19t-34 -58h-119q28 125 80.5 185t134.5 60q20 0 42.5 -3.5
t47.5 -10.5l95 -27q12 -4 26 -6t31 -2q33 0 55 22t33 64z" />
    <glyph glyph-name="Otilde" unicode="&#xd5;" horiz-adv-x="1526" 
d="M764 -43q-216 0 -360.5 60.5t-225.5 185.5q-46 71 -65 182t-19 395q0 255 35.5 373t120.5 193q89 78 218.5 117.5t295.5 39.5t295.5 -39.5t218.5 -117.5q85 -75 120.5 -193t35.5 -424q0 -236 -19.5 -346t-64.5 -180q-81 -124 -226.5 -185t-359.5 -61zM649 420
q0 -81 28.5 -120.5t86.5 -39.5q57 0 85 39t28 121v620q0 82 -28 121t-85 39q-58 0 -86.5 -39.5t-28.5 -120.5v-620zM977 1939h119q-30 -132 -82.5 -193t-136.5 -61q-22 0 -40.5 2.5t-36.5 8.5l-91 26q-22 6 -39 9t-29 3q-34 0 -56 -19t-34 -58h-119q28 125 80.5 185
t134.5 60q20 0 42.5 -3.5t47.5 -10.5l95 -27q12 -4 26 -6t31 -2q33 0 55 22t33 64z" />
    <glyph glyph-name="OE" unicode="&#x152;" horiz-adv-x="2134" 
d="M877 420v620q0 82 -28 121t-85 39q-58 0 -86.5 -39.5t-28.5 -120.5v-620q0 -81 28.5 -120.5t86.5 -39.5q57 0 85 39t28 121zM1075 0q-81 -21 -159 -32t-152 -11q-216 0 -360.5 60.5t-225.5 185.5q-46 70 -65 181t-19 396q0 255 35.5 373t120.5 193q88 78 217 117.5
t297 39.5q77 0 155 -10.5t158 -32.5h924v-342h-588v-227h537v-322h-537v-227h588v-342h-926z" />
    <glyph glyph-name="oe" unicode="&#x153;" horiz-adv-x="2109" 
d="M1552 371h480q-24 -193 -177.5 -301.5t-402.5 -108.5q-136 0 -234.5 36t-173.5 112q-58 -78 -152 -113t-245 -35q-294 0 -432.5 144.5t-138.5 451.5q0 306 137.5 452t425.5 146q134 0 233 -34.5t172 -106.5q89 71 189.5 105t222.5 34q294 0 436 -145.5t142 -446.5
q0 -10 -1 -30t-1 -31h-758v-97q0 -81 35 -123t102 -42q64 0 99 33t42 100zM1274 692h280v15q0 87 -34 130.5t-105 43.5q-64 0 -102.5 -47t-38.5 -125v-17zM801 707q0 79 -23.5 115t-75.5 36q-51 0 -75.5 -37t-24.5 -114v-299q0 -78 25 -116t75 -38q52 0 75.5 36.5
t23.5 117.5v299z" />
    <glyph glyph-name="endash" unicode="&#x2013;" 
d="M0 731h1024v-321h-1024v321z" />
    <glyph glyph-name="emdash" unicode="&#x2014;" horiz-adv-x="2048" 
d="M0 731h2048v-321h-2048v321z" />
    <glyph glyph-name="quotedblleft" unicode="&#x201c;" horiz-adv-x="1374" 
d="M606 1114v-479h-473v479l178 346h285l-127 -332l-2 -14h139zM1241 1114v-479h-473v479l178 346h287l-129 -332l-2 -14h139z" />
    <glyph glyph-name="quotedblright" unicode="&#x201d;" horiz-adv-x="1374" 
d="M133 981v479h473v-479l-178 -346h-285l127 332l2 14h-139zM768 981v479h473v-479l-176 -346h-287l127 332l4 14h-141z" />
    <glyph glyph-name="quoteleft" unicode="&#x2018;" horiz-adv-x="739" 
d="M606 1114v-479h-473v479l178 346h285l-127 -332l-2 -14h139z" />
    <glyph glyph-name="quoteright" unicode="&#x2019;" horiz-adv-x="739" 
d="M133 981v479h473v-479l-178 -346h-285l127 332l2 14h-139z" />
    <glyph glyph-name="divide" unicode="&#xf7;" horiz-adv-x="1706" 
d="M854 371q74 0 128 -54t54 -129q0 -74 -54 -128t-130 -54t-129 53t-53 129q0 77 53.5 130t130.5 53zM1452 748v-273h-1198v273h1198zM854 1217q74 0 128 -55t54 -130q0 -74 -54 -128t-130 -54t-129 53t-53 129q0 77 54 131t130 54z" />
    <glyph glyph-name="lozenge" unicode="&#x25ca;" horiz-adv-x="1012" 
d="M506 1409l-385 -821l385 -821l385 821zM506 1653l500 -1065l-500 -1065l-500 1065z" />
    <glyph glyph-name="ydieresis" unicode="&#xff;" horiz-adv-x="1352" 
d="M168 -446v262q15 -2 32 -3t52 -1q97 0 134.5 24t37.5 84q0 42 -22 100q-3 8 -5 13l-411 1081h557l125 -776h14l125 776h561l-450 -1198q-81 -213 -184 -287.5t-285 -74.5h-281zM731 1583h252v-270h-252v270zM369 1583h250v-270h-250v270z" />
    <glyph glyph-name="Ydieresis" unicode="&#x178;" horiz-adv-x="1413" 
d="M438 0v502l-446 958h553l153 -577h17l153 577h553l-446 -958v-502h-537zM762 1933h252v-270h-252v270zM400 1933h250v-270h-250v270z" />
    <glyph glyph-name="fraction" unicode="&#x2215;" horiz-adv-x="342" 
d="M-342 -39l834 1446h190l-832 -1446h-192z" />
    <glyph glyph-name="currency" unicode="&#xa4;" horiz-adv-x="1479" 
d="M1421 983h-510q0 61 -25 94t-73 33q-56 0 -80 -34.5t-24 -117.5v-73h526l-51 -133h-475v-125h419l-51 -133h-368v-82q0 -79 25 -115.5t79 -36.5q50 0 75 34.5t25 100.5h506q-28 -215 -180.5 -324.5t-425.5 -109.5q-191 0 -332.5 55.5t-212.5 157.5q-37 55 -58.5 131.5
t-29.5 188.5h-180l31 133h143v125h-174l31 133h149q8 103 29.5 178.5t58.5 130.5q71 102 212 157.5t331 55.5q272 0 429 -110.5t181 -313.5z" />
    <glyph glyph-name="guilsinglleft" unicode="&#x2039;" horiz-adv-x="815" 
d="M338 244l-223 313l217 315h368l-233 -315l235 -313h-364z" />
    <glyph glyph-name="guilsinglright" unicode="&#x203a;" horiz-adv-x="815" 
d="M479 244h-364l235 313l-235 315h370l217 -315z" />
    <glyph glyph-name="fi" unicode="&#xf001;" horiz-adv-x="1731" 
d="M1075 0v1114h531v-1114h-531zM1075 1214v246h531v-246h-531zM948 1227q-6 0 -18 1q-54 3 -76 3q-64 0 -87.5 -20.5t-23.5 -73.5v-23h201v-250h-213v-864h-530v864h-129v250h129q0 7 -1 22.5t-1 22.5q0 167 77.5 234t274.5 67h397v-233z" />
    <glyph glyph-name="fl" unicode="&#xf002;" horiz-adv-x="1731" 
d="M1075 0v1460h531v-1460h-531zM948 1227q-6 0 -18 1q-54 3 -76 3q-64 0 -87.5 -20.5t-23.5 -73.5v-23h201v-250h-213v-864h-530v864h-129v250h129q0 7 -1 22.5t-1 22.5q0 167 77.5 234t274.5 67h397v-233z" />
    <glyph glyph-name="daggerdbl" unicode="&#x2021;" horiz-adv-x="1432" 
d="M461 -309v311h-324v363h324v421h-324v363h324v311h512v-311h321v-363h-321v-421h321v-363h-321v-311h-512z" />
    <glyph glyph-name="periodcentered" unicode="&#xb7;" horiz-adv-x="739" 
d="M92 698q0 115 82 197t197 82t195.5 -81.5t80.5 -197.5q0 -114 -81 -195t-195 -81q-113 0 -196 82t-83 194z" />
    <glyph glyph-name="quotesinglbase" unicode="&#x201a;" horiz-adv-x="739" 
d="M133 0v479h473v-479l-178 -346h-285l127 332l2 14h-139z" />
    <glyph glyph-name="quotedblbase" unicode="&#x201e;" horiz-adv-x="1374" 
d="M768 -2v479h473v-479l-176 -346h-287l127 332l4 14h-141zM133 -2v479h473v-479l-178 -346h-285l127 332l2 14h-139z" />
    <glyph glyph-name="perthousand" unicode="&#x2030;" horiz-adv-x="2740" 
d="M506 883v288q0 43 -14 60.5t-48 17.5q-33 0 -47 -17.5t-14 -60.5v-288q0 -40 17 -60t51 -20q29 0 42 18t13 62zM444 645q-189 0 -266.5 82t-77.5 299t77 299t267 82q192 0 269.5 -81.5t77.5 -299.5q0 -217 -77.5 -299t-269.5 -82zM2355 201v286q0 44 -14 62t-47 18
t-47.5 -18t-14.5 -62v-286q0 -44 14 -62t48 -18q33 0 47 18t14 62zM2294 -39q-190 0 -267 82t-77 299q0 218 77 300.5t267 82.5q191 0 268.5 -82.5t77.5 -300.5q0 -217 -77.5 -299t-268.5 -82zM1473 -39q-190 0 -267.5 82t-77.5 299q0 218 77.5 300.5t267.5 82.5t267 -82
t77 -301q0 -218 -77 -299.5t-267 -81.5zM1534 201v286q0 45 -14 62.5t-47 17.5t-47.5 -18t-14.5 -62v-286q0 -44 14 -62t48 -18q32 0 46.5 18t14.5 62zM354 -39l998 1446h211l-998 -1446h-211z" />
    <glyph glyph-name="Acircumflex" unicode="&#xc2;" horiz-adv-x="1485" 
d="M-23 0l392 1460h747l391 -1460h-549l-40 225h-353l-39 -225h-549zM616 510h252l-112 717h-27zM409 1614l197 368h274l195 -368h-166l-166 198l-168 -198h-166z" />
    <glyph glyph-name="Ecircumflex" unicode="&#xca;" horiz-adv-x="1389" 
d="M133 0v1460h1122v-342h-587v-227h536v-322h-536v-227h587v-342h-1122zM352 1614l197 368h274l195 -368h-166l-166 198l-168 -198h-166z" />
    <glyph glyph-name="Aacute" unicode="&#xc1;" horiz-adv-x="1485" 
d="M-23 0l392 1460h747l391 -1460h-549l-40 225h-353l-39 -225h-549zM616 510h252l-112 717h-27zM761 1982h287l-325 -368h-154z" />
    <glyph glyph-name="Edieresis" unicode="&#xcb;" horiz-adv-x="1389" 
d="M133 0v1460h1122v-342h-587v-227h536v-322h-536v-227h587v-342h-1122zM741 1933h252v-270h-252v270zM379 1933h250v-270h-250v270z" />
    <glyph glyph-name="Egrave" unicode="&#xc8;" horiz-adv-x="1389" 
d="M133 0v1460h1122v-342h-587v-227h536v-322h-536v-227h587v-342h-1122zM381 1982h287l192 -368h-154z" />
    <glyph glyph-name="Iacute" unicode="&#xcd;" horiz-adv-x="811" 
d="M133 0v1460h545v-1460h-545zM424 1982h287l-325 -368h-154z" />
    <glyph glyph-name="Icircumflex" unicode="&#xce;" horiz-adv-x="811" 
d="M133 0v1460h545v-1460h-545zM72 1614l197 368h274l195 -368h-166l-166 198l-168 -198h-166z" />
    <glyph glyph-name="Idieresis" unicode="&#xcf;" horiz-adv-x="811" 
d="M133 0v1460h545v-1460h-545zM461 1933h252v-270h-252v270zM99 1933h250v-270h-250v270z" />
    <glyph glyph-name="Igrave" unicode="&#xcc;" horiz-adv-x="811" 
d="M133 0v1460h545v-1460h-545zM101 1982h287l192 -368h-154z" />
    <glyph glyph-name="Oacute" unicode="&#xd3;" horiz-adv-x="1526" 
d="M764 -43q-216 0 -360.5 60.5t-225.5 185.5q-46 71 -65 182t-19 395q0 255 35.5 373t120.5 193q89 78 218.5 117.5t295.5 39.5t295.5 -39.5t218.5 -117.5q85 -75 120.5 -193t35.5 -424q0 -236 -19.5 -346t-64.5 -180q-81 -124 -226.5 -185t-359.5 -61zM649 420
q0 -81 28.5 -120.5t86.5 -39.5q57 0 85 39t28 121v620q0 82 -28 121t-85 39q-58 0 -86.5 -39.5t-28.5 -120.5v-620zM782 1982h287l-325 -368h-154z" />
    <glyph glyph-name="Ocircumflex" unicode="&#xd4;" horiz-adv-x="1526" 
d="M764 -43q-216 0 -360.5 60.5t-225.5 185.5q-46 71 -65 182t-19 395q0 255 35.5 373t120.5 193q89 78 218.5 117.5t295.5 39.5t295.5 -39.5t218.5 -117.5q85 -75 120.5 -193t35.5 -424q0 -236 -19.5 -346t-64.5 -180q-81 -124 -226.5 -185t-359.5 -61zM649 420
q0 -81 28.5 -120.5t86.5 -39.5q57 0 85 39t28 121v620q0 82 -28 121t-85 39q-58 0 -86.5 -39.5t-28.5 -120.5v-620zM430 1614l197 368h274l195 -368h-166l-166 198l-168 -198h-166z" />
    <glyph glyph-name="apple" unicode="&#xf000;" horiz-adv-x="1618" 
d="M836 1216q-1 6 -1.5 14t-0.5 23q0 124 95 229.5t236 131.5q1 -10 1.5 -23t0.5 -39q0 -131 -103.5 -234.5t-203.5 -103.5h-8q-3 0 -7.5 1t-8.5 1zM1505 403q-114 -247 -205 -342.5t-204 -95.5q-50 0 -131.5 33t-122.5 33q-45 0 -131 -33t-127 -33q-64 0 -128.5 44
t-129.5 132q-102 140 -157.5 295.5t-55.5 300.5q0 219 125 356.5t323 137.5q68 0 155 -34t124 -34q34 0 121.5 34t152.5 34q111 0 199 -39.5t160 -122.5q-102 -65 -151.5 -145.5t-49.5 -182.5q0 -113 60 -200t173 -138z" />
    <glyph glyph-name="Ograve" unicode="&#xd2;" horiz-adv-x="1526" 
d="M764 -43q-216 0 -360.5 60.5t-225.5 185.5q-46 71 -65 182t-19 395q0 255 35.5 373t120.5 193q89 78 218.5 117.5t295.5 39.5t295.5 -39.5t218.5 -117.5q85 -75 120.5 -193t35.5 -424q0 -236 -19.5 -346t-64.5 -180q-81 -124 -226.5 -185t-359.5 -61zM649 420
q0 -81 28.5 -120.5t86.5 -39.5q57 0 85 39t28 121v620q0 82 -28 121t-85 39q-58 0 -86.5 -39.5t-28.5 -120.5v-620zM459 1982h287l192 -368h-154z" />
    <glyph glyph-name="Uacute" unicode="&#xda;" horiz-adv-x="1565" 
d="M895 1460h537v-1001q0 -252 -162 -377t-488 -125q-325 0 -487 125t-162 377v1001h535v-993q0 -120 25.5 -160.5t88.5 -40.5q62 0 87.5 38t25.5 132v1024zM800 1982h287l-325 -368h-154z" />
    <glyph glyph-name="Ucircumflex" unicode="&#xdb;" horiz-adv-x="1565" 
d="M895 1460h537v-1001q0 -252 -162 -377t-488 -125q-325 0 -487 125t-162 377v1001h535v-993q0 -120 25.5 -160.5t88.5 -40.5q62 0 87.5 38t25.5 132v1024zM448 1614l197 368h274l195 -368h-166l-166 198l-168 -198h-166z" />
    <glyph glyph-name="Ugrave" unicode="&#xd9;" horiz-adv-x="1565" 
d="M895 1460h537v-1001q0 -252 -162 -377t-488 -125q-325 0 -487 125t-162 377v1001h535v-993q0 -120 25.5 -160.5t88.5 -40.5q62 0 87.5 38t25.5 132v1024zM477 1982h287l192 -368h-154z" />
    <glyph glyph-name="dotlessi" unicode="&#x131;" horiz-adv-x="786" 
d="M127 0v1114h532v-1114h-532z" />
    <glyph glyph-name="circumflex" unicode="&#x2c6;" 
d="M178 1264l197 368h274l195 -368h-166l-166 198l-168 -198h-166z" />
    <glyph glyph-name="tilde" unicode="&#x2dc;" 
d="M725 1589h119q-30 -132 -82.5 -193t-136.5 -61q-22 0 -40.5 2.5t-36.5 8.5l-91 26q-22 6 -39 9t-29 3q-34 0 -56 -19t-34 -58h-119q28 125 80.5 185t134.5 60q20 0 42.5 -3.5t47.5 -10.5l95 -27q12 -4 26 -6t31 -2q33 0 55 22t33 64z" />
    <glyph glyph-name="macron" unicode="&#xaf;" 
d="M205 1532h614v-168h-614v168z" />
    <glyph glyph-name="breve" unicode="&#x2d8;" 
d="M197 1599h131q6 -70 50.5 -103.5t133.5 -33.5t134 34t48 103h131q-12 -159 -87.5 -233t-225.5 -74t-227.5 75.5t-87.5 231.5z" />
    <glyph glyph-name="dotaccent" unicode="&#x2d9;" 
d="M383 1587h260v-278h-260v278z" />
    <glyph glyph-name="ring" unicode="&#x2da;" 
d="M512 1630q-48 0 -81.5 -33.5t-33.5 -80.5q0 -49 33 -82t82 -33q48 0 81.5 33.5t33.5 81.5q0 47 -33.5 80.5t-81.5 33.5zM512 1786q114 0 193 -79t79 -191q0 -115 -78.5 -194t-193.5 -79q-114 0 -192 78.5t-78 194.5q0 113 78 191.5t192 78.5z" />
    <glyph glyph-name="cedilla" unicode="&#xb8;" 
d="M455 0h114v-84h19q111 0 170 -49.5t59 -142.5q0 -100 -66 -154.5t-188 -54.5q-58 0 -130 11.5t-161 35.5v137q81 -22 151 -33.5t120 -11.5q43 0 64.5 17.5t21.5 54.5q0 32 -28.5 47.5t-90.5 15.5q-21 0 -33 -0.5t-22 -1.5v213z" />
    <glyph glyph-name="hungarumlaut" unicode="&#x2dd;" 
d="M725 1632h254l-291 -368h-119zM397 1632h246l-252 -368h-110z" />
    <glyph glyph-name="ogonek" unicode="&#x2db;" 
d="M522 0h109q-57 -50 -85 -99t-28 -98q0 -40 19 -59.5t57 -19.5h104v-199h-77q-163 0 -229 46.5t-66 154.5q0 72 48 139.5t148 134.5z" />
    <glyph glyph-name="caron" unicode="&#x2c7;" 
d="M190 1632h154l168 -198l166 198h153l-192 -368h-256z" />
    <glyph glyph-name="Lslash" unicode="&#x141;" horiz-adv-x="1200" 
d="M133 0v504l-137 -88v286l137 91v667h545v-399l248 162v-289l-248 -160v-432h473v-342h-1018z" />
    <glyph glyph-name="lslash" unicode="&#x142;" horiz-adv-x="786" 
d="M127 0v512l-127 -84v225l127 84v723h532v-440l127 82v-225l-127 -82v-795h-532z" />
    <glyph glyph-name="Scaron" unicode="&#x160;" horiz-adv-x="1489" 
d="M87 420h534v-8q0 -89 31 -131.5t96 -42.5q54 0 83 33t29 96q0 64 -33.5 104t-106.5 62q-31 9 -94 26q-211 58 -317 111q-103 52 -159 143t-56 207q0 225 165 354t456 129q322 0 481.5 -110t159.5 -332v-4h-500q-2 76 -29.5 111.5t-85.5 35.5q-51 0 -79.5 -26.5
t-28.5 -73.5q0 -53 35 -89.5t116 -66.5q31 -11 173 -51.5t227 -85.5q109 -57 165 -147.5t56 -208.5q0 -237 -175.5 -368.5t-492.5 -131.5q-323 0 -488 105t-165 313q0 20 0.5 29.5t2.5 17.5zM423 1982h154l168 -198l166 198h153l-192 -368h-256z" />
    <glyph glyph-name="scaron" unicode="&#x161;" horiz-adv-x="1323" 
d="M66 324l471 -1q9 -55 36.5 -81.5t77.5 -26.5q41 0 67.5 25t26.5 61q0 69 -153 102q-9 2 -12 3l-28 6q-212 47 -282 80q-83 38 -130.5 114t-47.5 172q0 184 147 279.5t431 95.5q272 0 413.5 -87.5t141.5 -256.5v-21l-447 1q-1 55 -23.5 83.5t-66.5 28.5q-48 0 -77 -22.5
t-29 -59.5q0 -83 220 -119q31 -5 48 -8q230 -39 318.5 -114t88.5 -220q0 -193 -150.5 -295t-438.5 -102q-293 0 -447 93t-155 270zM340 1632h154l168 -198l166 198h153l-192 -368h-256z" />
    <glyph glyph-name="Zcaron" unicode="&#x17d;" horiz-adv-x="1370" 
d="M66 0v299l608 819h-574v342h1190v-301l-602 -817h617v-342h-1239zM364 1982h154l168 -198l166 198h153l-192 -368h-256z" />
    <glyph glyph-name="zcaron" unicode="&#x17e;" horiz-adv-x="1214" 
d="M66 0v221l432 637h-387v256h1011v-217l-448 -637h475v-260h-1083zM286 1632h154l168 -198l166 198h153l-192 -368h-256z" />
    <glyph glyph-name="brokenbar" unicode="&#xa6;" 
d="M653 408v-758h-280v758h280zM653 1432v-758h-280v758h280z" />
    <glyph glyph-name="Eth" unicode="&#xd0;" horiz-adv-x="1550" 
d="M670 649v-344q8 -1 16.5 -1.5t26.5 -0.5q101 0 140.5 48.5t39.5 178.5v400q0 131 -39.5 179t-140.5 48q-18 0 -27 -0.5t-16 -1.5v-268h110v-238h-110zM133 649h-133v238h133v573h737q296 0 436 -122.5t140 -381.5v-452q0 -259 -140 -381.5t-436 -122.5h-737v649z" />
    <glyph glyph-name="eth" unicode="&#xf0;" horiz-adv-x="1403" 
d="M801 633q0 72 -23 103.5t-76 31.5t-76.5 -32t-23.5 -103v-271q0 -71 23.5 -103t76.5 -32t76 32t23 103v271zM778 977q-25 39 -68.5 81t-107.5 91l-287 -143l-67 133l203 102l-5 2q-91 48 -124 60l112 206q52 -15 125.5 -44.5t202.5 -88.5l280 142l68 -129l-207 -107
q226 -159 324 -343.5t98 -451.5q0 -283 -143.5 -403.5t-481.5 -120.5q-333 0 -478.5 121t-145.5 397q0 264 137.5 391t423.5 127q31 0 66 -5.5t75 -16.5z" />
    <glyph glyph-name="Yacute" unicode="&#xdd;" horiz-adv-x="1413" 
d="M438 0v502l-446 958h553l153 -577h17l153 577h553l-446 -958v-502h-537zM725 1982h287l-325 -368h-154z" />
    <glyph glyph-name="yacute" unicode="&#xfd;" horiz-adv-x="1352" 
d="M168 -446v262q15 -2 32 -3t52 -1q97 0 134.5 24t37.5 84q0 42 -22 100q-3 8 -5 13l-411 1081h557l125 -776h14l125 776h561l-450 -1198q-81 -213 -184 -287.5t-285 -74.5h-281zM694 1632h287l-325 -368h-154z" />
    <glyph glyph-name="Thorn" unicode="&#xde;" horiz-adv-x="1565" 
d="M664 948v-403h32q119 0 171.5 47t52.5 153q0 107 -53 155t-171 48h-32zM133 0v1460h531v-211h262q287 0 411.5 -116.5t124.5 -382.5q0 -261 -121.5 -380.5t-388.5 -119.5h-288v-250h-531z" />
    <glyph glyph-name="thorn" unicode="&#xfe;" horiz-adv-x="1432" 
d="M621 465q0 -68 26 -104.5t74 -36.5q47 0 72.5 36t25.5 101v213q0 49 -27.5 81.5t-70.5 32.5q-44 0 -72 -34.5t-28 -89.5v-199zM109 -418v1878h497l-4 -532h10q59 113 147 169t210 56q206 0 292.5 -135t86.5 -475q0 -301 -92 -439.5t-291 -138.5q-106 0 -188.5 47
t-149.5 146h-6l2 -576h-514z" />
    <glyph glyph-name="minus" unicode="&#x2212;" horiz-adv-x="1706" 
d="M1452 750v-277h-1198v277h1198z" />
    <glyph glyph-name="multiply" unicode="&#xd7;" horiz-adv-x="1706" 
d="M874 805l426 426l195 -195l-426 -426l426 -426l-195 -194l-426 426l-425 -426l-195 194l426 426l-426 426l195 195z" />
    <glyph glyph-name="onesuperior" unicode="&#xb9;" horiz-adv-x="977" 
d="M322 547v647h-189v104l189 70h350v-821h-350z" />
    <glyph glyph-name="twosuperior" unicode="&#xb2;" horiz-adv-x="977" 
d="M70 547q0 85 4.5 139t15.5 90q16 60 55 104.5t115 86.5q34 18 123.5 48.5t134.5 55.5q22 12 33.5 29.5t11.5 40.5q0 36 -22 58t-58 22q-42 0 -65 -26t-23 -73v-18h-327v10q0 135 102.5 207t296.5 72q208 0 324 -75t116 -208q0 -100 -66 -155.5t-266 -102.5
q-117 -27 -157.5 -54.5t-42.5 -74.5h502v-176h-807z" />
    <glyph glyph-name="threesuperior" unicode="&#xb3;" horiz-adv-x="977" 
d="M51 782h336q2 -45 25.5 -67.5t68.5 -22.5q44 0 69 24t25 64q0 52 -34 74.5t-117 22.5h-105v170h107q75 0 108 19.5t33 61.5q0 40 -25 63t-67 23q-39 0 -62.5 -19t-25.5 -52h-321q18 125 122 186.5t297 61.5q205 0 312.5 -60t107.5 -174q0 -81 -56.5 -130t-162.5 -59v-7
q109 -2 173.5 -55t64.5 -142q0 -127 -103.5 -183.5t-337.5 -56.5q-227 0 -329.5 57t-102.5 183v18z" />
    <glyph glyph-name="onequarter" unicode="&#xbc;" horiz-adv-x="2206" 
d="M1737 0v145h-398v127l254 496h445v-473h127v-150h-127v-145h-301zM1561 295h176l12 344h-12zM590 -39l833 1446h191l-832 -1446h-192zM307 602v604h-178v99l178 65h334v-768h-334z" />
    <glyph glyph-name="onehalf" unicode="&#xbd;" horiz-adv-x="2206" 
d="M1339 0q0 70 5.5 123.5t15.5 91.5q14 55 52 96.5t110 79.5q32 18 118 46.5t129 51.5q21 11 32 27.5t11 36.5q0 35 -20.5 55.5t-54.5 20.5q-42 0 -64 -23.5t-22 -66.5q0 -4 1 -11t1 -8h-314v8q0 127 97.5 193.5t281.5 66.5q200 0 311 -69t111 -193q0 -92 -62.5 -143.5
t-254.5 -97.5q-112 -26 -150.5 -51.5t-39.5 -67.5h478v-166h-772zM590 -39l833 1446h191l-832 -1446h-192zM307 602v604h-178v99l178 65h334v-768h-334z" />
    <glyph glyph-name="threequarters" unicode="&#xbe;" horiz-adv-x="2206" 
d="M1737 0v145h-398v127l254 496h445v-473h127v-150h-127v-145h-301zM1561 295h176l12 344h-12zM590 -39l833 1446h191l-832 -1446h-192zM49 823h319q2 -41 24.5 -62.5t66.5 -21.5q42 0 66 21.5t24 58.5q0 50 -33 71t-113 21h-98v156h101q71 0 103 18.5t32 59.5q0 36 -24 58
t-64 22q-38 0 -60 -18t-22 -48h-310q19 116 118.5 174t283.5 58q195 0 298 -56.5t103 -163.5q0 -75 -54.5 -120.5t-154.5 -53.5l1 -8q103 -1 165 -51t62 -133q0 -118 -100 -171.5t-320 -53.5q-217 0 -315.5 54t-98.5 171v18z" />
    <glyph glyph-name="franc" unicode="&#x20a3;" horiz-adv-x="2456" 
d="M133 0v1460h1118v-342h-583v-227h536v-322h-536v-569h-535zM1473 0v1114h532l-8 -221q63 134 167.5 196t268.5 62v-543q-60 19 -101.5 27t-76.5 8q-128 0 -189 -74.5t-61 -230.5v-338h-532z" />
    <glyph glyph-name="Gbreve" unicode="&#x11e;" horiz-adv-x="1536" 
d="M1147 0l-53 227h-11q-44 -136 -151 -202t-283 -66q-134 0 -236.5 33t-170.5 98q-80 78 -114 202t-34 372q0 163 9.5 293.5t21.5 168.5q58 203 200.5 289t424.5 86q346 0 512 -117t178 -368h-533v28q0 86 -30 125t-97 39q-73 0 -102 -32t-29 -144v-573q0 -124 29.5 -161.5
t101.5 -37.5q75 0 109.5 43t34.5 137q0 21 -0.5 32t-1.5 21l-121 1v278h639v-772h-293zM453 1949h131q6 -70 50.5 -103.5t133.5 -33.5t134 34t48 103h131q-12 -159 -87.5 -233t-225.5 -74t-227.5 75.5t-87.5 231.5z" />
    <glyph glyph-name="gbreve" unicode="&#x11f;" horiz-adv-x="1432" 
d="M1323 1114v-1118q0 -223 -166 -344t-473 -121q-292 0 -426 95t-135 302h489q10 -61 34 -87.5t71 -26.5q44 0 66.5 34t25.5 107l10 235h-14q-66 -96 -149 -143t-189 -47q-199 0 -290 137t-91 438q0 314 87.5 446t289.5 132q121 0 209.5 -56t146.5 -169v186h504zM811 664
q0 56 -27.5 90t-70.5 34q-44 0 -72.5 -32t-28.5 -82v-174q0 -66 26 -103t73 -37q48 0 74 37t26 105v162zM402 1599h131q6 -70 50.5 -103.5t133.5 -33.5t134 34t48 103h131q-12 -159 -87.5 -233t-225.5 -74t-227.5 75.5t-87.5 231.5z" />
    <glyph glyph-name="Idotaccent" unicode="&#x130;" horiz-adv-x="811" 
d="M133 0v1460h545v-1460h-545zM277 1937h260v-278h-260v278z" />
    <glyph glyph-name="Scedilla" unicode="&#x15e;" horiz-adv-x="1489" 
d="M87 420h534v-8q0 -89 31 -131.5t96 -42.5q54 0 83 33t29 96q0 64 -33.5 104t-106.5 62q-31 9 -94 26q-211 58 -317 111q-103 52 -159 143t-56 207q0 225 165 354t456 129q322 0 481.5 -110t159.5 -332v-4h-500q-2 76 -29.5 111.5t-85.5 35.5q-51 0 -79.5 -26.5
t-28.5 -73.5q0 -53 35 -89.5t116 -66.5q31 -11 173 -51.5t227 -85.5q109 -57 165 -147.5t56 -208.5q0 -237 -175.5 -368.5t-492.5 -131.5q-323 0 -488 105t-165 313q0 20 0.5 29.5t2.5 17.5zM686 0h114v-84h19q111 0 170 -49.5t59 -142.5q0 -100 -66 -154.5t-188 -54.5
q-58 0 -130 11.5t-161 35.5v137q81 -22 151 -33.5t120 -11.5q43 0 64.5 17.5t21.5 54.5q0 32 -28.5 47.5t-90.5 15.5q-21 0 -33 -0.5t-22 -1.5v213z" />
    <glyph glyph-name="scedilla" unicode="&#x15f;" horiz-adv-x="1323" 
d="M66 324l471 -1q9 -55 36.5 -81.5t77.5 -26.5q41 0 67.5 25t26.5 61q0 69 -153 102q-9 2 -12 3l-28 6q-212 47 -282 80q-83 38 -130.5 114t-47.5 172q0 184 147 279.5t431 95.5q272 0 413.5 -87.5t141.5 -256.5v-21l-447 1q-1 55 -23.5 83.5t-66.5 28.5q-48 0 -77 -22.5
t-29 -59.5q0 -83 220 -119q31 -5 48 -8q230 -39 318.5 -114t88.5 -220q0 -193 -150.5 -295t-438.5 -102q-293 0 -447 93t-155 270zM605 0h114v-84h19q111 0 170 -49.5t59 -142.5q0 -100 -66 -154.5t-188 -54.5q-58 0 -130 11.5t-161 35.5v137q81 -22 151 -33.5t120 -11.5
q43 0 64.5 17.5t21.5 54.5q0 32 -28.5 47.5t-90.5 15.5q-21 0 -33 -0.5t-22 -1.5v213z" />
    <glyph glyph-name="Cacute" unicode="&#x106;" horiz-adv-x="1536" 
d="M1438 537q-8 -295 -173 -437.5t-497 -142.5q-215 0 -359 60.5t-227 185.5q-46 70 -65 180t-19 393q0 256 35.5 375.5t120.5 194.5q89 78 218.5 117.5t295.5 39.5q329 0 497 -142t172 -423h-550v51q0 117 -26.5 164t-90.5 47q-59 0 -87 -39t-28 -121v-620q0 -82 28 -121
t87 -39q65 0 92 48.5t27 168.5q0 9 -1 29t-1 31h551zM780 1982h287l-325 -368h-154z" />
    <glyph glyph-name="cacute" unicode="&#x107;" horiz-adv-x="1360" 
d="M1286 449v-17q0 -226 -156.5 -348.5t-447.5 -122.5q-315 0 -460.5 137.5t-145.5 436.5q0 335 139.5 477.5t466.5 142.5q294 0 449 -117.5t155 -339.5v-20h-481v29q0 75 -25 111t-78 36q-51 0 -75.5 -32t-24.5 -99v-338q0 -67 24.5 -98t75.5 -31q55 0 80 36t25 116
q0 5 -1 19t-1 22h481zM710 1632h287l-325 -368h-154z" />
    <glyph glyph-name="Ccaron" unicode="&#x10c;" horiz-adv-x="1536" 
d="M1438 537q-8 -295 -173 -437.5t-497 -142.5q-215 0 -359 60.5t-227 185.5q-46 70 -65 180t-19 393q0 256 35.5 375.5t120.5 194.5q89 78 218.5 117.5t295.5 39.5q329 0 497 -142t172 -423h-550v51q0 117 -26.5 164t-90.5 47q-59 0 -87 -39t-28 -121v-620q0 -82 28 -121
t87 -39q65 0 92 48.5t27 168.5q0 9 -1 29t-1 31h551zM440 1982h154l168 -198l166 198h153l-192 -368h-256z" />
    <glyph glyph-name="ccaron" unicode="&#x10d;" horiz-adv-x="1360" 
d="M1286 449v-17q0 -226 -156.5 -348.5t-447.5 -122.5q-315 0 -460.5 137.5t-145.5 436.5q0 335 139.5 477.5t466.5 142.5q294 0 449 -117.5t155 -339.5v-20h-481v29q0 75 -25 111t-78 36q-51 0 -75.5 -32t-24.5 -99v-338q0 -67 24.5 -98t75.5 -31q55 0 80 36t25 116
q0 5 -1 19t-1 22h481zM370 1632h154l168 -198l166 198h153l-192 -368h-256z" />
    <glyph glyph-name="dcroat" unicode="&#x111;" horiz-adv-x="1432" 
d="M1323 1460v-86h109v-188h-109v-1186h-498l4 186h-10q-58 -113 -146.5 -169t-209.5 -56q-202 0 -289.5 133.5t-87.5 456.5q0 320 89.5 459t291.5 139q106 0 188.5 -47t149.5 -146h8l-4 230h-119v188h119v86h514zM811 649q0 66 -25 104t-69 38q-51 0 -78 -35.5t-27 -102.5
v-213q0 -49 28.5 -81.5t70.5 -32.5q44 0 72 34t28 91v198z" />
    <glyph glyph-name="sfthyphen" unicode="&#xad;" horiz-adv-x="872" 
d="M76 381v381h721v-381h-721z" />
    <glyph glyph-name="periodcentered" unicode="&#x2219;" horiz-adv-x="739" 
d="M92 698q0 115 82 197t197 82t195.5 -81.5t80.5 -197.5q0 -114 -81 -195t-195 -81q-113 0 -196 82t-83 194z" />
    <glyph glyph-name="Euro" horiz-adv-x="1479" 
d="M1421 983h-510q0 61 -25 94t-73 33q-56 0 -80 -34.5t-24 -117.5v-73h526l-51 -133h-475v-125h419l-51 -133h-368v-82q0 -79 25 -115.5t79 -36.5q50 0 75 34.5t25 100.5h506q-28 -215 -180.5 -324.5t-425.5 -109.5q-191 0 -332.5 55.5t-212.5 157.5q-37 55 -58.5 131.5
t-29.5 188.5h-180l31 133h143v125h-174l31 133h149q8 103 29.5 178.5t58.5 130.5q71 102 212 157.5t331 55.5q272 0 429 -110.5t181 -313.5z" />
    <glyph glyph-name="Euro" unicode="&#x20ac;" horiz-adv-x="1479" 
d="M1421 983h-510q0 61 -25 94t-73 33q-56 0 -80 -34.5t-24 -117.5v-73h526l-51 -133h-475v-125h419l-51 -133h-368v-82q0 -79 25 -115.5t79 -36.5q50 0 75 34.5t25 100.5h506q-28 -215 -180.5 -324.5t-425.5 -109.5q-191 0 -332.5 55.5t-212.5 157.5q-37 55 -58.5 131.5
t-29.5 188.5h-180l31 133h143v125h-174l31 133h149q8 103 29.5 178.5t58.5 130.5q71 102 212 157.5t331 55.5q272 0 429 -110.5t181 -313.5z" />
    </font>
</defs>
</svg>
