<?xml version="1.0" standalone="no"?>
<!DOCTYPE svg PUBLIC "-//W3C//DTD SVG 1.1//EN" "http://www.w3.org/Graphics/SVG/1.1/DTD/svg11.dtd" >
<svg xmlns="http://www.w3.org/2000/svg" xmlns:xlink="http://www.w3.org/1999/xlink" version="1.1">
<metadata>
Created by FontForge 20200427 at Mon Jan  4 04:34:46 1999
 By www
Copyright 1990-1999 Bitstream Inc.  All rights reserved.
</metadata>
<defs>
<font id="FolioBT-Book" horiz-adv-x="1024" >
  <font-face 
    font-family="Folio Bk BT"
    font-weight="400"
    font-stretch="normal"
    units-per-em="2048"
    panose-1="2 11 5 3 3 5 2 2 2 4"
    ascent="1556"
    descent="-492"
    x-height="952"
    cap-height="1460"
    bbox="-342 -483 2118 1972"
    underline-thickness="106"
    underline-position="-262"
    unicode-range="U+0020-F002"
  />
<missing-glyph horiz-adv-x="1229" 
d="M102 -362v1806h1024v-1806h-1024zM217 -248h795v1577h-795v-1577z" />
    <glyph glyph-name=".notdef" horiz-adv-x="1229" 
d="M102 -362v1806h1024v-1806h-1024zM217 -248h795v1577h-795v-1577z" />
    <glyph glyph-name=".null" horiz-adv-x="0" 
 />
    <glyph glyph-name="nonmarkingreturn" horiz-adv-x="573" 
 />
    <glyph glyph-name="space" unicode=" " horiz-adv-x="573" 
 />
    <glyph glyph-name="exclam" unicode="!" horiz-adv-x="588" 
d="M201 199h186v-199h-186v199zM229 377l-36 1083h204l-39 -1083h-129z" />
    <glyph glyph-name="quotedbl" unicode="&#x22;" horiz-adv-x="590" 
d="M496 1434v-553h-119v553h119zM211 1434v-553h-117v553h117z" />
    <glyph glyph-name="numbersign" unicode="#" horiz-adv-x="1575" 
d="M973 862h-264l-95 -272h263zM922 1456l-166 -471h260l168 471h143l-164 -471h307l-43 -123h-311l-94 -272h330l-43 -123h-332l-166 -469h-145l168 469h-265l-168 -469h-143l166 469h-320l43 123h320l96 272h-342l43 123h344l168 471h146z" />
    <glyph glyph-name="dollar" unicode="$" horiz-adv-x="1147" 
d="M520 1571h109v-201q184 -17 289.5 -115.5t123.5 -271.5h-163q-10 115 -89 181.5t-208 66.5q-128 0 -210.5 -62t-82.5 -155q0 -90 56 -139t219 -87q21 -5 62 -14q201 -45 285 -96q74 -45 111 -114t37 -163q0 -161 -120.5 -274.5t-309.5 -126.5v-248h-109v248
q-205 26 -314.5 136.5t-121.5 303.5h166q0 -135 89.5 -217t238.5 -82q129 0 215 69.5t86 172.5q0 102 -68.5 157.5t-298.5 104.5q-227 50 -316.5 129t-89.5 219q0 159 111 260.5t303 116.5v201z" />
    <glyph glyph-name="percent" unicode="%" horiz-adv-x="1536" 
d="M1004 338q0 -127 39 -196.5t110 -69.5t110.5 69.5t39.5 196.5q0 126 -39.5 195t-110.5 69t-110 -69t-39 -195zM877 338q0 180 71 277.5t203 97.5q136 0 208.5 -97t72.5 -278q0 -182 -73 -279.5t-208 -97.5q-131 0 -202.5 98.5t-71.5 278.5zM264 23l926 1384l88 -61
l-926 -1385zM231 1022q0 -128 39 -197t111 -69q71 0 110 69.5t39 196.5t-39 196.5t-110 69.5q-72 0 -111 -69t-39 -197zM102 1020q0 180 72 278.5t203 98.5q135 0 207.5 -97.5t72.5 -279.5t-72 -278.5t-208 -96.5q-131 0 -203 98t-72 277z" />
    <glyph glyph-name="ampersand" unicode="&#x26;" horiz-adv-x="1206" 
d="M469 680q-94 -50 -143.5 -123.5t-49.5 -163.5q0 -122 77.5 -203t193.5 -81q69 0 135 33t135 102zM594 778l321 -411q27 42 40.5 90t13.5 104h164q0 -76 -31 -159t-90 -166l192 -236h-203l-92 121q-84 -84 -175.5 -124t-198.5 -40q-197 0 -317 115.5t-120 304.5
q0 141 67.5 249t201.5 183q-73 85 -107.5 162.5t-34.5 154.5q0 126 89.5 207.5t230.5 81.5q128 0 213.5 -80.5t85.5 -197.5q0 -107 -64.5 -199.5t-185.5 -159.5zM504 889q86 53 132 115t46 124t-41.5 103t-103.5 41q-64 0 -103 -43t-39 -115q0 -56 28 -114.5t81 -110.5z" />
    <glyph glyph-name="quotesingle" unicode="'" horiz-adv-x="305" 
d="M211 1434v-553h-117v553h117z" />
    <glyph glyph-name="parenleft" unicode="(" horiz-adv-x="770" 
d="M657 1501v-155q-145 -55 -221 -230t-76 -457t75.5 -456t221.5 -230v-157q-242 67 -360.5 275.5t-118.5 567.5q0 357 119 565t360 277z" />
    <glyph glyph-name="parenright" unicode=")" horiz-adv-x="770" 
d="M113 1501q241 -69 360 -277t119 -565t-119 -566.5t-360 -276.5v157q146 56 221.5 230t75.5 456t-76 457t-221 230v155z" />
    <glyph glyph-name="asterisk" unicode="*" 
d="M455 1460h110v-301l285 101l45 -121l-301 -82l205 -248l-109 -76l-180 264l-180 -262l-105 74l201 248l-297 80l39 127l287 -105v301z" />
    <glyph glyph-name="plus" unicode="+" horiz-adv-x="1706" 
d="M913 1221v-551h539v-117h-539v-553h-118v553h-541v117h541v551h118z" />
    <glyph glyph-name="comma" unicode="," horiz-adv-x="573" 
d="M184 221h207v-194q0 -62 -17.5 -122.5t-51.5 -119.5h-125q32 51 49 105t18 110h-80v221z" />
    <glyph glyph-name="hyphen" unicode="-" horiz-adv-x="713" 
d="M154 561h405v-141h-405v141z" />
    <glyph glyph-name="period" unicode="." horiz-adv-x="573" 
d="M184 221h207v-221h-207v221z" />
    <glyph glyph-name="slash" unicode="/" horiz-adv-x="1139" 
d="M1040 1503l101 -63l-1051 -1628l-94 75z" />
    <glyph glyph-name="zero" unicode="0" horiz-adv-x="1147" 
d="M573 1260q-145 0 -224 -149t-79 -425q0 -275 79 -423t224 -148q147 0 225.5 147.5t78.5 423.5t-79.5 425t-224.5 149zM569 1409q242 0 369 -185.5t127 -539.5q0 -353 -127 -538t-369 -185q-233 0 -359 187t-126 536t126 537t359 188z" />
    <glyph glyph-name="one" unicode="1" horiz-adv-x="1147" 
d="M535 1403h155v-1403h-178v1159l-188 -203l-91 107z" />
    <glyph glyph-name="two" unicode="2" horiz-adv-x="1147" 
d="M334 150h688v-150h-909q13 135 85 253.5t214 238.5q58 49 179.5 136t162.5 134q46 53 69 109t23 118q0 121 -76 196t-201 75q-122 0 -199 -83.5t-77 -215.5v-27h-184v29q0 212 121.5 330t340.5 118q209 0 338 -119t129 -309q0 -127 -62 -224.5t-274 -250.5
q-181 -130 -259 -207.5t-109 -150.5z" />
    <glyph glyph-name="three" unicode="3" horiz-adv-x="1147" 
d="M754 764q147 -34 224 -126.5t77 -236.5q0 -195 -135 -316.5t-357 -121.5q-221 0 -341.5 100t-141.5 302h190q11 -119 88 -185.5t203 -66.5q140 0 225.5 84t85.5 221q0 125 -85.5 195.5t-239.5 70.5q-27 0 -87 -4h-5v158q9 -1 26 -2q33 -2 45 -2q142 0 219.5 57.5
t77.5 163.5q0 90 -66 146t-173 56q-124 0 -195.5 -65.5t-79.5 -185.5h-190q21 193 142 300t319 107q193 0 309.5 -98.5t116.5 -259.5q0 -105 -67.5 -183t-184.5 -108z" />
    <glyph glyph-name="four" unicode="4" horiz-adv-x="1147" 
d="M750 1182l-498 -684h489zM737 1403h168v-899h170v-148h-164v-356h-174v356h-676v138z" />
    <glyph glyph-name="five" unicode="5" horiz-adv-x="1147" 
d="M170 1370h809v-149h-633v-414q48 43 116.5 64.5t158.5 21.5q188 0 309 -126.5t121 -326.5q0 -223 -135 -351t-371 -128q-208 0 -331.5 107.5t-137.5 300.5h188q6 -119 85.5 -188.5t207.5 -69.5q143 0 225 86t82 235q0 142 -80.5 231t-210.5 89q-72 0 -130 -28.5
t-97 -82.5h-176v729z" />
    <glyph glyph-name="six" unicode="6" horiz-adv-x="1147" 
d="M887 432q0 146 -81.5 236t-213.5 90q-138 0 -223.5 -94t-85.5 -246q0 -140 80 -226t210 -86q144 0 229 88.5t85 237.5zM1044 1042h-178q-21 108 -82 164t-157 56q-175 0 -271 -151.5t-96 -428.5v-8q65 110 158 164.5t219 54.5q190 0 308 -125t118 -330
q0 -214 -135.5 -346.5t-356.5 -132.5q-236 0 -361.5 173t-125.5 499q0 367 144 571.5t401 204.5q178 0 282 -91.5t133 -273.5z" />
    <glyph glyph-name="seven" unicode="7" horiz-adv-x="1147" 
d="M109 1370h895v-129q-181 -313 -290 -625t-145 -616h-211q60 332 178 636t295 583h-722v151z" />
    <glyph glyph-name="eight" unicode="8" horiz-adv-x="1147" 
d="M573 651q-135 0 -221 -75t-86 -193q0 -128 83.5 -204.5t223.5 -76.5q143 0 225.5 75.5t82.5 205.5q0 118 -86 193t-222 75zM807 727q116 -38 181 -129.5t65 -216.5q0 -197 -127.5 -308.5t-352.5 -111.5q-224 0 -351.5 111.5t-127.5 308.5q0 123 65.5 214.5t182.5 131.5
q-111 34 -166 109t-55 192q0 169 124.5 274t327.5 105q206 0 330.5 -104.5t124.5 -274.5q0 -116 -56 -192.5t-165 -108.5zM573 1270q-118 0 -198 -69.5t-80 -170.5q0 -104 79.5 -173t198.5 -69q125 0 203 67.5t78 174.5q0 104 -79 172t-202 68z" />
    <glyph glyph-name="nine" unicode="9" horiz-adv-x="1147" 
d="M102 326h179q19 -107 80.5 -163.5t158.5 -56.5q175 0 272 152t97 428v8q-65 -110 -158 -164.5t-219 -54.5q-191 0 -308.5 125t-117.5 330q0 215 135 347t354 132q238 0 364 -173t126 -499q0 -373 -146 -574.5t-415 -201.5q-167 0 -271.5 94.5t-130.5 270.5zM575 1262
q-145 0 -230 -87t-85 -235t82 -239t215 -91q135 0 222 93t87 237q0 147 -80 234.5t-211 87.5z" />
    <glyph glyph-name="colon" unicode=":" horiz-adv-x="580" 
d="M186 221h207v-221h-207v221zM186 844h207v-221h-207v221z" />
    <glyph glyph-name="semicolon" unicode=";" horiz-adv-x="580" 
d="M186 221h207v-194q0 -63 -17 -122.5t-52 -119.5h-125q32 53 49 106.5t18 108.5h-80v221zM186 838h207v-220h-207v220z" />
    <glyph glyph-name="less" unicode="&#x3c;" horiz-adv-x="1706" 
d="M1442 1018l-1000 -408l1000 -405v-129l-1178 483v103l1178 483v-127z" />
    <glyph glyph-name="equal" unicode="=" horiz-adv-x="1706" 
d="M1452 477v-117h-1198v117h1198zM1452 860v-117h-1198v117h1198z" />
    <glyph glyph-name="greater" unicode="&#x3e;" horiz-adv-x="1706" 
d="M1442 662v-103l-1178 -483v129l1000 405l-1000 408v127z" />
    <glyph glyph-name="question" unicode="?" horiz-adv-x="1053" 
d="M461 199h186v-199h-186v199zM461 371v223q0 109 23.5 163t82.5 113l46 46q143 138 143 243q0 84 -61.5 137.5t-157.5 53.5q-107 0 -172.5 -73t-71.5 -200h-188q1 191 122.5 308.5t317.5 117.5q179 0 293 -95.5t114 -242.5q0 -148 -189 -336l-50 -50q-38 -40 -52 -73
t-14 -118v-217h-186z" />
    <glyph glyph-name="at" unicode="@" horiz-adv-x="2048" 
d="M1292 844l58 121h110l-141 -568q-6 -24 -9 -44t-3 -36q0 -44 27.5 -67t82.5 -23q45 0 100 24t103 64q89 76 139.5 196.5t50.5 254.5q0 266 -195.5 428t-518.5 162q-168 0 -312.5 -52t-259.5 -153q-140 -122 -211 -282.5t-71 -354.5q0 -173 60.5 -304t186.5 -230
q101 -81 240 -124.5t295 -43.5q172 0 334.5 48.5t296.5 139.5l45 -66q-147 -109 -313 -165t-347 -56q-191 0 -348 46.5t-276 138.5q-153 117 -228 272t-75 352q0 163 50.5 309t149.5 269q146 176 349.5 267t453.5 91q165 0 311 -43.5t248 -124.5q129 -99 195.5 -230
t66.5 -282q0 -169 -62.5 -308.5t-182.5 -236.5q-69 -55 -148.5 -83.5t-163.5 -28.5q-99 0 -148.5 39t-49.5 116q0 3 1 11t1 12q-51 -87 -127 -132.5t-170 -45.5q-153 0 -233.5 85t-80.5 247q0 230 137 389t332 159q91 0 153.5 -39.5t96.5 -117.5zM1202 473l60 242
q-17 90 -72 140t-135 50q-146 0 -244 -131.5t-98 -327.5q0 -110 51 -169.5t145 -59.5q102 0 183.5 70.5t109.5 185.5z" />
    <glyph glyph-name="A" unicode="A" horiz-adv-x="1401" 
d="M698 1268l-305 -785h615l-303 785h-7zM594 1460h213l594 -1460h-203l-129 326h-737l-131 -326h-201z" />
    <glyph glyph-name="B" unicode="B" horiz-adv-x="1425" 
d="M350 698v-538h408q183 0 271.5 65.5t88.5 202.5t-89 203.5t-271 66.5h-408zM350 1300v-448h369q161 0 234 52t73 165q0 121 -82 176t-262 55h-332zM172 1460h553q236 0 355.5 -90.5t119.5 -269.5q0 -111 -58 -189.5t-169 -117.5h4q153 -25 240.5 -123t87.5 -244
q0 -229 -137 -327.5t-466 -98.5h-530v1460z" />
    <glyph glyph-name="C" unicode="C" horiz-adv-x="1561" 
d="M1458 1026h-209q-43 150 -150.5 228.5t-269.5 78.5q-227 0 -373.5 -170t-146.5 -434q0 -269 146 -435.5t381 -166.5q177 0 292 93.5t132 252.5h206q-35 -243 -205.5 -378.5t-443.5 -135.5q-145 0 -272.5 47t-214.5 133q-111 110 -171.5 263t-60.5 325q0 347 198.5 560.5
t518.5 213.5q256 0 419 -120.5t224 -354.5z" />
    <glyph glyph-name="D" unicode="D" horiz-adv-x="1556" 
d="M358 1296v-1132h293q297 0 448.5 142t151.5 421q0 280 -152.5 424.5t-447.5 144.5h-293zM172 1460h490q383 0 589.5 -190t206.5 -543q0 -341 -204 -534t-564 -193h-518v1460z" />
    <glyph glyph-name="E" unicode="E" horiz-adv-x="1247" 
d="M172 1460h918v-164h-732v-436h641v-164h-641v-532h744v-164h-930v1460z" />
    <glyph glyph-name="F" unicode="F" horiz-adv-x="1176" 
d="M172 1460h918v-164h-732v-436h658v-164h-658v-696h-186v1460z" />
    <glyph glyph-name="G" unicode="G" horiz-adv-x="1577" 
d="M1440 1024h-195q-44 153 -153 235t-267 82q-232 0 -374 -169t-142 -447q0 -267 144 -438.5t366 -171.5q194 0 318.5 123.5t124.5 318.5h-263v145h447v-702h-139l-13 231q-67 -133 -193.5 -204.5t-293.5 -71.5q-129 0 -237 36t-193 107q-135 114 -207 276.5t-72 356.5
q0 129 31.5 241.5t93.5 207.5q105 159 256 241t340 82q240 0 405 -127.5t216 -351.5z" />
    <glyph glyph-name="H" unicode="H" horiz-adv-x="1460" 
d="M172 1460h186v-604h742v604h186v-1460h-186v692h-742v-692h-186v1460z" />
    <glyph glyph-name="I" unicode="I" horiz-adv-x="557" 
d="M184 1460h187v-1460h-187v1460z" />
    <glyph glyph-name="J" unicode="J" horiz-adv-x="1133" 
d="M766 1460h186v-1007q0 -242 -116 -369t-338 -127q-213 0 -334 118.5t-121 327.5q0 7 1 20t1 19h186v-20q0 -146 69 -221.5t202 -75.5q141 0 202.5 85.5t61.5 289.5v960z" />
    <glyph glyph-name="K" unicode="K" horiz-adv-x="1393" 
d="M180 1460h187v-782l702 782h250l-576 -614l664 -846h-236l-550 719l-254 -262v-457h-187v1460z" />
    <glyph glyph-name="L" unicode="L" horiz-adv-x="1165" 
d="M182 1460h187v-1296h749v-164h-936v1460z" />
    <glyph glyph-name="M" unicode="M" horiz-adv-x="1862" 
d="M172 1460h219l535 -1247h8l539 1247h217v-1460h-174l12 1210h-10l-506 -1210h-162l-504 1210h-14l14 -1210h-174v1460z" />
    <glyph glyph-name="N" unicode="N" horiz-adv-x="1577" 
d="M172 1460h217l823 -1192l7 8v1184h186v-1460h-217l-830 1206h-8l8 -1206h-186v1460z" />
    <glyph glyph-name="O" unicode="O" horiz-adv-x="1622" 
d="M811 1339q-221 0 -363.5 -171t-142.5 -439q0 -271 141 -439.5t365 -168.5t365 168.5t141 439.5q0 270 -142.5 440t-363.5 170zM811 1501q139 0 258.5 -44.5t212.5 -131.5q121 -113 181.5 -262t60.5 -334q0 -162 -56.5 -309t-158.5 -256q-100 -105 -223 -156t-275 -51
q-151 0 -284 56.5t-226 160.5q-103 114 -153 250.5t-50 304.5q0 172 51 308.5t158 250.5q94 102 226 157.5t278 55.5z" />
    <glyph glyph-name="P" unicode="P" horiz-adv-x="1305" 
d="M358 1298v-587h320q180 0 266 72t86 223q0 147 -87.5 219.5t-264.5 72.5h-320zM172 1460h512q259 0 400 -117.5t141 -332.5q0 -225 -139.5 -344t-401.5 -119h-326v-547h-186v1460z" />
    <glyph glyph-name="Q" unicode="Q" horiz-adv-x="1622" 
d="M903 -43l-2 -72q0 -79 15.5 -98.5t78.5 -19.5h123v-148h-155q-145 0 -191.5 42.5t-46.5 168.5v127q-280 26 -453.5 242t-173.5 540q0 169 52.5 304t164.5 253q93 99 223 153t275 54q131 0 249.5 -44.5t209.5 -127.5q126 -115 189 -264.5t63 -333.5q0 -309 -172 -524
t-449 -252zM811 1341q-220 0 -363 -170.5t-143 -437.5q0 -273 141 -442.5t365 -169.5t365 168.5t141 439.5q0 270 -142.5 441t-363.5 171z" />
    <glyph glyph-name="R" unicode="R" horiz-adv-x="1370" 
d="M358 1298v-495h377q163 0 244.5 64t81.5 192q0 114 -85 176.5t-241 62.5h-377zM172 1460h565q245 0 376.5 -98.5t131.5 -282.5q0 -139 -75 -229t-205 -107l-2 -5q134 -5 195 -70.5t61 -208.5q0 -23 -1 -49.5t-1 -30.5q0 -178 18.5 -256t62.5 -123h-223q-26 43 -37.5 95
t-11.5 136v129q0 177 -47.5 230t-183.5 53h-437v-643h-186v1460z" />
    <glyph glyph-name="S" unicode="S" horiz-adv-x="1368" 
d="M1253 1067h-196q-11 130 -106.5 202t-256.5 72q-152 0 -253 -68.5t-101 -170.5q0 -103 63 -156.5t254 -95.5q22 -5 61 -13q268 -58 378 -126q83 -53 126.5 -127t43.5 -164q0 -201 -159.5 -332t-410.5 -131q-276 0 -435.5 129t-174.5 365l201 -1q1 -152 108 -242.5
t287 -90.5q158 0 262.5 80t104.5 198q0 48 -21 90.5t-63 81.5q-59 54 -291 104q-51 11 -78 17q-253 59 -364 150.5t-111 238.5q0 190 155 307t410 117q251 0 400 -114t167 -320z" />
    <glyph glyph-name="T" unicode="T" horiz-adv-x="1151" 
d="M39 1460h1073v-168h-440v-1292h-187v1292h-446v168z" />
    <glyph glyph-name="U" unicode="U" horiz-adv-x="1554" 
d="M172 1460h188v-839q0 -140 12 -212t40 -122q42 -77 138 -119.5t228 -42.5t227.5 42t139.5 120q27 50 39 116.5t12 188.5v868h186v-919q0 -294 -150 -439t-454 -145q-305 0 -455.5 145t-150.5 439v919z" />
    <glyph glyph-name="V" unicode="V" horiz-adv-x="1401" 
d="M0 1458h201l495 -1270h11l491 1270h203l-594 -1460h-213z" />
    <glyph glyph-name="W" unicode="W" horiz-adv-x="1997" 
d="M25 1460h188l287 -1235l8 2l389 1233h186l387 -1235h11l303 1235h188l-389 -1460h-203l-389 1223h-6l-387 -1223h-205z" />
    <glyph glyph-name="X" unicode="X" horiz-adv-x="1337" 
d="M66 1460h229l375 -577l374 577h228l-500 -717l514 -743h-221l-395 612l-396 -612h-221l514 743z" />
    <glyph glyph-name="Y" unicode="Y" horiz-adv-x="1307" 
d="M0 1460h221l432 -755l430 755h222l-560 -930v-530h-186v530z" />
    <glyph glyph-name="Z" unicode="Z" horiz-adv-x="1294" 
d="M119 1460h1100v-192l-945 -1104h949v-164h-1151v199l940 1097h-893v164z" />
    <glyph glyph-name="bracketleft" unicode="[" horiz-adv-x="764" 
d="M201 1460h393v-155h-217v-1338h217v-157h-393v1650z" />
    <glyph glyph-name="backslash" unicode="\" horiz-adv-x="1139" 
d="M96 1503l1045 -1616l-92 -75l-1053 1628z" />
    <glyph glyph-name="bracketright" unicode="]" horiz-adv-x="764" 
d="M170 1460h393v-1650h-393v157h217v1338h-217v155z" />
    <glyph glyph-name="asciicircum" unicode="^" horiz-adv-x="2048" 
d="M1104 1458l520 -557h-158l-442 438l-442 -438h-160l520 557h162z" />
    <glyph glyph-name="underscore" unicode="_" 
d="M1024 -365v-118h-1024v118h1024z" />
    <glyph glyph-name="grave" unicode="`" 
d="M266 1454h170l209 -352h-100z" />
    <glyph glyph-name="a" unicode="a" horiz-adv-x="1090" 
d="M768 548q-88 -60 -273 -93q-70 -12 -104 -21q-70 -18 -106.5 -60.5t-36.5 -105.5q0 -79 62 -128.5t163 -49.5q154 0 225.5 91t71.5 288q0 32 -0.5 48.5t-1.5 30.5zM930 614v-362q0 -80 9.5 -139t29.5 -113h-181q-8 39 -13.5 75t-6.5 68q-77 -94 -163 -138t-191 -44
q-154 0 -247 85.5t-93 221.5q0 130 87 199t294 98q183 27 235.5 57.5t52.5 88.5q0 65 -63.5 109t-161.5 44q-93 0 -151 -42.5t-78 -125.5h-176q33 150 137.5 222.5t286.5 72.5q210 0 301.5 -86.5t91.5 -290.5z" />
    <glyph glyph-name="b" unicode="b" horiz-adv-x="1143" 
d="M600 856q-123 0 -200.5 -103t-77.5 -272q0 -172 76.5 -275.5t201.5 -103.5q122 0 202.5 107t80.5 272q0 168 -78.5 271.5t-204.5 103.5zM154 1460h170l-2 -653q51 93 133 140.5t190 47.5q183 0 300.5 -143.5t117.5 -370.5q0 -225 -120 -372.5t-298 -147.5
q-118 0 -200 53.5t-130 161.5l4 -174h-165v1458z" />
    <glyph glyph-name="c" unicode="c" horiz-adv-x="1010" 
d="M954 653h-178q-20 97 -82 151t-153 54q-130 0 -208.5 -102.5t-78.5 -274.5q0 -176 78 -280.5t209 -104.5q92 0 155.5 61.5t81.5 168.5h176q-21 -175 -130.5 -270t-291.5 -95q-210 0 -334 142t-124 380q0 232 126.5 370t338.5 138q175 0 283.5 -88t131.5 -250z" />
    <glyph glyph-name="d" unicode="d" horiz-adv-x="1143" 
d="M543 856q-126 0 -203.5 -103t-77.5 -272q0 -167 79.5 -273t201.5 -106q125 0 201.5 103.5t76.5 275.5q0 169 -77.5 272t-200.5 103zM819 1460h170v-1458h-166l4 174q-49 -109 -131 -162t-200 -53q-178 0 -297 147.5t-119 372.5q0 226 118 370t302 144q106 0 189 -48.5
t132 -139.5z" />
    <glyph glyph-name="e" unicode="e" horiz-adv-x="1104" 
d="M1030 436h-780q3 -157 91.5 -248.5t238.5 -91.5q94 0 163.5 40.5t108.5 117.5h174q-48 -142 -161 -217.5t-279 -75.5q-235 0 -373.5 138t-138.5 372t133.5 377t351.5 143q226 0 349.5 -133t123.5 -377q0 -7 -1 -21.5t-1 -23.5zM846 565q-11 140 -90 217.5t-209 77.5
q-118 0 -199.5 -78.5t-105.5 -216.5h604z" />
    <glyph glyph-name="f" unicode="f" horiz-adv-x="694" 
d="M668 1473v-150q-38 17 -71.5 25t-64.5 8q-68 0 -104.5 -44t-36.5 -126v-234h277v-135h-277v-817h-170v817h-127v135h127v246q0 154 68.5 228.5t208.5 74.5q40 0 82.5 -7t87.5 -21z" />
    <glyph glyph-name="g" unicode="g" horiz-adv-x="1143" 
d="M821 145q-49 -90 -131.5 -138t-189.5 -48q-184 0 -302 143.5t-118 370.5q0 225 119 371.5t297 146.5q118 0 200 -52.5t131 -160.5l-4 174h166v-944q0 -235 -110 -344.5t-344 -109.5q-187 0 -288.5 73.5t-113.5 218.5h195q14 -78 74.5 -124t152.5 -46q128 0 197 76t69 215
v178zM545 852q-123 0 -204 -107.5t-81 -275.5q0 -166 79.5 -269.5t205.5 -103.5q123 0 199.5 103.5t76.5 273.5q0 172 -76 275.5t-200 103.5z" />
    <glyph glyph-name="h" unicode="h" horiz-adv-x="1104" 
d="M154 1460h168l-3 -667q45 98 125 148t193 50q160 0 240.5 -91.5t80.5 -272.5v-627h-170v614q0 124 -48 180t-154 56q-127 0 -194.5 -91t-67.5 -261v-498h-170v1460z" />
    <glyph glyph-name="i" unicode="i" horiz-adv-x="487" 
d="M160 952h170v-952h-170v952zM160 1333h170v-186h-170v186z" />
    <glyph glyph-name="j" unicode="j" horiz-adv-x="528" 
d="M203 952h170v-1009q0 -225 -55.5 -307t-192.5 -82q-33 0 -66.5 6t-66.5 18v164q29 -19 54 -28t46 -9q57 0 84 50.5t27 158.5v1038zM203 1323h170v-182h-170v182z" />
    <glyph glyph-name="k" unicode="k" horiz-adv-x="1051" 
d="M154 1460h170v-944l456 436h238l-383 -348l416 -604h-222l-305 508l-200 -178v-330h-170v1460z" />
    <glyph glyph-name="l" unicode="l" horiz-adv-x="487" 
d="M160 1460h170v-1460h-170v1460z" />
    <glyph glyph-name="m" unicode="m" horiz-adv-x="1661" 
d="M1513 627v-627h-167v539q0 177 -38.5 244t-129.5 67q-124 0 -190 -90.5t-66 -261.5v-498h-168v539q0 177 -40 244t-136 67q-125 0 -190.5 -90t-65.5 -262v-498h-168v952h168l-11 -159q47 97 128.5 147.5t191.5 50.5q87 0 158.5 -52.5t105.5 -141.5q43 91 126 143.5
t181 52.5q152 0 231.5 -93.5t79.5 -272.5z" />
    <glyph glyph-name="n" unicode="n" horiz-adv-x="1104" 
d="M958 627v-627h-170v614q0 124 -48 180t-154 56q-128 0 -195 -90.5t-67 -261.5v-498h-170v952h170l-11 -159q47 96 130.5 147t193.5 51q160 0 240.5 -91.5t80.5 -272.5z" />
    <glyph glyph-name="o" unicode="o" horiz-adv-x="1118" 
d="M559 854q-138 0 -220.5 -102.5t-82.5 -276.5t81.5 -275.5t221.5 -101.5t221.5 101.5t81.5 275.5q0 175 -82 277t-221 102zM559 991q222 0 352.5 -140t130.5 -376q0 -234 -131.5 -374t-351.5 -140q-221 0 -353 140t-132 374q0 235 132 375.5t353 140.5z" />
    <glyph glyph-name="p" unicode="p" horiz-adv-x="1143" 
d="M322 145l2 -563h-170v1370h165l-4 -174q48 107 130.5 160t201.5 53q178 0 297 -146.5t119 -371.5q0 -227 -118 -370.5t-302 -143.5q-107 0 -189.5 48t-131.5 138zM600 852q-125 0 -201.5 -103.5t-76.5 -275.5q0 -170 77.5 -273.5t200.5 -103.5q125 0 204 105t79 272
q0 166 -80.5 272.5t-202.5 106.5z" />
    <glyph glyph-name="q" unicode="q" horiz-adv-x="1143" 
d="M821 145q-49 -90 -131.5 -138t-189.5 -48q-184 0 -302 143.5t-118 370.5q0 225 119 371.5t297 146.5q118 0 200 -52.5t131 -160.5l-4 174h166v-1370h-170zM545 852q-123 0 -204 -107.5t-81 -275.5q0 -166 79.5 -269.5t205.5 -103.5q123 0 199.5 103.5t76.5 273.5
q0 172 -76 275.5t-200 103.5z" />
    <glyph glyph-name="r" unicode="r" horiz-adv-x="750" 
d="M750 991v-164q-8 0 -22 1t-21 1q-196 0 -286.5 -97.5t-90.5 -307.5v-424h-176v952h174l-4 -200q72 124 169 181.5t234 57.5h23z" />
    <glyph glyph-name="s" unicode="s" horiz-adv-x="995" 
d="M895 670h-162q-3 87 -63 138.5t-160 51.5q-95 0 -157 -42.5t-62 -104.5q0 -56 46.5 -89.5t172.5 -60.5q219 -46 304 -111t85 -178q0 -142 -110 -227.5t-295 -85.5q-189 0 -298.5 89t-127.5 255h170q0 -95 65.5 -154t171.5 -59q103 0 168.5 46.5t65.5 119.5
q0 108 -214 162q-51 13 -79 20q-172 49 -238.5 104t-66.5 144q0 139 104 221t281 82q184 0 289 -84.5t110 -236.5z" />
    <glyph glyph-name="t" unicode="t" horiz-adv-x="737" 
d="M229 283v534h-135v135h135v310h170v-310h234v-135h-234v-504q0 -134 22 -168t81 -34q22 0 52.5 8.5t76.5 27.5v-149q-54 -18 -102 -27.5t-85 -9.5q-121 0 -168 62.5t-47 259.5z" />
    <glyph glyph-name="u" unicode="u" horiz-adv-x="1104" 
d="M143 952h170v-614q0 -124 48 -180t155 -56q128 0 196 92t68 263v495h168v-952h-168l8 162q-46 -98 -129 -149.5t-194 -51.5q-160 0 -241 92t-81 275v624z" />
    <glyph glyph-name="v" unicode="v" horiz-adv-x="1012" 
d="M0 952h188l312 -778h8l313 778h189l-422 -952h-166z" />
    <glyph glyph-name="w" unicode="w" horiz-adv-x="1509" 
d="M14 952h191l203 -745h4l266 745h153l265 -745h6l203 745h190l-313 -952h-152l-272 766h-6l-273 -766h-151z" />
    <glyph glyph-name="x" unicode="x" horiz-adv-x="967" 
d="M39 952h219l225 -325l226 325h221l-352 -446l391 -506h-211l-275 397l-274 -397h-209l389 506z" />
    <glyph glyph-name="y" unicode="y" horiz-adv-x="1030" 
d="M0 952h195l317 -753h8l318 753h188l-498 -1122q-68 -156 -138.5 -216t-176.5 -60q-37 0 -77 7t-83 21v176q37 -20 69.5 -30.5t61.5 -10.5q54 0 92.5 31t75.5 105l78 157z" />
    <glyph glyph-name="z" unicode="z" horiz-adv-x="924" 
d="M100 952h736v-161l-568 -656h582v-135h-774v152l575 665h-551v135z" />
    <glyph glyph-name="braceleft" unicode="{" 
d="M858 1350q-8 0 -23 1t-22 1q-121 0 -164 -47t-43 -197v-242q0 -166 -43.5 -235.5t-154.5 -100.5q111 -30 154.5 -99.5t43.5 -235.5v-242q0 -149 43.5 -195.5t169.5 -46.5h39v-125h-35q-99 0 -159.5 12t-102.5 40q-55 36 -77.5 100t-22.5 213v244q0 152 -55 213t-189 61
q-7 0 -22 -1t-23 -1v127q8 0 23 -1t22 -1q134 0 189 61.5t55 214.5v244q0 153 22.5 215.5t77.5 97.5q42 28 102 40t160 12h35v-127z" />
    <glyph glyph-name="bar" unicode="|" 
d="M575 1565v-2048h-126v2048h126z" />
    <glyph glyph-name="braceright" unicode="}" 
d="M563 1112v-244q0 -152 55.5 -214t190.5 -62q7 0 22 1t23 1v-127q-8 0 -23 1t-22 1q-135 0 -190.5 -62t-55.5 -214v-242q0 -153 -22 -216.5t-76 -99.5q-39 -26 -97.5 -37.5t-160.5 -11.5h-41v125q8 0 23 -1t22 -1q120 0 163.5 47.5t43.5 198.5v240q0 166 43.5 235.5
t154.5 99.5q-111 31 -154.5 100.5t-43.5 235.5v242q0 149 -44 196.5t-169 47.5h-39v125h35q100 0 161 -12.5t103 -39.5q54 -35 76 -98t22 -215z" />
    <glyph glyph-name="asciitilde" unicode="~" horiz-adv-x="1706" 
d="M1530 627q-101 -72 -197.5 -108t-189.5 -36q-43 0 -90.5 9t-100.5 26q-30 10 -87 31q-202 72 -302 72q-83 0 -173.5 -37.5t-211.5 -122.5v133q105 73 202 109t185 36q56 0 116.5 -12.5t174.5 -52.5q14 -5 44 -16q158 -58 245 -58q84 0 174.5 37t210.5 121v-131z" />
    <glyph glyph-name="Adieresis" unicode="&#xc4;" horiz-adv-x="1401" 
d="M698 1268l-305 -785h615l-303 785h-7zM594 1460h213l594 -1460h-203l-129 326h-737l-131 -326h-201zM784 1864h158v-176h-158v176zM458 1864h156v-176h-156v176z" />
    <glyph glyph-name="Aring" unicode="&#xc5;" horiz-adv-x="1401" 
d="M698 1235l-305 -766h615l-303 766h-7zM594 1419h213l594 -1419h-203l-129 315h-737l-131 -315h-201zM702 1874q-61 0 -103 -42t-42 -103t42.5 -103.5t102.5 -42.5q61 0 103.5 42.5t42.5 103.5t-42 103t-104 42zM702 1972q103 0 173.5 -71t70.5 -172q0 -103 -70.5 -173.5
t-173.5 -70.5t-174 70.5t-71 173.5q0 101 71.5 172t173.5 71z" />
    <glyph glyph-name="Ccedilla" unicode="&#xc7;" horiz-adv-x="1561" 
d="M1458 1026h-209q-43 150 -150.5 228.5t-269.5 78.5q-227 0 -373.5 -170t-146.5 -434q0 -269 146 -435.5t381 -166.5q177 0 292 93.5t132 252.5h206q-35 -243 -205.5 -378.5t-443.5 -135.5q-145 0 -272.5 47t-214.5 133q-111 110 -171.5 263t-60.5 325q0 347 198.5 560.5
t518.5 213.5q256 0 419 -120.5t224 -354.5zM745 0h70v-106h14q110 0 167.5 -44.5t57.5 -128.5q0 -89 -58.5 -135.5t-172.5 -46.5q-58 0 -120.5 9.5t-135.5 29.5l2 86q77 -18 135.5 -27.5t100.5 -9.5q65 0 97 22t32 66q0 52 -34.5 75.5t-109.5 23.5q-7 0 -21.5 -1t-23.5 -1
v188z" />
    <glyph glyph-name="Eacute" unicode="&#xc9;" horiz-adv-x="1247" 
d="M172 1460h918v-164h-732v-436h641v-164h-641v-532h744v-164h-930v1460zM699 1966h170l-279 -352h-100z" />
    <glyph glyph-name="Ntilde" unicode="&#xd1;" horiz-adv-x="1577" 
d="M172 1460h217l823 -1192l7 8v1184h186v-1460h-217l-830 1206h-8l8 -1206h-186v1460zM997 1886h84q-27 -96 -75 -144t-118 -48q-15 0 -32 2.5t-35 7.5l-97 31q-15 4 -28 6t-25 2q-30 0 -53.5 -18.5t-38.5 -55.5h-86q23 95 72.5 143t124.5 48q17 0 32 -2t27 -7l96 -30
q21 -6 34 -8.5t22 -2.5q32 0 56 19t40 57z" />
    <glyph glyph-name="Odieresis" unicode="&#xd6;" horiz-adv-x="1622" 
d="M811 1339q-221 0 -363.5 -171t-142.5 -439q0 -271 141 -439.5t365 -168.5t365 168.5t141 439.5q0 270 -142.5 440t-363.5 170zM811 1501q139 0 258.5 -44.5t212.5 -131.5q121 -113 181.5 -262t60.5 -334q0 -162 -56.5 -309t-158.5 -256q-100 -105 -223 -156t-275 -51
q-151 0 -284 56.5t-226 160.5q-103 114 -153 250.5t-50 304.5q0 172 51 308.5t158 250.5q94 102 226 157.5t278 55.5zM895 1864h158v-176h-158v176zM569 1864h156v-176h-156v176z" />
    <glyph glyph-name="Udieresis" unicode="&#xdc;" horiz-adv-x="1554" 
d="M172 1460h188v-839q0 -140 12 -212t40 -122q42 -77 138 -119.5t228 -42.5t227.5 42t139.5 120q27 50 39 116.5t12 188.5v868h186v-919q0 -294 -150 -439t-454 -145q-305 0 -455.5 145t-150.5 439v919zM860 1864h158v-176h-158v176zM534 1864h156v-176h-156v176z" />
    <glyph glyph-name="aacute" unicode="&#xe1;" horiz-adv-x="1090" 
d="M768 548q-88 -60 -273 -93q-70 -12 -104 -21q-70 -18 -106.5 -60.5t-36.5 -105.5q0 -79 62 -128.5t163 -49.5q154 0 225.5 91t71.5 288q0 32 -0.5 48.5t-1.5 30.5zM930 614v-362q0 -80 9.5 -139t29.5 -113h-181q-8 39 -13.5 75t-6.5 68q-77 -94 -163 -138t-191 -44
q-154 0 -247 85.5t-93 221.5q0 130 87 199t294 98q183 27 235.5 57.5t52.5 88.5q0 65 -63.5 109t-161.5 44q-93 0 -151 -42.5t-78 -125.5h-176q33 150 137.5 222.5t286.5 72.5q210 0 301.5 -86.5t91.5 -290.5zM621 1454h170l-279 -352h-100z" />
    <glyph glyph-name="agrave" unicode="&#xe0;" horiz-adv-x="1090" 
d="M768 548q-88 -60 -273 -93q-70 -12 -104 -21q-70 -18 -106.5 -60.5t-36.5 -105.5q0 -79 62 -128.5t163 -49.5q154 0 225.5 91t71.5 288q0 32 -0.5 48.5t-1.5 30.5zM930 614v-362q0 -80 9.5 -139t29.5 -113h-181q-8 39 -13.5 75t-6.5 68q-77 -94 -163 -138t-191 -44
q-154 0 -247 85.5t-93 221.5q0 130 87 199t294 98q183 27 235.5 57.5t52.5 88.5q0 65 -63.5 109t-161.5 44q-93 0 -151 -42.5t-78 -125.5h-176q33 150 137.5 222.5t286.5 72.5q210 0 301.5 -86.5t91.5 -290.5zM299 1454h170l209 -352h-100z" />
    <glyph glyph-name="acircumflex" unicode="&#xe2;" horiz-adv-x="1090" 
d="M768 548q-88 -60 -273 -93q-70 -12 -104 -21q-70 -18 -106.5 -60.5t-36.5 -105.5q0 -79 62 -128.5t163 -49.5q154 0 225.5 91t71.5 288q0 32 -0.5 48.5t-1.5 30.5zM930 614v-362q0 -80 9.5 -139t29.5 -113h-181q-8 39 -13.5 75t-6.5 68q-77 -94 -163 -138t-191 -44
q-154 0 -247 85.5t-93 221.5q0 130 87 199t294 98q183 27 235.5 57.5t52.5 88.5q0 65 -63.5 109t-161.5 44q-93 0 -151 -42.5t-78 -125.5h-176q33 150 137.5 222.5t286.5 72.5q210 0 301.5 -86.5t91.5 -290.5zM463 1454h164l201 -352h-101l-182 254l-182 -254h-101z" />
    <glyph glyph-name="adieresis" unicode="&#xe4;" horiz-adv-x="1090" 
d="M768 548q-88 -60 -273 -93q-70 -12 -104 -21q-70 -18 -106.5 -60.5t-36.5 -105.5q0 -79 62 -128.5t163 -49.5q154 0 225.5 91t71.5 288q0 32 -0.5 48.5t-1.5 30.5zM930 614v-362q0 -80 9.5 -139t29.5 -113h-181q-8 39 -13.5 75t-6.5 68q-77 -94 -163 -138t-191 -44
q-154 0 -247 85.5t-93 221.5q0 130 87 199t294 98q183 27 235.5 57.5t52.5 88.5q0 65 -63.5 109t-161.5 44q-93 0 -151 -42.5t-78 -125.5h-176q33 150 137.5 222.5t286.5 72.5q210 0 301.5 -86.5t91.5 -290.5zM629 1352h158v-176h-158v176zM303 1352h156v-176h-156v176z" />
    <glyph glyph-name="atilde" unicode="&#xe3;" horiz-adv-x="1090" 
d="M768 548q-88 -60 -273 -93q-70 -12 -104 -21q-70 -18 -106.5 -60.5t-36.5 -105.5q0 -79 62 -128.5t163 -49.5q154 0 225.5 91t71.5 288q0 32 -0.5 48.5t-1.5 30.5zM930 614v-362q0 -80 9.5 -139t29.5 -113h-181q-8 39 -13.5 75t-6.5 68q-77 -94 -163 -138t-191 -44
q-154 0 -247 85.5t-93 221.5q0 130 87 199t294 98q183 27 235.5 57.5t52.5 88.5q0 65 -63.5 109t-161.5 44q-93 0 -151 -42.5t-78 -125.5h-176q33 150 137.5 222.5t286.5 72.5q210 0 301.5 -86.5t91.5 -290.5zM754 1374h84q-27 -96 -75 -144t-118 -48q-15 0 -32 2.5t-35 7.5
l-97 31q-15 4 -28 6t-25 2q-30 0 -53.5 -18.5t-38.5 -55.5h-86q23 95 72.5 143t124.5 48q17 0 32 -2t27 -7l96 -30q21 -6 34 -8.5t22 -2.5q32 0 56 19t40 57z" />
    <glyph glyph-name="aring" unicode="&#xe5;" horiz-adv-x="1090" 
d="M768 548q-88 -60 -273 -93q-70 -12 -104 -21q-70 -18 -106.5 -60.5t-36.5 -105.5q0 -79 62 -128.5t163 -49.5q154 0 225.5 91t71.5 288q0 32 -0.5 48.5t-1.5 30.5zM930 614v-362q0 -80 9.5 -139t29.5 -113h-181q-8 39 -13.5 75t-6.5 68q-77 -94 -163 -138t-191 -44
q-154 0 -247 85.5t-93 221.5q0 130 87 199t294 98q183 27 235.5 57.5t52.5 88.5q0 65 -63.5 109t-161.5 44q-93 0 -151 -42.5t-78 -125.5h-176q33 150 137.5 222.5t286.5 72.5q210 0 301.5 -86.5t91.5 -290.5zM541 1448q-62 0 -104 -42t-42 -103q0 -62 42 -104t104 -42
q61 0 103 41.5t42 101.5q0 62 -42.5 105t-102.5 43zM541 1546q103 0 174 -70.5t71 -172.5q0 -103 -71 -174.5t-174 -71.5t-173.5 71t-70.5 175q0 102 70.5 172.5t173.5 70.5z" />
    <glyph glyph-name="ccedilla" unicode="&#xe7;" horiz-adv-x="1010" 
d="M954 653h-178q-20 97 -82 151t-153 54q-130 0 -208.5 -102.5t-78.5 -274.5q0 -176 78 -280.5t209 -104.5q92 0 155.5 61.5t81.5 168.5h176q-21 -175 -130.5 -270t-291.5 -95q-210 0 -334 142t-124 380q0 232 126.5 370t338.5 138q175 0 283.5 -88t131.5 -250zM491 0h70
v-106h14q110 0 167.5 -44.5t57.5 -128.5q0 -89 -58.5 -135.5t-172.5 -46.5q-58 0 -120.5 9.5t-135.5 29.5l2 86q77 -18 135.5 -27.5t100.5 -9.5q65 0 97 22t32 66q0 52 -34.5 75.5t-109.5 23.5q-7 0 -21.5 -1t-23.5 -1v188z" />
    <glyph glyph-name="eacute" unicode="&#xe9;" horiz-adv-x="1104" 
d="M1030 436h-780q3 -157 91.5 -248.5t238.5 -91.5q94 0 163.5 40.5t108.5 117.5h174q-48 -142 -161 -217.5t-279 -75.5q-235 0 -373.5 138t-138.5 372t133.5 377t351.5 143q226 0 349.5 -133t123.5 -377q0 -7 -1 -21.5t-1 -23.5zM846 565q-11 140 -90 217.5t-209 77.5
q-118 0 -199.5 -78.5t-105.5 -216.5h604zM649 1454h170l-279 -352h-100z" />
    <glyph glyph-name="egrave" unicode="&#xe8;" horiz-adv-x="1104" 
d="M1030 436h-780q3 -157 91.5 -248.5t238.5 -91.5q94 0 163.5 40.5t108.5 117.5h174q-48 -142 -161 -217.5t-279 -75.5q-235 0 -373.5 138t-138.5 372t133.5 377t351.5 143q226 0 349.5 -133t123.5 -377q0 -7 -1 -21.5t-1 -23.5zM846 565q-11 140 -90 217.5t-209 77.5
q-118 0 -199.5 -78.5t-105.5 -216.5h604zM327 1454h170l209 -352h-100z" />
    <glyph glyph-name="ecircumflex" unicode="&#xea;" horiz-adv-x="1104" 
d="M1030 436h-780q3 -157 91.5 -248.5t238.5 -91.5q94 0 163.5 40.5t108.5 117.5h174q-48 -142 -161 -217.5t-279 -75.5q-235 0 -373.5 138t-138.5 372t133.5 377t351.5 143q226 0 349.5 -133t123.5 -377q0 -7 -1 -21.5t-1 -23.5zM846 565q-11 140 -90 217.5t-209 77.5
q-118 0 -199.5 -78.5t-105.5 -216.5h604zM491 1454h164l201 -352h-101l-182 254l-182 -254h-101z" />
    <glyph glyph-name="edieresis" unicode="&#xeb;" horiz-adv-x="1104" 
d="M1030 436h-780q3 -157 91.5 -248.5t238.5 -91.5q94 0 163.5 40.5t108.5 117.5h174q-48 -142 -161 -217.5t-279 -75.5q-235 0 -373.5 138t-138.5 372t133.5 377t351.5 143q226 0 349.5 -133t123.5 -377q0 -7 -1 -21.5t-1 -23.5zM846 565q-11 140 -90 217.5t-209 77.5
q-118 0 -199.5 -78.5t-105.5 -216.5h604zM657 1352h158v-176h-158v176zM331 1352h156v-176h-156v176z" />
    <glyph glyph-name="iacute" unicode="&#xed;" horiz-adv-x="487" 
d="M160 952h170v-952h-170v952zM320 1454h170l-279 -352h-100z" />
    <glyph glyph-name="igrave" unicode="&#xec;" horiz-adv-x="487" 
d="M160 952h170v-952h-170v952zM-2 1454h170l209 -352h-100z" />
    <glyph glyph-name="icircumflex" unicode="&#xee;" horiz-adv-x="487" 
d="M160 952h170v-952h-170v952zM162 1454h164l201 -352h-101l-182 254l-182 -254h-101z" />
    <glyph glyph-name="idieresis" unicode="&#xef;" horiz-adv-x="487" 
d="M160 952h170v-952h-170v952zM328 1352h158v-176h-158v176zM2 1352h156v-176h-156v176z" />
    <glyph glyph-name="ntilde" unicode="&#xf1;" horiz-adv-x="1104" 
d="M958 627v-627h-170v614q0 124 -48 180t-154 56q-128 0 -195 -90.5t-67 -261.5v-498h-170v952h170l-11 -159q47 96 130.5 147t193.5 51q160 0 240.5 -91.5t80.5 -272.5zM762 1374h84q-27 -96 -75 -144t-118 -48q-15 0 -32 2.5t-35 7.5l-97 31q-15 4 -28 6t-25 2
q-30 0 -53.5 -18.5t-38.5 -55.5h-86q23 95 72.5 143t124.5 48q17 0 32 -2t27 -7l96 -30q21 -6 34 -8.5t22 -2.5q32 0 56 19t40 57z" />
    <glyph glyph-name="oacute" unicode="&#xf3;" horiz-adv-x="1118" 
d="M559 854q-138 0 -220.5 -102.5t-82.5 -276.5t81.5 -275.5t221.5 -101.5t221.5 101.5t81.5 275.5q0 175 -82 277t-221 102zM559 991q222 0 352.5 -140t130.5 -376q0 -234 -131.5 -374t-351.5 -140q-221 0 -353 140t-132 374q0 235 132 375.5t353 140.5zM635 1454h170
l-279 -352h-100z" />
    <glyph glyph-name="ograve" unicode="&#xf2;" horiz-adv-x="1118" 
d="M559 854q-138 0 -220.5 -102.5t-82.5 -276.5t81.5 -275.5t221.5 -101.5t221.5 101.5t81.5 275.5q0 175 -82 277t-221 102zM559 991q222 0 352.5 -140t130.5 -376q0 -234 -131.5 -374t-351.5 -140q-221 0 -353 140t-132 374q0 235 132 375.5t353 140.5zM313 1454h170
l209 -352h-100z" />
    <glyph glyph-name="ocircumflex" unicode="&#xf4;" horiz-adv-x="1118" 
d="M559 854q-138 0 -220.5 -102.5t-82.5 -276.5t81.5 -275.5t221.5 -101.5t221.5 101.5t81.5 275.5q0 175 -82 277t-221 102zM559 991q222 0 352.5 -140t130.5 -376q0 -234 -131.5 -374t-351.5 -140q-221 0 -353 140t-132 374q0 235 132 375.5t353 140.5zM477 1454h164
l201 -352h-101l-182 254l-182 -254h-101z" />
    <glyph glyph-name="odieresis" unicode="&#xf6;" horiz-adv-x="1118" 
d="M559 854q-138 0 -220.5 -102.5t-82.5 -276.5t81.5 -275.5t221.5 -101.5t221.5 101.5t81.5 275.5q0 175 -82 277t-221 102zM559 991q222 0 352.5 -140t130.5 -376q0 -234 -131.5 -374t-351.5 -140q-221 0 -353 140t-132 374q0 235 132 375.5t353 140.5zM643 1352h158v-176
h-158v176zM317 1352h156v-176h-156v176z" />
    <glyph glyph-name="otilde" unicode="&#xf5;" horiz-adv-x="1118" 
d="M559 854q-138 0 -220.5 -102.5t-82.5 -276.5t81.5 -275.5t221.5 -101.5t221.5 101.5t81.5 275.5q0 175 -82 277t-221 102zM559 991q222 0 352.5 -140t130.5 -376q0 -234 -131.5 -374t-351.5 -140q-221 0 -353 140t-132 374q0 235 132 375.5t353 140.5zM768 1374h84
q-27 -96 -75 -144t-118 -48q-15 0 -32 2.5t-35 7.5l-97 31q-15 4 -28 6t-25 2q-30 0 -53.5 -18.5t-38.5 -55.5h-86q23 95 72.5 143t124.5 48q17 0 32 -2t27 -7l96 -30q21 -6 34 -8.5t22 -2.5q32 0 56 19t40 57z" />
    <glyph glyph-name="uacute" unicode="&#xfa;" horiz-adv-x="1104" 
d="M143 952h170v-614q0 -124 48 -180t155 -56q128 0 196 92t68 263v495h168v-952h-168l8 162q-46 -98 -129 -149.5t-194 -51.5q-160 0 -241 92t-81 275v624zM629 1454h170l-279 -352h-100z" />
    <glyph glyph-name="ugrave" unicode="&#xf9;" horiz-adv-x="1104" 
d="M143 952h170v-614q0 -124 48 -180t155 -56q128 0 196 92t68 263v495h168v-952h-168l8 162q-46 -98 -129 -149.5t-194 -51.5q-160 0 -241 92t-81 275v624zM307 1454h170l209 -352h-100z" />
    <glyph glyph-name="ucircumflex" unicode="&#xfb;" horiz-adv-x="1104" 
d="M143 952h170v-614q0 -124 48 -180t155 -56q128 0 196 92t68 263v495h168v-952h-168l8 162q-46 -98 -129 -149.5t-194 -51.5q-160 0 -241 92t-81 275v624zM471 1454h164l201 -352h-101l-182 254l-182 -254h-101z" />
    <glyph glyph-name="udieresis" unicode="&#xfc;" horiz-adv-x="1104" 
d="M143 952h170v-614q0 -124 48 -180t155 -56q128 0 196 92t68 263v495h168v-952h-168l8 162q-46 -98 -129 -149.5t-194 -51.5q-160 0 -241 92t-81 275v624zM637 1352h158v-176h-158v176zM311 1352h156v-176h-156v176z" />
    <glyph glyph-name="dagger" unicode="&#x2020;" 
d="M440 1460h138v-428h368v-119h-368v-1142h-138v1142h-362v119h362v428z" />
    <glyph glyph-name="degree" unicode="&#xb0;" horiz-adv-x="674" 
d="M539 1171q0 84 -58.5 142.5t-142.5 58.5t-143.5 -58.5t-59.5 -142.5t59.5 -143t143.5 -59t142.5 59t58.5 143zM338 1454q117 0 200 -83t83 -200q0 -116 -83.5 -199t-201.5 -83t-199.5 82t-81.5 200q0 119 82.5 201t200.5 82z" />
    <glyph glyph-name="cent" unicode="&#xa2;" horiz-adv-x="1147" 
d="M518 1233h105v-205q160 -11 259.5 -101.5t114.5 -240.5h-175q-9 94 -73.5 152.5t-158.5 58.5q-128 0 -204.5 -101t-76.5 -272q0 -179 74.5 -281t204.5 -102q99 0 161.5 59.5t77.5 168.5h179q-16 -166 -117 -262.5t-266 -104.5v-258h-105v258q-182 22 -287.5 159
t-105.5 353q0 221 103 356t290 158v205z" />
    <glyph glyph-name="sterling" unicode="&#xa3;" horiz-adv-x="1147" 
d="M1034 1028l-184 1q-2 103 -72 168t-180 65q-129 0 -207 -68.5t-78 -181.5q0 -73 70 -249q9 -23 15 -36h311v-121h-275q16 -43 23.5 -74t7.5 -57q0 -70 -30 -142t-89 -145q38 22 75.5 32.5t78.5 10.5q56 0 145 -47q13 -7 19 -10q7 -4 21 -11q79 -40 118 -40q52 0 88 59.5
t39 153.5h180q-18 -182 -91.5 -278.5t-195.5 -96.5q-36 0 -77.5 12t-100.5 39q-15 7 -44 22q-106 52 -167 52q-60 0 -115 -28.5t-112 -88.5l-129 125q100 81 154.5 171t54.5 173q0 41 -8.5 83t-24.5 85h-174v121h131q-43 89 -62.5 157.5t-19.5 127.5q0 180 125 288.5
t334 108.5q210 0 327 -99.5t119 -281.5z" />
    <glyph glyph-name="section" unicode="&#xa7;" 
d="M375 934q-66 -27 -102.5 -74.5t-36.5 -105.5q0 -56 39 -110.5t112 -98.5l262 -162q66 42 96.5 88t30.5 102q0 64 -37.5 115t-122.5 100zM836 1165h-131q-2 102 -54.5 159.5t-142.5 57.5q-79 0 -126.5 -43t-47.5 -114q0 -57 36.5 -103.5t121.5 -95.5l198 -115
q124 -71 177 -144t53 -169q0 -87 -49.5 -157.5t-143.5 -118.5q54 -48 81.5 -106.5t27.5 -125.5q0 -129 -95 -210t-247 -81q-159 0 -245.5 87t-86.5 245v16h139v-6q0 -103 53 -161t148 -58q90 0 140 45t50 125q0 97 -193 215l-14 8l-182 113q-99 61 -150 131.5t-51 147.5
q0 99 48 172.5t147 124.5q-54 40 -79 91t-25 119q0 127 91 208t236 81q144 0 230 -86.5t86 -232.5v-19z" />
    <glyph glyph-name="bullet" unicode="&#x2022;" horiz-adv-x="1208" 
d="M307 762q0 123 87 209t210 86q122 0 208.5 -86.5t86.5 -208.5t-87.5 -209.5t-209.5 -87.5q-123 0 -209 87t-86 210z" />
    <glyph glyph-name="paragraph" unicode="&#xb6;" 
d="M948 1401h-125v-1401h-94v1401h-182v-1401h-96v782q-173 8 -274 102.5t-101 245.5q0 157 107.5 253t285.5 96h479v-78z" />
    <glyph glyph-name="germandbls" unicode="&#xdf;" horiz-adv-x="1100" 
d="M684 920v-7q174 -32 258 -146t84 -316q0 -219 -123 -354.5t-319 -135.5q-58 0 -105.5 9t-83.5 26l19 141q33 -20 75 -31.5t86 -11.5q129 0 207 99t78 264q0 194 -89.5 291.5t-266.5 97.5h-10v119h18q122 0 191 58.5t69 162.5q0 86 -57 133t-162 47q-110 0 -170.5 -73.5
t-60.5 -207.5v-1085h-166v1075q0 212 101.5 320t299.5 108q178 0 274.5 -83t96.5 -236q0 -106 -64 -175.5t-180 -88.5z" />
    <glyph glyph-name="registered" unicode="&#xae;" horiz-adv-x="1706" 
d="M846 1065h-144v-291h148q123 0 175 33t52 108q0 79 -54.5 114.5t-176.5 35.5zM872 1157q178 0 264.5 -57t86.5 -174q0 -89 -53 -148.5t-144 -75.5l188 -385h-157l-176 365h-179v-365h-141v840h311zM1501 721q0 133 -48 251.5t-138 209.5q-94 93 -211.5 141.5t-251.5 48.5
q-132 0 -247 -47t-204 -137q-94 -95 -144 -214t-50 -249q0 -127 49 -244t141 -211q91 -92 208 -141t245 -49q131 0 249.5 48.5t213.5 141.5q91 90 139.5 206t48.5 245zM852 1460q150 0 284 -55.5t240 -161.5q102 -102 156.5 -235.5t54.5 -282.5q0 -151 -54.5 -283
t-158.5 -233q-109 -106 -243.5 -162.5t-278.5 -56.5q-145 0 -278.5 56t-239.5 163q-105 104 -160 237t-55 279q0 147 57 282t164 242q101 103 232 157t280 54z" />
    <glyph glyph-name="copyright" unicode="&#xa9;" horiz-adv-x="1706" 
d="M1065 911q-15 77 -70.5 120.5t-138.5 43.5q-117 0 -182.5 -92.5t-65.5 -259.5q0 -160 66.5 -252t181.5 -92q87 0 145.5 48.5t73.5 133.5h129q-11 -127 -109 -207t-245 -80q-176 0 -280.5 121t-104.5 326q0 208 107.5 332.5t287.5 124.5q137 0 230 -74.5t104 -192.5h-129z
M1501 725q0 130 -49 249t-139 210q-92 92 -210 140t-251 48q-132 0 -247.5 -47.5t-205.5 -138.5q-93 -95 -142.5 -214t-49.5 -247q0 -127 49 -244t141 -211q93 -92 209.5 -141t245.5 -49t248.5 50t214.5 142q91 90 138.5 205.5t47.5 247.5zM852 1460q151 0 285 -55t239 -160
q102 -102 156.5 -236t54.5 -284q0 -151 -54 -283t-157 -233q-109 -106 -244.5 -162.5t-279.5 -56.5q-146 0 -278 55.5t-238 161.5q-106 105 -161.5 238.5t-55.5 279.5q0 145 56.5 279.5t162.5 242.5q102 104 234 158.5t280 54.5z" />
    <glyph glyph-name="trademark" unicode="&#x2122;" horiz-adv-x="1706" 
d="M948 1456l160 -405l149 405h132v-534h-82v458l-172 -458h-54l-180 458v-458h-82v534h129zM694 1456v-67h-172v-467h-94v467h-174v67h440z" />
    <glyph glyph-name="acute" unicode="&#xb4;" 
d="M588 1454h170l-279 -352h-100z" />
    <glyph glyph-name="dieresis" unicode="&#xa8;" 
d="M596 1352h158v-176h-158v176zM270 1352h156v-176h-156v176z" />
    <glyph glyph-name="notequal" unicode="&#x2260;" horiz-adv-x="1706" 
d="M1298 1110l-196 -250h350v-115h-424l-211 -270h635v-115h-709l-251 -319l-89 70l197 249h-346v115h420l211 270h-631v115h704l252 320z" />
    <glyph glyph-name="AE" unicode="&#xc6;" horiz-adv-x="2107" 
d="M1030 1296l-522 -809h541v809h-19zM932 1460h1026v-164h-731v-436h641v-164h-641v-532h745v-164h-923v336h-639l-226 -336h-221z" />
    <glyph glyph-name="Oslash" unicode="&#xd8;" horiz-adv-x="1622" 
d="M1212 1114l-733 -860q72 -68 153.5 -100.5t176.5 -32.5q224 0 366 167.5t142 434.5q0 110 -26 207.5t-79 183.5zM1139 1204q-59 65 -144 100t-182 35q-222 0 -365 -169t-143 -433q0 -122 26.5 -221.5t78.5 -169.5zM1399 1505l84 -75l-144 -166q93 -113 139 -247t46 -294
q0 -161 -58 -309t-163 -256q-99 -102 -221 -151.5t-273 -49.5q-128 0 -238.5 39.5t-208.5 120.5l-161 -187l-84 76l166 193q-92 104 -138.5 237.5t-46.5 294.5q0 174 52 310t163 253q93 99 223.5 153t276.5 54q129 0 240 -39.5t209 -120.5z" />
    <glyph glyph-name="infinity" unicode="&#x221e;" horiz-adv-x="1706" 
d="M905 559q51 -95 119 -141.5t156 -46.5q102 0 168.5 71t66.5 181q0 108 -61 179.5t-152 71.5q-85 0 -153.5 -72.5t-143.5 -242.5zM803 666q-51 95 -119 142.5t-154 47.5q-105 0 -171 -71t-66 -183q0 -108 61 -179t152 -71q85 0 152 69t145 245zM840 727q67 138 146 204
t175 66q134 0 226 -108.5t92 -272.5q0 -171 -82 -277t-213 -106q-96 0 -169 60t-149 201q-71 -138 -148 -201.5t-173 -63.5q-134 0 -226 109t-92 272q0 172 82.5 277.5t214.5 105.5q97 0 172 -63t144 -203z" />
    <glyph glyph-name="plusminus" unicode="&#xb1;" horiz-adv-x="1706" 
d="M1452 158v-117h-1198v117h1198zM913 1180v-344h539v-117h-539v-344h-118v344h-541v117h541v344h118z" />
    <glyph glyph-name="lessequal" unicode="&#x2264;" horiz-adv-x="1706" 
d="M1444 150v-117h-1182v117h1182zM1444 1067l-977 -324l977 -323v-125l-1182 399v101l1182 397v-125z" />
    <glyph glyph-name="greaterequal" unicode="&#x2265;" horiz-adv-x="1706" 
d="M1444 150v-117h-1182v117h1182zM1444 795v-101l-1182 -399v125l979 323l-979 324v125z" />
    <glyph glyph-name="yen" unicode="&#xa5;" horiz-adv-x="1147" 
d="M0 1370h195l378 -708l381 708h195l-307 -539h250v-71h-289l-113 -195h402v-71h-437v-494h-161v494h-437v71h398l-111 195h-287v71h246z" />
    <glyph glyph-name="mu" unicode="&#xb5;" horiz-adv-x="1128" 
d="M362 1069l-126 -595q-8 -33 -11.5 -67t-3.5 -71q0 -109 57 -168t160 -59q125 0 208 101t128 308l121 551h156l-162 -754q-12 -52 -17.5 -84t-5.5 -51q0 -32 18.5 -48.5t53.5 -16.5q9 0 17.5 0.5t17.5 1.5l-27 -125q-21 -5 -44 -7.5t-48 -2.5q-70 0 -104.5 35t-40.5 112
q-41 -70 -117 -108.5t-172 -38.5q-87 0 -152.5 34t-109.5 103l-113 -545h-156l316 1495h157z" />
    <glyph glyph-name="partialdiff" unicode="&#x2202;" horiz-adv-x="1044" 
d="M754 604q13 81 19.5 161.5t6.5 158.5q0 140 -39.5 216.5t-111.5 76.5q-53 0 -117 -63.5t-109 -63.5q-29 0 -51 21.5t-22 51.5q0 59 68 105.5t163 46.5q171 0 273 -152.5t102 -412.5q0 -335 -139 -555t-344 -220q-147 0 -241.5 106.5t-94.5 272.5q0 189 108.5 316
t266.5 127q99 0 162.5 -47t99.5 -146zM709 483q0 117 -45 180.5t-127 63.5q-113 0 -184.5 -127.5t-71.5 -333.5q0 -117 44 -178t128 -61q111 0 183.5 128t72.5 328z" />
    <glyph glyph-name="summation" unicode="&#x2211;" horiz-adv-x="1346" 
d="M51 1473h1239v-166h-989l690 -744l-719 -792h1035v-164h-1289v139l738 813l-705 758v156z" />
    <glyph glyph-name="product" unicode="&#x220f;" horiz-adv-x="1528" 
d="M160 1473h1208v-1866h-201v1693h-809v-1693h-198v1866z" />
    <glyph glyph-name="pi" unicode="&#x3c0;" horiz-adv-x="1186" 
d="M1139 930h-185l-110 -516q-14 -66 -21.5 -114.5t-7.5 -74.5q0 -57 24 -81.5t81 -24.5q21 0 46 2.5t52 7.5l-29 -129l-5 -1q-64 -15 -99 -15q-110 0 -168 51.5t-58 150.5q0 48 11.5 121t44.5 230l84 393h-348l-197 -930h-158l197 930h-39q-55 0 -84.5 -31t-40.5 -100h-145
q26 153 94 211.5t223 58.5h866z" />
    <glyph glyph-name="integral" unicode="&#x222b;" horiz-adv-x="1020" 
d="M301 -268q103 0 116 664q3 141 5 216q12 503 102 719.5t281 216.5q76 0 122 -39t46 -104q0 -48 -31 -77.5t-82 -29.5q-53 0 -85 35t-32 92q0 8 -6 15.5t-14 7.5q-105 0 -119 -634q-3 -157 -6 -245q-10 -308 -31.5 -461t-62.5 -247q-49 -114 -123 -173t-168 -59
q-73 0 -119.5 38t-46.5 97q0 53 31.5 84t83.5 31q47 0 79.5 -29t32.5 -67q0 -24 7.5 -37.5t19.5 -13.5z" />
    <glyph glyph-name="ordfeminine" unicode="&#xaa;" horiz-adv-x="817" 
d="M575 1177q-65 -42 -203 -66q-54 -9 -79 -15q-51 -13 -79 -42.5t-28 -72.5q0 -56 46.5 -90.5t121.5 -34.5q116 0 170 63.5t54 200.5q0 23 -0.5 34.5t-2.5 22.5zM698 1223v-254q0 -57 7 -98t22 -78h-135q-7 24 -11 49.5t-6 49.5q-55 -64 -119.5 -95t-144.5 -31
q-115 0 -185.5 59.5t-70.5 155.5q0 91 66 139t221 68q137 18 176 39.5t39 62.5q0 46 -47.5 76.5t-120.5 30.5q-70 0 -113.5 -29.5t-58.5 -87.5h-133q26 106 104 156.5t215 50.5q158 0 226.5 -61.5t68.5 -202.5z" />
    <glyph glyph-name="ordmasculine" unicode="&#xba;" horiz-adv-x="840" 
d="M420 1391q-104 0 -165.5 -72t-61.5 -195q0 -121 61 -191.5t166 -70.5t166 70.5t61 191.5q0 124 -61 195.5t-166 71.5zM420 1487q167 0 264.5 -98t97.5 -265q0 -163 -98.5 -260.5t-263.5 -97.5q-166 0 -265.5 97.5t-99.5 260.5q0 166 99 264.5t266 98.5z" />
    <glyph glyph-name="Omega" unicode="&#x3a9;" horiz-adv-x="1573" 
d="M1473 156v-156h-590v150q193 111 296 279t103 374q0 251 -137 405t-359 154q-221 0 -359 -155t-138 -404q0 -205 103 -373.5t298 -279.5v-150h-590v156h332q-164 133 -242.5 285t-78.5 335q0 329 188.5 533t486.5 204q299 0 487.5 -202.5t188.5 -530.5
q0 -186 -78.5 -338.5t-242.5 -285.5h332z" />
    <glyph glyph-name="ae" unicode="&#xe6;" horiz-adv-x="1796" 
d="M1538 567q-11 139 -89.5 216t-209.5 77q-118 0 -199.5 -78t-105.5 -215h604zM887 836q70 78 161 116.5t203 38.5q226 0 349.5 -133t123.5 -377q0 -7 -1 -21.5t-1 -23.5h-788q7 -155 99 -246.5t239 -91.5q95 0 164.5 40.5t107.5 117.5h174q-48 -143 -161.5 -219
t-278.5 -76q-142 0 -252.5 55t-208.5 174q-79 -114 -179.5 -170.5t-223.5 -56.5q-153 0 -246.5 85.5t-93.5 221.5q0 129 86.5 197t294.5 98q183 27 235.5 57.5t52.5 88.5q0 65 -63.5 109t-161.5 44q-93 0 -151.5 -42t-77.5 -124h-176q36 154 140.5 223.5t303.5 69.5
q102 0 179.5 -36.5t150.5 -118.5zM768 550q-88 -59 -273 -93q-70 -12 -104 -21q-70 -18 -106.5 -60.5t-36.5 -105.5q0 -79 62 -128.5t163 -49.5q154 0 225.5 91t71.5 288q0 32 -0.5 48.5t-1.5 30.5z" />
    <glyph glyph-name="oslash" unicode="&#xf8;" horiz-adv-x="1118" 
d="M815 690l-467 -514q38 -40 92 -61t117 -21q135 0 221 97t86 253q0 67 -12 128t-37 118zM762 770q-41 44 -91 65t-112 21q-147 0 -227 -104.5t-80 -296.5q0 -62 9 -113.5t28 -95.5zM987 1024l74 -66l-129 -143q54 -63 82 -149t28 -187q0 -238 -130 -378t-353 -140
q-92 0 -169.5 24t-145.5 74l-117 -125l-68 62l113 125q-49 64 -73.5 149t-24.5 189q0 246 129.5 389t353.5 143q93 0 168.5 -25.5t140.5 -78.5z" />
    <glyph glyph-name="questiondown" unicode="&#xbf;" horiz-adv-x="1053" 
d="M406 1090h188v-213q0 -115 -24 -170.5t-85 -118.5q-16 -17 -48 -48q-140 -134 -140 -239q0 -83 62 -137.5t157 -54.5q107 0 173.5 74t72.5 200h186q-2 -193 -122 -309.5t-316 -116.5q-181 0 -295.5 95.5t-114.5 242.5q0 148 189 336q34 33 50 50q39 40 53 74.5t14 116.5
v218zM406 1262v198h188v-198h-188z" />
    <glyph glyph-name="exclamdown" unicode="&#xa1;" horiz-adv-x="588" 
d="M229 1083h129l39 -1083h-204zM201 1262v198h186v-198h-186z" />
    <glyph glyph-name="logicalnot" unicode="&#xac;" horiz-adv-x="1706" 
d="M1452 858v-502h-115v385h-1083v117h1198z" />
    <glyph glyph-name="radical" unicode="&#x221a;" horiz-adv-x="1288" 
d="M1288 1647v-82h-119l-594 -1606h-53l-323 893l-119 -43l-23 68l262 92l265 -729l522 1407h182z" />
    <glyph glyph-name="florin" unicode="&#x192;" horiz-adv-x="1147" 
d="M1071 1358l-27 -141q-45 17 -76.5 25.5t-52.5 8.5q-68 0 -106.5 -48t-67.5 -173l-57 -252h203l-25 -129h-205l-125 -583q-55 -256 -120 -335t-187 -79q-53 0 -103.5 11.5t-98.5 35.5l26 143q32 -14 62.5 -21t60.5 -7q120 0 187 292q5 22 8 34l116 509h-209l23 129h213
l49 232q55 250 118.5 323.5t188.5 73.5q43 0 91.5 -11.5t113.5 -37.5z" />
    <glyph glyph-name="approxequal" unicode="&#x2248;" horiz-adv-x="1706" 
d="M1530 453q-107 -75 -202 -110.5t-187 -35.5q-98 0 -288 69.5t-290 69.5q-82 0 -169.5 -35.5t-215.5 -123.5v131q106 73 202 109t185 36q111 0 301.5 -68.5t276.5 -68.5q85 0 173.5 35.5t213.5 122.5v-131zM1530 803q-104 -73 -200 -108.5t-187 -35.5q-100 0 -290 69
t-290 69q-83 0 -171.5 -36t-213.5 -122v131q106 73 202 109t185 36q111 0 300.5 -68.5t277.5 -68.5q87 0 175 35t212 121v-131z" />
    <glyph glyph-name="Delta" unicode="&#x2206;" horiz-adv-x="1356" 
d="M1122 158l-444 1138l-445 -1138h889zM780 1473l586 -1473h-1374l586 1473h202z" />
    <glyph glyph-name="guillemotleft" unicode="&#xab;" horiz-adv-x="819" 
d="M582 772h172l-209 -297l209 -295h-172l-203 295zM268 772h172l-209 -297l209 -295h-172l-202 295z" />
    <glyph glyph-name="guillemotright" unicode="&#xbb;" horiz-adv-x="819" 
d="M379 772h172l203 -297l-203 -295h-172l209 295zM66 772h172l202 -297l-202 -295h-172l208 295z" />
    <glyph glyph-name="ellipsis" unicode="&#x2026;" horiz-adv-x="2048" 
d="M239 221h207v-221h-207v221zM921 221h207v-221h-207v221zM1605 221h207v-221h-207v221z" />
    <glyph glyph-name="nonbreakingspace" unicode="&#xa0;" horiz-adv-x="1147" 
 />
    <glyph glyph-name="Agrave" unicode="&#xc0;" horiz-adv-x="1401" 
d="M698 1268l-305 -785h615l-303 785h-7zM594 1460h213l594 -1460h-203l-129 326h-737l-131 -326h-201zM454 1966h170l209 -352h-100z" />
    <glyph glyph-name="Atilde" unicode="&#xc3;" horiz-adv-x="1401" 
d="M698 1268l-305 -785h615l-303 785h-7zM594 1460h213l594 -1460h-203l-129 326h-737l-131 -326h-201zM909 1886h84q-27 -96 -75 -144t-118 -48q-15 0 -32 2.5t-35 7.5l-97 31q-15 4 -28 6t-25 2q-30 0 -53.5 -18.5t-38.5 -55.5h-86q23 95 72.5 143t124.5 48q17 0 32 -2
t27 -7l96 -30q21 -6 34 -8.5t22 -2.5q32 0 56 19t40 57z" />
    <glyph glyph-name="Otilde" unicode="&#xd5;" horiz-adv-x="1622" 
d="M811 1339q-221 0 -363.5 -171t-142.5 -439q0 -271 141 -439.5t365 -168.5t365 168.5t141 439.5q0 270 -142.5 440t-363.5 170zM811 1501q139 0 258.5 -44.5t212.5 -131.5q121 -113 181.5 -262t60.5 -334q0 -162 -56.5 -309t-158.5 -256q-100 -105 -223 -156t-275 -51
q-151 0 -284 56.5t-226 160.5q-103 114 -153 250.5t-50 304.5q0 172 51 308.5t158 250.5q94 102 226 157.5t278 55.5zM1020 1886h84q-27 -96 -75 -144t-118 -48q-15 0 -32 2.5t-35 7.5l-97 31q-15 4 -28 6t-25 2q-30 0 -53.5 -18.5t-38.5 -55.5h-86q23 95 72.5 143t124.5 48
q17 0 32 -2t27 -7l96 -30q21 -6 34 -8.5t22 -2.5q32 0 56 19t40 57z" />
    <glyph glyph-name="OE" unicode="&#x152;" horiz-adv-x="2167" 
d="M1104 1294q-65 25 -124.5 37t-109.5 12q-259 0 -413 -168.5t-154 -451.5q0 -270 154.5 -438t400.5 -168q67 0 128.5 14t117.5 43v1120zM1155 1460h875v-164h-732v-436h641v-164h-641v-532h746v-164h-909q-66 -22 -135.5 -32.5t-141.5 -10.5q-346 0 -553 209.5t-207 558.5
t204 563.5t536 214.5q74 0 153 -10.5t164 -32.5z" />
    <glyph glyph-name="oe" unicode="&#x153;" horiz-adv-x="1882" 
d="M1806 436h-780q3 -157 92 -248.5t240 -91.5q94 0 164 40.5t108 117.5h174q-47 -140 -161 -217.5t-271 -77.5q-159 0 -261.5 57t-170.5 183q-64 -125 -157 -181.5t-234 -56.5q-215 0 -345 140.5t-130 373.5q0 234 130 375t345 141q141 0 236.5 -58t160.5 -183
q63 122 163 182.5t239 60.5q212 0 336 -135t124 -371q0 -20 -0.5 -31t-1.5 -20zM1640 565q-12 141 -90 218t-209 77q-118 0 -200.5 -78.5t-106.5 -216.5h606zM559 854q-139 0 -221 -101.5t-82 -275.5q0 -176 81.5 -277.5t221.5 -101.5q139 0 221 102t82 277t-81.5 276
t-221.5 101z" />
    <glyph glyph-name="endash" unicode="&#x2013;" 
d="M0 543h1024v-107h-1024v107z" />
    <glyph glyph-name="emdash" unicode="&#x2014;" horiz-adv-x="2048" 
d="M0 543h2048v-107h-2048v107z" />
    <glyph glyph-name="quotedblleft" unicode="&#x201c;" horiz-adv-x="930" 
d="M391 1022h-207v192q0 64 17.5 124.5t52.5 119.5h125q-32 -50 -49 -104.5t-18 -112.5h79v-219zM745 1024h-206v193q0 63 17 123.5t52 119.5h125q-33 -53 -49.5 -106t-17.5 -109h79v-221z" />
    <glyph glyph-name="quotedblright" unicode="&#x201d;" horiz-adv-x="930" 
d="M551 1024q33 53 49.5 106t17.5 109h-79v221h206v-192q0 -63 -17 -124t-52 -120h-125zM197 1022q32 53 49 106.5t18 108.5h-80v221h207v-194q0 -62 -17 -121.5t-52 -120.5h-125z" />
    <glyph glyph-name="quoteleft" unicode="&#x2018;" horiz-adv-x="573" 
d="M254 1460h125q-33 -51 -49.5 -104t-17.5 -111h79v-221h-207v193q0 63 17.5 123.5t52.5 119.5z" />
    <glyph glyph-name="quoteright" unicode="&#x2019;" horiz-adv-x="573" 
d="M184 1460h207v-192q0 -63 -17.5 -124t-51.5 -120h-125q31 49 47.5 102t19.5 113h-80v221z" />
    <glyph glyph-name="divide" unicode="&#xf7;" horiz-adv-x="1706" 
d="M854 365q47 0 81 -34t34 -81t-33.5 -81t-81.5 -34t-81.5 33.5t-33.5 81.5t34 81.5t81 33.5zM1452 670v-117h-1198v117h1198zM854 1085q48 0 81.5 -33.5t33.5 -80.5q0 -48 -33.5 -81.5t-81.5 -33.5q-49 0 -82 33.5t-33 81.5q0 47 34 80.5t81 33.5z" />
    <glyph glyph-name="lozenge" unicode="&#x25ca;" horiz-adv-x="1012" 
d="M506 1409l-385 -817l385 -825l385 825zM506 1653l500 -1061l-500 -1069l-500 1069z" />
    <glyph glyph-name="ydieresis" unicode="&#xff;" horiz-adv-x="1030" 
d="M0 952h195l317 -753h8l318 753h188l-498 -1122q-68 -156 -138.5 -216t-176.5 -60q-37 0 -77 7t-83 21v176q37 -20 69.5 -30.5t61.5 -10.5q54 0 92.5 31t75.5 105l78 157zM600 1352h158v-176h-158v176zM274 1352h156v-176h-156v176z" />
    <glyph glyph-name="Ydieresis" unicode="&#x178;" horiz-adv-x="1307" 
d="M0 1460h221l432 -755l430 755h222l-560 -930v-530h-186v530zM737 1864h158v-176h-158v176zM411 1864h156v-176h-156v176z" />
    <glyph glyph-name="fraction" unicode="&#x2215;" horiz-adv-x="342" 
d="M598 1407l84 -61l-942 -1385l-82 68z" />
    <glyph glyph-name="currency" unicode="&#xa4;" horiz-adv-x="1147" 
d="M1087 365q-39 -204 -147 -304t-289 -100q-204 0 -327.5 148.5t-149.5 429.5h-145l20 67l121 1q-1 12 -1.5 28t-0.5 49q0 42 0.5 63t1.5 37h-141l20 68h127q29 268 153 412.5t322 144.5q180 0 293.5 -106t142.5 -299h-184q-24 121 -89.5 188.5t-158.5 67.5
q-121 0 -196 -104.5t-97 -303.5h543l-22 -68h-527q-1 -17 -1.5 -37.5t-0.5 -62.5q0 -34 0.5 -49t2.5 -29h460l-24 -67h-433q20 -207 96.5 -315.5t200.5 -108.5q97 0 160 63.5t86 186.5h184z" />
    <glyph glyph-name="guilsinglleft" unicode="&#x2039;" horiz-adv-x="506" 
d="M268 774h172l-209 -289l209 -286h-172l-202 286z" />
    <glyph glyph-name="guilsinglright" unicode="&#x203a;" horiz-adv-x="506" 
d="M66 774h172l202 -289l-202 -286h-172l208 286z" />
    <glyph glyph-name="fi" unicode="&#xf001;" horiz-adv-x="1124" 
d="M772 952h170v-952h-170v952zM772 1333h170v-186h-170v186zM221 0v817h-127v135h127v246q0 152 69 228.5t206 76.5q34 0 78 -7.5t94 -22.5v-150q-38 17 -71.5 25t-64.5 8q-68 0 -104.5 -44t-36.5 -126v-234h277v-135h-277v-817h-170z" />
    <glyph glyph-name="fl" unicode="&#xf002;" horiz-adv-x="1124" 
d="M772 1460h170v-1460h-170v1460zM221 952v246q0 152 69 228.5t206 76.5q34 0 78 -7.5t94 -22.5v-150q-38 17 -71.5 25t-64.5 8q-68 0 -104.5 -44t-36.5 -126v-234h277v-135h-277v-817h-170v817h-127v135h127z" />
    <glyph glyph-name="daggerdbl" unicode="&#x2021;" 
d="M438 1460h137v-422h381v-118h-381v-609h381v-118h-381v-422h-137v422h-370v118h370v609h-370v118h370v422z" />
    <glyph glyph-name="periodcentered" unicode="&#xb7;" horiz-adv-x="573" 
d="M150 684q0 56 40.5 97.5t96.5 41.5t96.5 -41t40.5 -98q0 -56 -40.5 -96.5t-96.5 -40.5t-96.5 41t-40.5 96z" />
    <glyph glyph-name="quotesinglbase" unicode="&#x201a;" horiz-adv-x="573" 
d="M184 221h207v-194q0 -62 -17.5 -122.5t-51.5 -119.5h-125q32 51 49 104.5t18 110.5h-80v221z" />
    <glyph glyph-name="quotedblbase" unicode="&#x201e;" horiz-adv-x="930" 
d="M184 217h207v-192q0 -62 -17 -121.5t-52 -120.5h-125q32 53 49 106t18 109h-80v219zM539 221h206v-192q0 -63 -17 -124t-52 -120h-125q33 53 49.5 106t17.5 109h-79v221z" />
    <glyph glyph-name="perthousand" unicode="&#x2030;" horiz-adv-x="2220" 
d="M1690 338q0 -125 39.5 -195.5t109.5 -70.5q71 0 111.5 70t40.5 194q0 125 -40.5 195.5t-111.5 70.5t-110 -69t-39 -195zM1563 338q0 180 71.5 277.5t202.5 97.5q136 0 208.5 -97t72.5 -278q0 -182 -73 -279.5t-208 -97.5q-130 0 -202 99t-72 278zM1004 338
q0 -126 39.5 -196t109.5 -70q71 0 111.5 70t40.5 194q0 125 -40.5 195.5t-111.5 70.5t-110 -69t-39 -195zM877 338q0 180 71.5 277.5t202.5 97.5q136 0 208.5 -97t72.5 -278q0 -182 -73 -279.5t-208 -97.5q-130 0 -202 99t-72 278zM264 23l926 1384l88 -61l-926 -1385z
M231 1022q0 -127 39.5 -196.5t110.5 -69.5t110 70t39 196q0 125 -39.5 195.5t-109.5 70.5t-110 -70t-40 -196zM102 1020q0 180 72 278.5t203 98.5q135 0 207.5 -97.5t72.5 -279.5q0 -181 -72.5 -278t-207.5 -97q-131 0 -203 98t-72 277z" />
    <glyph glyph-name="Acircumflex" unicode="&#xc2;" horiz-adv-x="1401" 
d="M698 1268l-305 -785h615l-303 785h-7zM594 1460h213l594 -1460h-203l-129 326h-737l-131 -326h-201zM618 1966h164l201 -352h-101l-182 254l-182 -254h-101z" />
    <glyph glyph-name="Ecircumflex" unicode="&#xca;" horiz-adv-x="1247" 
d="M172 1460h918v-164h-732v-436h641v-164h-641v-532h744v-164h-930v1460zM541 1966h164l201 -352h-101l-182 254l-182 -254h-101z" />
    <glyph glyph-name="Aacute" unicode="&#xc1;" horiz-adv-x="1401" 
d="M698 1268l-305 -785h615l-303 785h-7zM594 1460h213l594 -1460h-203l-129 326h-737l-131 -326h-201zM776 1966h170l-279 -352h-100z" />
    <glyph glyph-name="Edieresis" unicode="&#xcb;" horiz-adv-x="1247" 
d="M172 1460h918v-164h-732v-436h641v-164h-641v-532h744v-164h-930v1460zM707 1864h158v-176h-158v176zM381 1864h156v-176h-156v176z" />
    <glyph glyph-name="Egrave" unicode="&#xc8;" horiz-adv-x="1247" 
d="M172 1460h918v-164h-732v-436h641v-164h-641v-532h744v-164h-930v1460zM377 1966h170l209 -352h-100z" />
    <glyph glyph-name="Iacute" unicode="&#xcd;" horiz-adv-x="557" 
d="M184 1460h187v-1460h-187v1460zM355 1966h170l-279 -352h-100z" />
    <glyph glyph-name="Icircumflex" unicode="&#xce;" horiz-adv-x="557" 
d="M184 1460h187v-1460h-187v1460zM197 1966h164l201 -352h-101l-182 254l-182 -254h-101z" />
    <glyph glyph-name="Idieresis" unicode="&#xcf;" horiz-adv-x="557" 
d="M184 1460h187v-1460h-187v1460zM363 1864h158v-176h-158v176zM37 1864h156v-176h-156v176z" />
    <glyph glyph-name="Igrave" unicode="&#xcc;" horiz-adv-x="557" 
d="M184 1460h187v-1460h-187v1460zM33 1966h170l209 -352h-100z" />
    <glyph glyph-name="Oacute" unicode="&#xd3;" horiz-adv-x="1622" 
d="M811 1339q-221 0 -363.5 -171t-142.5 -439q0 -271 141 -439.5t365 -168.5t365 168.5t141 439.5q0 270 -142.5 440t-363.5 170zM811 1501q139 0 258.5 -44.5t212.5 -131.5q121 -113 181.5 -262t60.5 -334q0 -162 -56.5 -309t-158.5 -256q-100 -105 -223 -156t-275 -51
q-151 0 -284 56.5t-226 160.5q-103 114 -153 250.5t-50 304.5q0 172 51 308.5t158 250.5q94 102 226 157.5t278 55.5zM887 1966h170l-279 -352h-100z" />
    <glyph glyph-name="Ocircumflex" unicode="&#xd4;" horiz-adv-x="1622" 
d="M811 1339q-221 0 -363.5 -171t-142.5 -439q0 -271 141 -439.5t365 -168.5t365 168.5t141 439.5q0 270 -142.5 440t-363.5 170zM811 1501q139 0 258.5 -44.5t212.5 -131.5q121 -113 181.5 -262t60.5 -334q0 -162 -56.5 -309t-158.5 -256q-100 -105 -223 -156t-275 -51
q-151 0 -284 56.5t-226 160.5q-103 114 -153 250.5t-50 304.5q0 172 51 308.5t158 250.5q94 102 226 157.5t278 55.5zM729 1966h164l201 -352h-101l-182 254l-182 -254h-101z" />
    <glyph glyph-name="apple" unicode="&#xf000;" horiz-adv-x="1618" 
d="M836 1216q-1 6 -1.5 14t-0.5 23q0 124 95 229.5t236 131.5q1 -10 1.5 -23t0.5 -39q0 -131 -103.5 -234.5t-203.5 -103.5h-8q-3 0 -7.5 1t-8.5 1zM1505 403q-114 -247 -205 -342.5t-204 -95.5q-50 0 -131.5 33t-122.5 33q-45 0 -131 -33t-127 -33q-64 0 -128.5 44
t-129.5 132q-102 140 -157.5 295.5t-55.5 300.5q0 219 125 356.5t323 137.5q68 0 155 -34t124 -34q34 0 121.5 35t152.5 35q110 0 198 -40t161 -124q-102 -65 -151.5 -145.5t-49.5 -182.5q0 -113 60 -200t173 -138z" />
    <glyph glyph-name="Ograve" unicode="&#xd2;" horiz-adv-x="1622" 
d="M811 1339q-221 0 -363.5 -171t-142.5 -439q0 -271 141 -439.5t365 -168.5t365 168.5t141 439.5q0 270 -142.5 440t-363.5 170zM811 1501q139 0 258.5 -44.5t212.5 -131.5q121 -113 181.5 -262t60.5 -334q0 -162 -56.5 -309t-158.5 -256q-100 -105 -223 -156t-275 -51
q-151 0 -284 56.5t-226 160.5q-103 114 -153 250.5t-50 304.5q0 172 51 308.5t158 250.5q94 102 226 157.5t278 55.5zM565 1966h170l209 -352h-100z" />
    <glyph glyph-name="Uacute" unicode="&#xda;" horiz-adv-x="1554" 
d="M172 1460h188v-839q0 -140 12 -212t40 -122q42 -77 138 -119.5t228 -42.5t227.5 42t139.5 120q27 50 39 116.5t12 188.5v868h186v-919q0 -294 -150 -439t-454 -145q-305 0 -455.5 145t-150.5 439v919zM852 1966h170l-279 -352h-100z" />
    <glyph glyph-name="Ucircumflex" unicode="&#xdb;" horiz-adv-x="1554" 
d="M172 1460h188v-839q0 -140 12 -212t40 -122q42 -77 138 -119.5t228 -42.5t227.5 42t139.5 120q27 50 39 116.5t12 188.5v868h186v-919q0 -294 -150 -439t-454 -145q-305 0 -455.5 145t-150.5 439v919zM694 1966h164l201 -352h-101l-182 254l-182 -254h-101z" />
    <glyph glyph-name="Ugrave" unicode="&#xd9;" horiz-adv-x="1554" 
d="M172 1460h188v-839q0 -140 12 -212t40 -122q42 -77 138 -119.5t228 -42.5t227.5 42t139.5 120q27 50 39 116.5t12 188.5v868h186v-919q0 -294 -150 -439t-454 -145q-305 0 -455.5 145t-150.5 439v919zM530 1966h170l209 -352h-100z" />
    <glyph glyph-name="dotlessi" unicode="&#x131;" horiz-adv-x="487" 
d="M160 952h170v-952h-170v952z" />
    <glyph glyph-name="circumflex" unicode="&#x2c6;" 
d="M430 1454h164l201 -352h-101l-182 254l-182 -254h-101z" />
    <glyph glyph-name="tilde" unicode="&#x2dc;" 
d="M721 1374h84q-27 -96 -75 -144t-118 -48q-15 0 -32 2.5t-35 7.5l-97 31q-15 4 -28 6t-25 2q-30 0 -53.5 -18.5t-38.5 -55.5h-86q23 95 72.5 143t124.5 48q17 0 32 -2t27 -7l96 -30q21 -6 34 -8.5t22 -2.5q32 0 56 19t40 57z" />
    <glyph glyph-name="macron" unicode="&#xaf;" 
d="M250 1325h524v-123h-524v123z" />
    <glyph glyph-name="breve" unicode="&#x2d8;" 
d="M232 1411h87q7 -75 53 -110t140 -35q95 0 140.5 34.5t52.5 110.5h85q-9 -139 -76 -203.5t-202 -64.5t-203 65t-77 203z" />
    <glyph glyph-name="dotaccent" unicode="&#x2d9;" 
d="M428 1358h168v-189h-168v189z" />
    <glyph glyph-name="ring" unicode="&#x2da;" 
d="M512 1473q-61 0 -103 -42t-42 -104q0 -61 42 -103t103 -42q60 0 102.5 42.5t42.5 102.5q0 61 -42 103.5t-103 42.5zM512 1573q103 0 174.5 -71.5t71.5 -174.5q0 -102 -71.5 -173t-174.5 -71t-173.5 70.5t-70.5 173.5t71 174.5t173 71.5z" />
    <glyph glyph-name="cedilla" unicode="&#xb8;" 
d="M477 0h70v-106h14q110 0 167.5 -44.5t57.5 -128.5q0 -89 -58.5 -135.5t-172.5 -46.5q-58 0 -120.5 9.5t-135.5 29.5l2 86q77 -18 135.5 -27.5t100.5 -9.5q65 0 97 22t32 66q0 52 -34.5 75.5t-109.5 23.5q-7 0 -21.5 -1t-23.5 -1v188z" />
    <glyph glyph-name="hungarumlaut" unicode="&#x2dd;" 
d="M737 1454h150l-238 -352h-78zM473 1454h150l-215 -352h-78z" />
    <glyph glyph-name="ogonek" unicode="&#x2db;" 
d="M549 18h67q-71 -62 -107 -120t-36 -111q0 -45 24.5 -64.5t82.5 -19.5h77v-115h-71q-112 0 -166.5 39.5t-54.5 120.5q0 67 45.5 133.5t138.5 136.5z" />
    <glyph glyph-name="caron" unicode="&#x2c7;" 
d="M229 1454h101l182 -254l182 254h101l-201 -352h-164z" />
    <glyph glyph-name="Lslash" unicode="&#x141;" horiz-adv-x="1165" 
d="M182 1460h187v-590l370 265v-162l-370 -264v-545h749v-164h-936v600l-182 -131v162l182 131v698z" />
    <glyph glyph-name="lslash" unicode="&#x142;" horiz-adv-x="516" 
d="M172 639l-158 -123v139l158 125v680h170v-594l160 123v-139l-160 -123v-727h-170v639z" />
    <glyph glyph-name="Scaron" unicode="&#x160;" horiz-adv-x="1368" 
d="M1253 1067h-196q-11 130 -106.5 202t-256.5 72q-152 0 -253 -68.5t-101 -170.5q0 -103 63 -156.5t254 -95.5q22 -5 61 -13q268 -58 378 -126q83 -53 126.5 -127t43.5 -164q0 -201 -159.5 -332t-410.5 -131q-276 0 -435.5 129t-174.5 365l201 -1q1 -152 108 -242.5
t287 -90.5q158 0 262.5 80t104.5 198q0 48 -21 90.5t-63 81.5q-59 54 -291 104q-51 11 -78 17q-253 59 -364 150.5t-111 238.5q0 190 155 307t410 117q251 0 400 -114t167 -320zM401 1966h101l182 -254l182 254h101l-201 -352h-164z" />
    <glyph glyph-name="scaron" unicode="&#x161;" horiz-adv-x="995" 
d="M895 670h-162q-3 87 -63 138.5t-160 51.5q-95 0 -157 -42.5t-62 -104.5q0 -56 46.5 -89.5t172.5 -60.5q219 -46 304 -111t85 -178q0 -142 -110 -227.5t-295 -85.5q-189 0 -298.5 89t-127.5 255h170q0 -95 65.5 -154t171.5 -59q103 0 168.5 46.5t65.5 119.5
q0 108 -214 162q-51 13 -79 20q-172 49 -238.5 104t-66.5 144q0 139 104 221t281 82q184 0 289 -84.5t110 -236.5zM215 1454h101l182 -254l182 254h101l-201 -352h-164z" />
    <glyph glyph-name="Zcaron" unicode="&#x17d;" horiz-adv-x="1294" 
d="M119 1460h1100v-192l-945 -1104h949v-164h-1151v199l940 1097h-893v164zM364 1966h101l182 -254l182 254h101l-201 -352h-164z" />
    <glyph glyph-name="zcaron" unicode="&#x17e;" horiz-adv-x="924" 
d="M100 952h736v-161l-568 -656h582v-135h-774v152l575 665h-551v135zM180 1454h101l182 -254l182 254h101l-201 -352h-164z" />
    <glyph glyph-name="brokenbar" unicode="&#xa6;" 
d="M575 408v-758h-126v758h126zM575 1432v-758h-126v758h126z" />
    <glyph glyph-name="Eth" unicode="&#xd0;" horiz-adv-x="1556" 
d="M358 1296v-503h365v-129h-365v-500h293q297 0 448.5 142t151.5 421q0 280 -152.5 424.5t-447.5 144.5h-293zM172 1460h490q383 0 589.5 -190t206.5 -543q0 -341 -204 -534t-564 -193h-518v664h-172v129h172v667z" />
    <glyph glyph-name="eth" unicode="&#xf0;" horiz-adv-x="1118" 
d="M559 854q-138 0 -220.5 -102t-82.5 -275q0 -176 81.5 -277.5t221.5 -101.5t221.5 101.5t81.5 275.5q0 175 -82 277t-221 102zM844 1503l53 -86l-240 -147q194 -160 290.5 -349.5t96.5 -410.5q0 -259 -126.5 -404t-354.5 -145q-222 0 -354.5 140t-132.5 374
q0 228 125.5 371t322.5 143q73 0 143 -24.5t138 -73.5q-35 78 -102.5 153t-165.5 146l-287 -172l-51 86l239 147q-55 36 -118 67t-144 62l55 123q95 -35 177.5 -77t154.5 -93z" />
    <glyph glyph-name="Yacute" unicode="&#xdd;" horiz-adv-x="1307" 
d="M0 1460h221l432 -755l430 755h222l-560 -930v-530h-186v530zM729 1966h170l-279 -352h-100z" />
    <glyph glyph-name="yacute" unicode="&#xfd;" horiz-adv-x="1030" 
d="M0 952h195l317 -753h8l318 753h188l-498 -1122q-68 -156 -138.5 -216t-176.5 -60q-37 0 -77 7t-83 21v176q37 -20 69.5 -30.5t61.5 -10.5q54 0 92.5 31t75.5 105l78 157zM592 1454h170l-279 -352h-100z" />
    <glyph glyph-name="Thorn" unicode="&#xde;" horiz-adv-x="1305" 
d="M358 1053v-590h320q179 0 265.5 73t86.5 224q0 148 -87 220.5t-265 72.5h-320zM172 1460h186v-248h326q259 0 400 -117.5t141 -332.5q0 -224 -139 -342.5t-402 -118.5h-326v-301h-186v1460z" />
    <glyph glyph-name="thorn" unicode="&#xfe;" horiz-adv-x="1143" 
d="M600 852q-125 0 -201.5 -103.5t-76.5 -275.5q0 -170 77.5 -273.5t200.5 -103.5q125 0 204 105t79 272q0 166 -80.5 272.5t-202.5 106.5zM154 1460h172l-11 -682q48 107 130.5 160t201.5 53q178 0 297 -146.5t119 -371.5q0 -227 -118 -370.5t-302 -143.5q-107 0 -189.5 48
t-131.5 138l2 -563h-170v1878z" />
    <glyph glyph-name="minus" unicode="&#x2212;" horiz-adv-x="1706" 
d="M1452 670v-119h-1198v119h1198z" />
    <glyph glyph-name="multiply" unicode="&#xd7;" horiz-adv-x="1706" 
d="M858 692l475 477l82 -82l-475 -477l475 -475l-82 -82l-475 475l-477 -475l-80 82l475 475l-475 477l80 82z" />
    <glyph glyph-name="onesuperior" unicode="&#xb9;" horiz-adv-x="758" 
d="M352 1391h105v-842h-119v696l-125 -123l-59 64z" />
    <glyph glyph-name="twosuperior" unicode="&#xb2;" horiz-adv-x="758" 
d="M221 639h453v-90h-600q9 81 56.5 152t141.5 143q38 28 118 80.5t108 81.5q31 33 46 66t15 71q0 73 -50.5 117.5t-133.5 44.5q-80 0 -131 -50.5t-51 -130.5v-14h-121v16q0 128 80 198.5t225 70.5q139 0 224 -71t85 -185q0 -77 -42 -136t-181 -149q-117 -76 -169.5 -123.5
t-72.5 -91.5z" />
    <glyph glyph-name="threesuperior" unicode="&#xb3;" horiz-adv-x="758" 
d="M498 1008q96 -20 147 -76t51 -141q0 -118 -88.5 -191.5t-234.5 -73.5q-147 0 -226.5 60t-93.5 182h125q8 -71 59 -111.5t134 -40.5q91 0 147.5 50.5t56.5 132.5q0 76 -56 117.5t-159 41.5q-23 0 -36 -0.5t-23 -0.5v94q11 0 26.5 -1t20.5 -1q93 0 144 34.5t51 98.5
q0 54 -43.5 87.5t-114.5 33.5q-82 0 -128.5 -39t-52.5 -111h-126q15 116 95 180t210 64q127 0 204 -59.5t77 -155.5q0 -63 -44.5 -109.5t-121.5 -64.5z" />
    <glyph glyph-name="onequarter" unicode="&#xbc;" horiz-adv-x="1788" 
d="M1538 662l-315 -383h309zM1530 786h104v-503h109v-84h-105v-199h-108v199h-426v77zM1321 1407l84 -61l-942 -1385l-82 68zM336 1389h98v-787h-112v649l-119 -112l-58 59z" />
    <glyph glyph-name="onehalf" unicode="&#xbd;" horiz-adv-x="1788" 
d="M1276 84h432v-84h-571q7 74 52 140t136 134q38 29 114 78t101 74q29 28 43 60t14 67q0 68 -47.5 110t-126.5 42q-76 0 -125 -46.5t-49 -119.5v-17h-116v17q0 119 77 185.5t215 66.5q132 0 212.5 -67t80.5 -173q0 -71 -38.5 -125.5t-172.5 -140.5q-122 -80 -167.5 -121
t-63.5 -80zM1321 1407l84 -61l-942 -1385l-82 68zM336 1389h98v-787h-112v649l-119 -112l-58 59z" />
    <glyph glyph-name="threequarters" unicode="&#xbe;" horiz-adv-x="1788" 
d="M1538 662l-315 -383h309zM1530 786h104v-503h109v-84h-105v-199h-108v199h-426v77zM1321 1407l84 -61l-942 -1385l-82 68zM475 1030q92 -18 140.5 -70t48.5 -133q0 -110 -85 -177.5t-225 -67.5q-139 0 -215 56t-88 169h119q8 -67 56.5 -104t127.5 -37q88 0 141.5 46.5
t53.5 123.5q0 71 -53.5 110t-151.5 39q-9 0 -28 -1t-29 -1v88q11 -1 20.5 -1.5t24.5 -0.5q89 0 137.5 32t48.5 91q0 51 -41 83t-108 32q-79 0 -124.5 -37.5t-50.5 -104.5h-118q12 109 87.5 168.5t201.5 59.5q122 0 195 -55t73 -146q0 -58 -42.5 -101.5t-115.5 -60.5z" />
    <glyph glyph-name="franc" unicode="&#x20a3;" horiz-adv-x="1925" 
d="M172 1460h918v-164h-732v-436h658v-164h-658v-696h-186v1460zM1926 991v-164q-8 0 -22 1t-21 1q-196 0 -286.5 -97.5t-90.5 -307.5v-424h-176v952h174l-4 -200q72 124 169 181.5t234 57.5h23z" />
    <glyph glyph-name="Gbreve" unicode="&#x11e;" horiz-adv-x="1577" 
d="M1440 1024h-195q-44 153 -153 235t-267 82q-232 0 -374 -169t-142 -447q0 -267 144 -438.5t366 -171.5q194 0 318.5 123.5t124.5 318.5h-263v145h447v-702h-139l-13 231q-67 -133 -193.5 -204.5t-293.5 -71.5q-129 0 -237 36t-193 107q-135 114 -207 276.5t-72 356.5
q0 129 31.5 241.5t93.5 207.5q105 159 256 241t340 82q240 0 405 -127.5t216 -351.5zM508 1923h87q7 -75 53 -110t140 -35q95 0 140.5 34.5t52.5 110.5h85q-9 -139 -76 -203.5t-202 -64.5t-203 65t-77 203z" />
    <glyph glyph-name="gbreve" unicode="&#x11f;" horiz-adv-x="1143" 
d="M821 145q-49 -90 -131.5 -138t-189.5 -48q-184 0 -302 143.5t-118 370.5q0 225 119 371.5t297 146.5q118 0 200 -52.5t131 -160.5l-4 174h166v-944q0 -235 -110 -344.5t-344 -109.5q-187 0 -288.5 73.5t-113.5 218.5h195q14 -78 74.5 -124t152.5 -46q128 0 197 76t69 215
v178zM545 852q-123 0 -204 -107.5t-81 -275.5q0 -166 79.5 -269.5t205.5 -103.5q123 0 199.5 103.5t76.5 273.5q0 172 -76 275.5t-200 103.5zM291 1411h87q7 -75 53 -110t140 -35q95 0 140.5 34.5t52.5 110.5h85q-9 -139 -76 -203.5t-202 -64.5t-203 65t-77 203z" />
    <glyph glyph-name="Idotaccent" unicode="&#x130;" horiz-adv-x="557" 
d="M184 1460h187v-1460h-187v1460zM195 1870h168v-189h-168v189z" />
    <glyph glyph-name="Scedilla" unicode="&#x15e;" horiz-adv-x="1368" 
d="M1253 1067h-196q-11 130 -106.5 202t-256.5 72q-152 0 -253 -68.5t-101 -170.5q0 -103 63 -156.5t254 -95.5q22 -5 61 -13q268 -58 378 -126q83 -53 126.5 -127t43.5 -164q0 -201 -159.5 -332t-410.5 -131q-276 0 -435.5 129t-174.5 365l201 -1q1 -152 108 -242.5
t287 -90.5q158 0 262.5 80t104.5 198q0 48 -21 90.5t-63 81.5q-59 54 -291 104q-51 11 -78 17q-253 59 -364 150.5t-111 238.5q0 190 155 307t410 117q251 0 400 -114t167 -320zM649 0h70v-106h14q110 0 167.5 -44.5t57.5 -128.5q0 -89 -58.5 -135.5t-172.5 -46.5
q-58 0 -120.5 9.5t-135.5 29.5l2 86q77 -18 135.5 -27.5t100.5 -9.5q65 0 97 22t32 66q0 52 -34.5 75.5t-109.5 23.5q-7 0 -21.5 -1t-23.5 -1v188z" />
    <glyph glyph-name="scedilla" unicode="&#x15f;" horiz-adv-x="995" 
d="M895 670h-162q-3 87 -63 138.5t-160 51.5q-95 0 -157 -42.5t-62 -104.5q0 -56 46.5 -89.5t172.5 -60.5q219 -46 304 -111t85 -178q0 -142 -110 -227.5t-295 -85.5q-189 0 -298.5 89t-127.5 255h170q0 -95 65.5 -154t171.5 -59q103 0 168.5 46.5t65.5 119.5
q0 108 -214 162q-51 13 -79 20q-172 49 -238.5 104t-66.5 144q0 139 104 221t281 82q184 0 289 -84.5t110 -236.5zM463 0h70v-106h14q110 0 167.5 -44.5t57.5 -128.5q0 -89 -58.5 -135.5t-172.5 -46.5q-58 0 -120.5 9.5t-135.5 29.5l2 86q77 -18 135.5 -27.5t100.5 -9.5
q65 0 97 22t32 66q0 52 -34.5 75.5t-109.5 23.5q-7 0 -21.5 -1t-23.5 -1v188z" />
    <glyph glyph-name="Cacute" unicode="&#x106;" horiz-adv-x="1561" 
d="M1458 1026h-209q-43 150 -150.5 228.5t-269.5 78.5q-227 0 -373.5 -170t-146.5 -434q0 -269 146 -435.5t381 -166.5q177 0 292 93.5t132 252.5h206q-35 -243 -205.5 -378.5t-443.5 -135.5q-145 0 -272.5 47t-214.5 133q-111 110 -171.5 263t-60.5 325q0 347 198.5 560.5
t518.5 213.5q256 0 419 -120.5t224 -354.5zM887 1966h170l-279 -352h-100z" />
    <glyph glyph-name="cacute" unicode="&#x107;" horiz-adv-x="1010" 
d="M954 653h-178q-20 97 -82 151t-153 54q-130 0 -208.5 -102.5t-78.5 -274.5q0 -176 78 -280.5t209 -104.5q92 0 155.5 61.5t81.5 168.5h176q-21 -175 -130.5 -270t-291.5 -95q-210 0 -334 142t-124 380q0 232 126.5 370t338.5 138q175 0 283.5 -88t131.5 -250zM602 1454
h170l-279 -352h-100z" />
    <glyph glyph-name="Ccaron" unicode="&#x10c;" horiz-adv-x="1561" 
d="M1458 1026h-209q-43 150 -150.5 228.5t-269.5 78.5q-227 0 -373.5 -170t-146.5 -434q0 -269 146 -435.5t381 -166.5q177 0 292 93.5t132 252.5h206q-35 -243 -205.5 -378.5t-443.5 -135.5q-145 0 -272.5 47t-214.5 133q-111 110 -171.5 263t-60.5 325q0 347 198.5 560.5
t518.5 213.5q256 0 419 -120.5t224 -354.5zM528 1966h101l182 -254l182 254h101l-201 -352h-164z" />
    <glyph glyph-name="ccaron" unicode="&#x10d;" horiz-adv-x="1010" 
d="M954 653h-178q-20 97 -82 151t-153 54q-130 0 -208.5 -102.5t-78.5 -274.5q0 -176 78 -280.5t209 -104.5q92 0 155.5 61.5t81.5 168.5h176q-21 -175 -130.5 -270t-291.5 -95q-210 0 -334 142t-124 380q0 232 126.5 370t338.5 138q175 0 283.5 -88t131.5 -250zM243 1454
h101l182 -254l182 254h101l-201 -352h-164z" />
    <glyph glyph-name="dcroat" unicode="&#x111;" horiz-adv-x="1143" 
d="M543 856q-126 0 -203.5 -103.5t-77.5 -271.5q0 -166 80 -272.5t201 -106.5q125 0 201.5 103.5t76.5 275.5q0 169 -78 272t-200 103zM819 1460h170v-196h154v-101h-154v-1161h-166l4 174q-49 -109 -131 -162t-200 -53q-178 0 -297 147.5t-119 372.5q0 226 118 370t302 144
q106 0 189 -48.5t132 -139.5v356h-299v101h297v196z" />
    <glyph glyph-name="sfthyphen" unicode="&#xad;" horiz-adv-x="713" 
d="M154 561h405v-141h-405v141z" />
    <glyph glyph-name="periodcentered" unicode="&#x2219;" horiz-adv-x="573" 
d="M150 684q0 56 40.5 97.5t96.5 41.5t96.5 -41t40.5 -98q0 -56 -40.5 -96.5t-96.5 -40.5t-96.5 41t-40.5 96z" />
    <glyph glyph-name="euro" horiz-adv-x="1147" 
d="M1087 365q-39 -204 -147 -304t-289 -100q-204 0 -327.5 148.5t-149.5 429.5h-145l20 67l121 1q-1 12 -1.5 28t-0.5 49q0 42 0.5 63t1.5 37h-141l20 68h127q29 268 153 412.5t322 144.5q180 0 293.5 -106t142.5 -299h-184q-24 121 -89.5 188.5t-158.5 67.5
q-121 0 -196 -104.5t-97 -303.5h543l-22 -68h-527q-1 -17 -1.5 -37.5t-0.5 -62.5q0 -34 0.5 -49t2.5 -29h460l-24 -67h-433q20 -207 96.5 -315.5t200.5 -108.5q97 0 160 63.5t86 186.5h184z" />
    <glyph glyph-name="euro" unicode="&#x20ac;" horiz-adv-x="1147" 
d="M1087 365q-39 -204 -147 -304t-289 -100q-204 0 -327.5 148.5t-149.5 429.5h-145l20 67l121 1q-1 12 -1.5 28t-0.5 49q0 42 0.5 63t1.5 37h-141l20 68h127q29 268 153 412.5t322 144.5q180 0 293.5 -106t142.5 -299h-184q-24 121 -89.5 188.5t-158.5 67.5
q-121 0 -196 -104.5t-97 -303.5h543l-22 -68h-527q-1 -17 -1.5 -37.5t-0.5 -62.5q0 -34 0.5 -49t2.5 -29h460l-24 -67h-433q20 -207 96.5 -315.5t200.5 -108.5q97 0 160 63.5t86 186.5h184z" />
    </font>
</defs>
</svg>
